<svg width="365" height="349" viewBox="0 0 365 349" fill="none" xmlns="http://www.w3.org/2000/svg">
<g clip-path="url(#clip0_1068_6036)">
<path d="M55.8665 287.432L38.4926 287.693C32.6607 287.78 26.7767 287.823 20.9014 287.832H20.5016V287.432L20.4668 277.692V277.257H20.9014L38.3883 277.318L47.1317 277.397L55.8752 277.501H56.0664V277.692L55.8752 287.432H55.8665ZM55.8665 287.432L55.6753 277.692L55.8665 277.884L47.123 277.988L38.3796 278.067L20.8927 278.128L21.3272 277.692L21.2925 287.432L20.8927 287.031C26.6724 287.04 32.4521 287.084 38.2666 287.171L55.8578 287.432H55.8665Z" fill="#EBEBEB"/>
<path d="M36.3538 289.973H1.38867V299.712H36.3538V289.973Z" fill="#EBEBEB"/>
<path d="M225.157 325.065H190.191V334.805H225.157V325.065Z" fill="#EBEBEB"/>
<path d="M363.608 207.987H328.643V217.726H363.608V207.987Z" fill="#EBEBEB"/>
<path d="M268.204 10.1743L250.83 10.4354C244.999 10.5225 239.115 10.566 233.239 10.5747H232.839V10.1743L232.805 0.435173V0H233.239L250.726 0.0609242L259.47 0.139255L268.213 0.243697H268.404V0.435173L268.213 10.1743H268.204ZM268.204 10.1743L268.013 0.435173L268.204 0.626649L259.461 0.731091L250.717 0.809422L233.231 0.870346L233.665 0.435173L233.63 10.1743L233.231 9.77398C239.01 9.78269 244.79 9.82621 250.604 9.91324L268.196 10.1743H268.204Z" fill="#EBEBEB"/>
<path d="M287.707 12.7157H252.742V22.4549H287.707V12.7157Z" fill="#EBEBEB"/>
<path d="M36.3548 10.1743L18.9808 10.4354C13.149 10.5225 7.26496 10.566 1.38964 10.5747H0.989843V10.1743L0.955078 0.435173V0H1.38964L18.8765 0.0609242L27.62 0.139255L36.3635 0.243697H36.5547V0.435173L36.3635 10.1743H36.3548ZM36.3548 10.1743L36.1636 0.435173L36.3548 0.626649L27.6113 0.731091L18.8679 0.809422L1.38095 0.870346L1.81552 0.435173L1.78075 10.1743L1.38095 9.77398C7.16067 9.78269 12.9404 9.82621 18.7549 9.91324L36.3461 10.1743H36.3548Z" fill="#EBEBEB"/>
<path d="M194.268 142.354H159.303V152.093H194.268V142.354Z" fill="#EBEBEB"/>
<path d="M352.926 6.4928H294.182V77.8525H352.926V6.4928Z" fill="#EBEBEB"/>
<path d="M346.216 13.0029H300.891V71.3335H346.216V13.0029Z" fill="white"/>
<path d="M302.655 13.0029H300.891V71.3335H302.655V13.0029Z" fill="#C7C7C7"/>
<path d="M354.69 6.4928H352.926V77.8525H354.69V6.4928Z" fill="#C7C7C7"/>
<path d="M324.558 58.3741H335.248V26.4934H324.558V58.3741Z" fill="#EBEBEB"/>
<path d="M311.417 36.6677H339.916V21.045L311.417 21.045V36.6677Z" stroke="#EBEBEB" stroke-miterlimit="10"/>
<path d="M352.926 182.355H294.182V253.715H352.926V182.355Z" fill="#EBEBEB"/>
<path d="M346.216 188.865H300.891V247.196H346.216V188.865Z" fill="white"/>
<path d="M302.655 188.865H300.891V247.196H302.655V188.865Z" fill="#C7C7C7"/>
<path d="M354.69 182.355H352.926V253.715H354.69V182.355Z" fill="#C7C7C7"/>
<path d="M326.774 202.355H316.084V234.236H326.774V202.355Z" fill="#EBEBEB"/>
<path d="M339.915 196.907H311.416V212.53H339.915V196.907Z" stroke="#EBEBEB" stroke-miterlimit="10"/>
<path d="M352.926 94.7458H294.182V166.106H352.926V94.7458Z" fill="#EBEBEB"/>
<path d="M346.216 101.256H300.891V159.587H346.216V101.256Z" fill="white"/>
<path d="M302.655 101.256H300.891V159.587H302.655V101.256Z" fill="#C7C7C7"/>
<path d="M354.69 94.7458H352.926V166.106H354.69V94.7458Z" fill="#C7C7C7"/>
<path d="M328.312 116.339H319.16V139.516H328.312V116.339Z" fill="#EBEBEB"/>
<path d="M337.96 130.421H313.363V146.401H337.96V130.421Z" stroke="#DBDBDB" stroke-miterlimit="10"/>
<path d="M32.8348 261.313C47.2189 275.412 49.6351 297.232 46.6018 316.345C46.5236 316.78 45.8544 316.658 45.8544 316.249C45.8544 311.897 45.9847 307.589 45.976 303.289C45.8978 303.089 45.8283 302.906 45.7501 302.715C41.9954 299.982 38.545 296.892 36.4069 292.663C34.0081 287.928 33.0608 282.593 31.2269 277.649C31.0531 277.179 31.5572 277.318 31.8874 277.562C40.6396 284.02 43.4295 290.983 45.9413 300.269C45.8196 295.448 45.4546 290.626 44.4203 285.795C42.5343 276.979 38.7883 268.232 32.4611 261.687C32.2264 261.434 32.5914 261.06 32.8435 261.304L32.8348 261.313Z" fill="#263238"/>
<path d="M30.1324 262.958C27.6554 263.045 26.1083 267.005 24.1788 268.162C23.162 268.78 22.1625 268.737 21.4498 267.736C19.5377 265.064 22.1625 261.765 24.6221 259.929C22.8578 260.651 21.3976 261.931 19.4942 262.296C18.3383 262.505 17.4518 262.079 17.1823 260.912C16.348 257.274 20.9022 255.647 24.0311 255.577C22.5101 254.524 18.1645 251.652 20.4763 250.242C22.8143 248.823 27.9161 252.931 29.5848 254.28C32.0271 256.265 34.9474 259.241 35.0604 262.348C35.1994 265.978 32.0358 263.741 30.1324 262.984V262.958Z" fill="#219EBC"/>
<path opacity="0.1" d="M30.1324 262.958C27.6554 263.045 26.1083 267.005 24.1788 268.162C23.162 268.78 22.1625 268.737 21.4498 267.736C19.5377 265.064 22.1625 261.765 24.6221 259.929C22.8578 260.651 21.3976 261.931 19.4942 262.296C18.3383 262.505 17.4518 262.079 17.1823 260.912C16.348 257.274 20.9022 255.647 24.0311 255.577C22.5101 254.524 18.1645 251.652 20.4763 250.242C22.8143 248.823 27.9161 252.931 29.5848 254.28C32.0271 256.265 34.9474 259.241 35.0604 262.348C35.1994 265.978 32.0358 263.741 30.1324 262.984V262.958Z" fill="black"/>
<path d="M30.846 263.567C27.6824 262.131 21.6072 264.202 21.0857 263.001C20.034 260.564 24.8925 258.884 27.5172 258.562C25.1011 257.91 20.4773 256.865 20.6163 254.533C20.7902 251.687 27.7085 254.132 31.2197 256.822C35.6349 260.207 35.6088 263.48 34.8788 264.133C33.8793 265.029 31.3762 263.802 30.846 263.567Z" fill="#219EBC"/>
<path d="M65.5928 259.92C50.6786 273.463 47.4367 295.178 49.7486 314.386C49.8094 314.821 50.4874 314.726 50.496 314.325C50.6612 309.982 50.6959 305.665 50.8698 301.375C50.9567 301.183 51.0262 301 51.1131 300.809C54.9721 298.224 58.5355 295.265 60.83 291.113C63.4113 286.474 64.5586 281.183 66.5837 276.309C66.7749 275.839 66.2621 275.961 65.9231 276.196C56.9363 282.323 53.8857 289.164 51.0175 298.355C51.3217 293.541 51.8693 288.737 53.0861 283.95C55.311 275.212 59.3786 266.622 65.9492 260.32C66.1925 260.077 65.8449 259.685 65.5842 259.929L65.5928 259.92Z" fill="#263238"/>
<path d="M68.234 261.669C70.7023 261.844 72.1016 265.865 73.9876 267.092C74.9871 267.744 75.9779 267.744 76.7341 266.77C78.7418 264.176 76.2474 260.782 73.8573 258.841C75.5955 259.633 77.0035 260.964 78.8895 261.4C80.0281 261.652 80.9407 261.26 81.2535 260.103C82.227 256.491 77.7336 254.707 74.6047 254.507C76.1604 253.506 80.6191 250.808 78.3593 249.311C76.0735 247.805 70.8153 251.713 69.1031 253.001C66.5826 254.889 63.5581 257.753 63.3234 260.851C63.0453 264.472 66.2958 262.357 68.2253 261.669H68.234Z" fill="#219EBC"/>
<path opacity="0.1" d="M68.234 261.669C70.7023 261.844 72.1016 265.865 73.9876 267.092C74.9871 267.744 75.9779 267.744 76.7341 266.77C78.7418 264.176 76.2474 260.782 73.8573 258.841C75.5955 259.633 77.0035 260.964 78.8895 261.4C80.0281 261.652 80.9407 261.26 81.2535 260.103C82.227 256.491 77.7336 254.707 74.6047 254.507C76.1604 253.506 80.6191 250.808 78.3593 249.311C76.0735 247.805 70.8153 251.713 69.1031 253.001C66.5826 254.889 63.5581 257.753 63.3234 260.851C63.0453 264.472 66.2958 262.357 68.2253 261.669H68.234Z" fill="black"/>
<path d="M67.496 262.253C70.7118 260.93 76.7088 263.236 77.2737 262.061C78.4123 259.659 73.6234 257.805 71.016 257.379C73.4496 256.813 78.1168 255.951 78.0646 253.61C77.9951 250.755 70.9899 252.94 67.383 255.499C62.8462 258.719 62.7506 261.983 63.4546 262.67C64.4193 263.61 66.9745 262.47 67.5047 262.253H67.496Z" fill="#219EBC"/>
<path d="M50.3475 295.691C49.2437 302.828 47.8791 310.209 45.715 317.111C45.5064 317.737 44.5764 317.58 44.672 316.902C45.6542 310.304 47.4359 303.82 48.418 297.223C49.4088 290.548 49.9477 283.776 49.5652 277.022C48.9395 265.899 45.9236 254.071 38.675 245.368C38.5186 245.159 38.8576 244.872 39.014 245.063C53.5198 262 51.2166 282.775 51.1992 284.638C53.2504 277.623 55.371 269.59 63.1411 262.444C63.48 262.139 63.7408 262.279 63.6799 262.81C62.2893 275.821 58.6824 282.61 51.1471 289.564C50.9298 291.627 50.669 293.681 50.3388 295.7L50.3475 295.691Z" fill="#263238"/>
<path d="M38.5363 247.317C35.9289 246.16 32.322 249.485 29.7407 249.711C28.3761 249.833 27.3592 249.293 27.1246 247.892C26.4814 244.158 30.8618 242.061 34.347 241.39C32.1481 241.251 29.9927 241.843 27.8373 241.26C26.5336 240.894 25.8209 240.007 26.1338 238.649C27.0985 234.445 32.6435 235.063 35.9289 236.56C34.8859 234.697 31.8179 229.528 34.9207 229.232C38.0582 228.944 41.2914 235.777 42.343 238.013C43.8814 241.312 45.4198 245.864 43.9683 249.145C42.2909 252.983 40.1268 249.067 38.5363 247.317Z" fill="#219EBC"/>
<path opacity="0.1" d="M38.5363 247.317C35.9289 246.16 32.322 249.485 29.7407 249.711C28.3761 249.833 27.3592 249.293 27.1246 247.892C26.4814 244.158 30.8618 242.061 34.347 241.39C32.1481 241.251 29.9927 241.843 27.8373 241.26C26.5336 240.894 25.8209 240.007 26.1338 238.649C27.0985 234.445 32.6435 235.063 35.9289 236.56C34.8859 234.697 31.8179 229.528 34.9207 229.232C38.0582 228.944 41.2914 235.777 42.343 238.013C43.8814 241.312 45.4198 245.864 43.9683 249.145C42.2909 252.983 40.1268 249.067 38.5363 247.317Z" fill="black"/>
<path d="M38.9797 248.31C36.4244 245.22 29.0716 244.306 29.1411 242.8C29.2802 239.737 35.1642 240.451 38.0497 241.434C35.8769 239.537 31.6008 236.125 32.9218 233.775C34.5297 230.912 40.4833 236.934 42.7691 241.495C45.6459 247.239 43.9685 250.616 42.8821 250.929C41.3959 251.356 39.4142 248.815 38.9884 248.31H38.9797Z" fill="#219EBC"/>
<path d="M59.8918 299.608L66.2886 348.565H27.3516C28.1512 344.231 35.3997 299.547 35.3997 299.547L59.8918 299.599V299.608Z" fill="#219EBC"/>
<path d="M125.155 147.445C124.277 144.556 123.052 141.727 121.296 139.255C119.523 136.749 117.446 134.547 115.134 132.536C105.895 124.486 93.1624 121.361 81.1249 122.197C75.6581 122.579 70.1913 123.824 65.2198 126.165C62.7602 127.323 60.5352 128.776 58.4928 130.587C56.6241 132.24 54.5122 134.286 53.6517 136.679C53.5127 137.071 53.9907 137.393 54.3036 137.132C55.4074 136.253 56.3373 135.165 57.389 134.207C58.4406 133.241 59.5792 132.362 60.7699 131.57C63.0557 130.038 65.6023 128.742 68.1575 127.706C78.4915 123.528 90.781 123.633 101.202 127.41C106.251 129.246 110.945 132.049 114.978 135.591C116.881 137.271 118.663 139.151 120.227 141.135C121.861 143.224 123.495 145.252 124.86 147.541C124.946 147.68 125.207 147.628 125.155 147.437V147.445Z" fill="#263238"/>
<path d="M117.516 130.952C116.395 129.316 115.239 127.758 113.631 126.557C112.058 125.365 110.32 124.355 108.581 123.424C102.15 120.003 94.9883 117.645 87.731 116.914C84.2632 116.565 80.5694 116.652 77.1711 117.427C75.5198 117.801 73.9032 118.263 72.3127 118.82C70.7308 119.368 69.0969 119.96 67.741 120.952C67.5672 121.082 67.715 121.37 67.9149 121.326C69.7748 120.943 71.5565 120.256 73.4252 119.899C75.2329 119.568 77.0407 119.464 78.8659 119.298C100.212 117.314 115.665 130.526 117.177 131.326C117.429 131.457 117.69 131.196 117.525 130.944L117.516 130.952Z" fill="#263238"/>
<path d="M43.6304 198.665C47.9848 201.468 53.1213 199.414 56.5283 196.124C60.0744 192.695 62.4905 188.204 64.3505 183.695C66.0453 179.561 67.3055 175.261 68.6527 171.006C69.9911 166.75 71.2166 162.302 73.4503 158.412C75.5623 154.713 78.8476 151.936 82.9672 150.744C87.3824 149.473 92.0584 150.056 96.2041 151.936C98.3682 152.92 100.411 154.26 102.053 155.983C103.635 157.637 104.73 159.621 105.573 161.736C107.407 166.332 108.328 171.223 109.441 176.019C110.354 179.987 112.248 183.565 115.959 185.523C119.123 187.194 123.008 187.699 126.224 185.897C126.432 185.775 126.337 185.436 126.085 185.479C122.061 186.141 117.706 185.21 114.691 182.346C113.004 180.745 112.109 178.708 111.518 176.497C110.823 173.878 110.301 171.197 109.589 168.569C108.407 164.208 107.233 159.456 104.383 155.835C101.636 152.337 97.3948 149.813 93.1448 148.629C88.886 147.437 84.3926 147.558 80.2729 149.195C76.0837 150.857 72.9636 154.025 70.8863 157.985C66.7753 165.818 65.4543 174.748 62.2906 182.955C60.7523 186.95 58.7533 190.893 55.8765 194.104C52.9822 197.342 48.3324 199.744 44.0041 197.943C43.5522 197.751 43.2132 198.43 43.613 198.691L43.6304 198.665Z" fill="#263238"/>
<path d="M42.6836 184.948C44.6826 185.218 46.5164 183.713 47.4464 182.059C48.7588 179.752 49.6279 177.089 50.3406 174.53C51.8355 169.152 53.3043 163.79 55.5293 158.647C59.0406 150.544 64.4292 142.719 72.2166 138.228C80.0214 133.737 89.5036 132.745 97.9863 135.852C101.967 137.306 105.678 139.595 108.746 142.528C111.971 145.626 114.43 149.395 116.299 153.451C118.237 157.672 119.454 162.111 120.723 166.549C121.236 168.334 121.957 170.501 123.687 171.467C125.008 172.207 126.807 172.12 127.78 170.875C127.876 170.762 127.719 170.64 127.615 170.71C126.615 171.475 125.347 171.145 124.399 170.448C123.4 169.709 122.974 168.534 122.687 167.359C122.105 164.948 121.635 162.528 120.975 160.144C119.628 155.313 117.724 150.605 114.96 146.401C110.285 139.29 102.775 134.225 94.4837 132.406C85.6881 130.482 76.232 132.292 68.7923 137.349C61.283 142.449 56.1986 150.309 52.835 158.603C51.0098 163.129 49.7061 167.811 48.4633 172.52C47.8288 174.896 47.2465 177.289 46.3513 179.578C45.9515 180.597 45.4909 181.571 44.9607 182.52C44.4827 183.373 43.7961 184.061 42.7705 184.104C42.249 184.13 42.1621 184.853 42.701 184.931L42.6836 184.948Z" fill="#263238"/>
<path d="M45.1088 202.434C45.0827 202.634 45.2131 202.817 45.413 202.86C46.2039 203.034 46.9079 203.147 47.5684 203.182C47.9074 203.2 48.229 203.2 48.5418 203.182C52.3747 202.991 56.3553 200.806 60.3707 196.716C63.7169 193.313 66.4894 189.318 68.6188 184.853C70.4092 181.093 71.4174 177.063 72.3908 173.164C72.6689 172.041 72.9557 170.919 73.2512 169.796C74.1986 166.227 75.9195 161.118 79.8045 157.855C82.4292 155.653 85.7406 154.817 89.3736 155.435C94.3016 156.279 99.3686 159.83 102.002 164.278C104.192 167.985 104.957 172.163 104.21 176.384C103.28 181.65 100.272 185.801 97.8998 188.352C94.9795 191.502 91.1814 194.174 86.2882 196.515C84.4456 197.403 82.0121 198.535 79.5003 199.466C79.0223 199.64 78.5442 199.814 78.0662 199.997C76.2497 200.667 74.3724 201.346 72.5646 202.138C72.3126 202.251 72.1996 202.521 72.2865 202.791C72.3734 203.06 72.6255 203.208 72.8949 203.156C74.1551 202.886 75.398 202.538 76.5539 202.199C84.941 199.779 95.388 195.88 101.75 187.081C103.853 184.174 106.391 179.535 106.548 173.904C106.669 169.57 105.34 165.374 102.689 161.745C99.3773 157.202 94.1277 153.938 88.9651 153.216C85.1062 152.667 81.5167 153.581 78.6051 155.853C75.3893 158.351 73.0252 162.328 71.3826 168.003C70.9393 169.552 70.5395 171.136 70.1484 172.659C69.2185 176.28 68.2624 180.022 66.6632 183.495C64.5773 188.03 61.6136 192.259 58.1023 195.723C55.1907 198.604 50.6538 202.025 45.552 202.025C45.3261 202.025 45.1435 202.207 45.1175 202.434H45.1088Z" fill="#263238"/>
<path d="M43.4752 189.962C45.6915 190.545 47.9339 189.805 49.6808 188.395C51.5842 186.872 52.5663 184.339 53.3485 182.102C55.165 176.863 56.573 171.484 58.3721 166.236C61.1794 158.046 65.2904 149.717 72.6867 144.765C79.2139 140.404 87.8356 138.994 95.3884 141.196C99.5863 142.423 103.48 144.678 106.478 147.872C109.338 150.918 111.406 154.591 113.006 158.42C113.814 160.37 114.509 162.354 115.126 164.365C115.761 166.471 116.282 168.63 117.134 170.675C118.559 174.113 122.149 178.229 126.286 176.532C126.599 176.402 126.495 175.906 126.164 175.88C123.852 175.705 121.697 174.4 120.367 172.511C118.898 170.44 118.333 167.872 117.664 165.47C116.421 161.005 114.831 156.567 112.519 152.546C110.468 148.977 107.834 145.748 104.514 143.302C100.994 140.709 96.8398 139.038 92.5463 138.307C84.6807 136.966 76.2675 139.003 69.8881 143.781C62.7265 149.125 58.6589 157.524 55.8603 165.801C54.2872 170.449 53.0704 175.192 51.6364 179.874C50.5413 183.443 48.5944 189.474 43.736 188.656C42.9972 188.534 42.7365 189.762 43.4492 189.944L43.4752 189.962Z" fill="#263238"/>
<path d="M43.0825 193.373C43.6474 194.017 44.3601 194.548 45.1249 194.931C46.7155 195.732 49.0534 195.471 50.6526 194.827C52.6516 194.017 54.216 192.39 55.3894 190.614C56.667 188.674 57.597 186.515 58.4835 184.374C59.4743 181.963 60.3434 179.483 61.2039 177.011C62.916 172.041 64.4979 167.028 66.3752 162.119C68.0439 157.776 70.1211 153.616 73.6063 150.448C79.9597 144.66 89.1116 142.972 97.0468 146.314C101.045 147.994 104.478 150.796 106.833 154.443C109.406 158.42 110.623 163.059 111.779 167.594C112.804 171.632 113.63 175.993 116.202 179.378C118.349 182.207 122.929 184.444 125.945 181.493C126.076 181.354 125.945 181.11 125.754 181.206C123.599 182.285 121.07 181.545 119.27 180.092C117.532 178.691 116.463 176.724 115.672 174.678C113.891 170.057 113.187 165.078 111.553 160.396C110.11 156.253 107.98 152.389 104.756 149.369C101.74 146.549 98.0984 144.399 94.1091 143.32C86.0349 141.153 76.9351 143.546 71.0163 149.499C67.705 152.824 65.6277 157.036 63.9503 161.379C62.1251 166.132 60.6476 171.032 58.9876 175.853C58.1358 178.325 57.2406 180.788 56.2933 183.225C55.485 185.288 54.7115 187.42 53.5555 189.318C52.4604 191.128 51.0524 192.59 49.0795 193.408C47.3499 194.131 45.0815 194.035 43.6213 192.782C43.265 192.477 42.787 193.043 43.0825 193.373Z" fill="#263238"/>
<path d="M127.014 168.255C127.058 167.124 127.093 165.992 126.997 164.861C126.267 155.679 121.93 146.627 115.672 139.943C109.684 133.546 101.836 129.116 93.153 127.741C84.7311 126.409 75.9008 127.819 68.2437 131.57C60.5172 135.356 54.3029 141.483 50.1398 149.003C46.0027 156.479 43.9342 164.913 44.6729 173.46C44.6903 173.634 44.9684 173.608 44.9771 173.442C45.6203 164.382 48.4189 155.209 53.6076 147.706C58.2053 141.074 64.5239 135.748 72.0245 132.728C79.3686 129.769 87.721 128.898 95.4475 130.752C103.539 132.693 110.683 137.428 115.916 143.868C118.697 147.289 120.93 151.162 122.573 155.252C124.259 159.456 125.311 163.877 126.336 168.273C126.423 168.638 126.997 168.629 127.023 168.238L127.014 168.255Z" fill="#263238"/>
<path d="M113.744 199.649C114.709 198.23 116.751 199.475 117.811 200.075C119.411 200.972 121.114 202.138 123.044 201.833C123.191 201.807 123.243 202.007 123.122 202.077C121.879 202.799 120.419 202.616 119.124 202.12C118.437 201.859 117.794 201.52 117.133 201.18C116.525 200.876 115.873 200.502 115.195 200.362C115.074 200.336 114.943 200.319 114.813 200.327C114.683 200.345 114.726 200.336 114.709 200.371C114.587 200.597 114.778 201.076 114.839 201.302C115.004 201.894 115.23 202.46 115.517 202.999C116.099 204.122 116.899 205.106 117.785 206.002C118.289 206.516 118.828 207.012 119.393 207.464C119.967 207.926 120.645 208.274 121.192 208.761C121.357 208.909 121.236 209.153 121.01 209.101C120.358 208.944 119.706 208.526 119.132 208.187C118.507 207.821 117.907 207.429 117.351 206.968C116.247 206.054 115.326 204.966 114.613 203.713C114.265 203.095 113.979 202.442 113.761 201.764C113.544 201.085 113.292 200.275 113.735 199.631L113.744 199.649Z" fill="#263238"/>
<path d="M116.656 202.382C117.708 202.834 118.655 203.496 119.533 204.218C119.924 204.531 120.324 204.845 120.732 205.132C120.932 205.271 121.141 205.393 121.349 205.515C121.558 205.637 121.793 205.706 122.01 205.811C122.193 205.898 122.184 206.15 121.975 206.202C120.941 206.463 119.855 205.785 119.072 205.184C118.108 204.453 117.186 203.626 116.465 202.643C116.378 202.521 116.482 202.312 116.647 202.382H116.656Z" fill="#263238"/>
<path d="M48.7146 205.541C48.7146 205.541 48.7146 205.584 48.7146 205.611C48.732 205.758 48.8363 205.872 48.9754 205.906C49.2361 205.976 49.4969 206.011 49.7576 206.028C50.6441 206.08 51.5567 205.898 52.478 205.68C53.6513 205.41 54.8594 204.984 56.0675 204.418C58.0665 203.496 60.0916 202.129 62.2557 200.232C68.5569 194.714 72.9895 186.855 75.4317 176.854C75.5882 176.193 75.7446 175.523 75.9011 174.861C76.7354 171.258 77.5959 167.524 79.6383 164.391C80.7421 162.702 82.1849 161.319 83.8101 160.413C85.6179 159.395 87.3823 159.265 89.5029 159.195C89.7289 159.195 89.9114 159.038 89.9549 158.838C89.9983 158.621 89.894 158.42 89.6941 158.316C87.4431 157.202 84.6445 158.246 83.5494 158.751C81.7155 159.587 80.0033 160.97 78.578 162.729C75.9793 165.958 74.9972 170.1 74.0585 174.104L73.8238 175.105C72.5636 180.37 71.0948 184.522 69.2001 188.186C67.1141 192.225 64.2112 195.958 60.8043 198.987C58.9095 200.667 57.1191 201.938 55.3027 202.86C54.3379 203.348 53.3037 203.783 52.139 204.174C51.774 204.296 51.4003 204.401 51.0265 204.505C50.3138 204.697 49.5664 204.897 48.8972 205.245C48.7842 205.306 48.706 205.428 48.6973 205.558L48.7146 205.541Z" fill="#263238"/>
<path d="M70.5215 200.641C70.5215 200.771 70.5823 200.911 70.6953 200.98C70.7561 201.015 70.8083 201.041 70.8691 201.041C70.9908 201.041 71.1125 200.989 71.1907 200.876C71.8078 199.918 72.9724 199.327 74.0936 198.796C75.1105 198.317 76.1795 197.899 77.2138 197.499L77.6918 197.307C80.5339 196.193 82.8458 195.201 84.9664 194.183C94.3704 189.666 99.9763 183.817 101.654 176.802C102.584 172.859 102.132 169.004 100.333 165.644C98.4727 162.18 95.5698 159.778 92.1628 158.89C91.9456 158.829 91.7196 158.951 91.6327 159.151C91.5458 159.343 91.624 159.552 91.7978 159.665C95.2917 161.762 98.0208 164.887 99.2897 168.238C101.202 173.277 100.272 181.528 91.398 188.212C88.0171 190.754 84.1234 192.564 80.7338 194.061C78.8564 194.888 76.7358 195.819 74.702 196.907C73.9024 197.333 73.0507 197.803 72.3032 198.395C71.5123 199.031 71.0169 199.77 70.5736 200.467C70.5389 200.528 70.5215 200.58 70.5215 200.641Z" fill="#263238"/>
<path d="M45.9348 207.308C47.2907 208.134 48.7334 208.5 50.1414 208.578C53.4007 208.77 56.4948 207.447 57.981 206.681C61.3011 204.975 64.5342 202.521 67.5849 199.37C67.8543 199.1 68.1063 198.813 68.3671 198.526L68.6017 198.273C68.6626 198.247 68.7147 198.204 68.7669 198.152C70.9658 195.958 73.973 194.74 76.8759 193.556C77.8927 193.147 78.9357 192.721 79.9265 192.259C84.785 190.005 88.0963 187.76 90.6429 184.975C93.3633 182.007 94.9712 178.595 95.3014 175.105C95.6056 171.893 94.8495 167.394 91.7467 165.305C88.67 163.233 84.7241 164.704 82.4122 167.22C79.7353 170.153 78.3708 174.295 77.267 177.629L76.8846 178.804C75.8068 182.094 74.6944 185.479 73.0517 188.604C71.3134 191.885 69.1667 194.888 66.6636 197.542C64.0649 200.284 61.2054 202.59 58.1635 204.401C54.0525 206.855 50.0371 207.612 46.2477 206.655C46.2216 206.655 46.1956 206.646 46.1782 206.646C46.0217 206.637 45.874 206.733 45.8045 206.881C45.7349 207.047 45.8045 207.229 45.9522 207.316L45.9348 207.308ZM72.2608 193.669C72.8866 192.764 73.4341 191.911 73.9208 191.076C75.5635 188.273 76.9193 185.131 78.3012 180.884C78.4838 180.318 78.6663 179.752 78.8488 179.178C79.8483 176.01 80.8913 172.729 82.7164 169.961C83.8463 168.264 85.0805 167.159 86.4798 166.61C87.1403 166.349 87.9312 166.192 88.7308 166.245C89.5999 166.297 90.4778 166.584 91.1991 167.254C93.8413 169.691 93.9717 174.156 92.9113 177.498C91.9553 180.545 89.8172 183.451 86.7318 185.906C83.5073 188.473 79.6919 190.179 76.337 191.694L76.0241 191.833C74.7639 192.399 73.4689 192.982 72.2521 193.661L72.2608 193.669Z" fill="#263238"/>
<path d="M77.9266 187.847C77.8832 187.995 77.944 188.16 78.0744 188.273C78.1439 188.325 78.2221 188.36 78.3003 188.369C78.4046 188.369 78.5089 188.334 78.5958 188.247C78.7871 188.047 80.1951 187.046 80.873 186.585C81.0903 186.437 81.3075 186.298 81.5248 186.141C81.9855 185.836 82.4635 185.523 82.9241 185.175C84.3495 184.087 85.6184 182.947 86.7222 181.789C88.9993 179.396 90.0684 177.002 89.8772 174.661C89.7729 173.329 89.1384 172.294 88.1737 171.893C86.7657 171.301 85.3924 172.128 84.645 173.016C83.8019 174.017 83.2805 175.331 82.8198 176.489C82.42 177.507 82.0637 178.551 81.7073 179.561L81.4205 180.379C80.6383 182.642 78.2395 187.116 78.0048 187.464C77.9092 187.551 77.8832 187.681 77.9266 187.855V187.847ZM82.3679 181.824C83.2196 179.735 84.0974 177.585 85.2534 175.575L85.3055 175.488C85.601 174.966 86.305 173.747 86.983 173.608C87.0351 173.599 87.0873 173.59 87.1307 173.599C87.2611 173.599 87.3914 173.66 87.5131 173.756C88.1128 174.217 88.0259 175.453 87.7391 176.454C87.0959 178.769 85.1578 180.649 83.602 182.155C83.2022 182.546 82.7938 182.938 82.394 183.321C81.9768 183.713 81.5683 184.113 81.1598 184.513C81.6465 183.556 82.055 182.616 82.3679 181.833V181.824Z" fill="#263238"/>
<path d="M83.3768 227.117C81.9079 230.076 80.5434 233.166 79.3961 236.264C79.3614 236.36 79.5004 236.438 79.5526 236.342C81.2474 233.81 82.6554 231.12 84.2546 228.535C85.2888 226.847 87.1835 222.93 89.7214 223.557C90.7904 223.818 91.5553 225.002 92.1463 225.846C92.9546 226.995 93.7455 228.152 94.6668 229.206C96.0574 230.79 98.6648 232.861 100.951 232.295C101.055 232.269 101.116 232.104 101.003 232.052C100.394 231.73 99.7512 231.529 99.1602 231.173C98.517 230.79 97.8912 230.363 97.3524 229.832C96.2833 228.779 95.3794 227.517 94.5538 226.246C93.2501 224.227 91.7204 221.564 88.8957 221.895C86.2449 222.199 84.4545 224.915 83.3768 227.099V227.117Z" fill="#263238"/>
<path d="M45.8132 209.562C48.5683 213.191 53.4963 212.547 57.0684 210.615C59.1543 209.484 61.0142 207.978 62.8481 206.49C64.8037 204.905 66.7766 203.409 68.9755 202.181C69.0798 202.129 69.0363 201.964 68.9146 201.99C64.5081 202.686 61.3271 206.315 57.7463 208.631C54.3741 210.815 49.4809 212.103 46.0044 209.362C45.874 209.257 45.7262 209.44 45.8132 209.562Z" fill="#263238"/>
<path d="M117.567 216.438C117.846 216.446 117.959 216.02 117.672 215.95C113.213 214.836 109.702 211.494 107.555 207.525C105.617 203.931 104.47 199.849 104.252 195.767C104.148 193.756 104.287 191.72 104.696 189.744C104.922 188.708 105.226 187.681 105.591 186.681C105.93 185.758 106.321 184.748 107.051 184.061C107.79 183.364 108.902 183.095 109.641 183.922C110.18 184.522 110.475 185.331 110.927 186.002C111.944 187.525 113.317 188.822 114.908 189.735C116.498 190.649 118.263 191.18 120.088 191.241C122.113 191.311 123.886 190.771 125.642 189.796C125.755 189.727 125.703 189.509 125.563 189.553C120.905 190.945 115.525 189.509 112.509 185.636C111.449 184.27 110.866 182.155 108.85 182.007C106.79 181.85 105.417 183.469 104.617 185.149C102.74 189.091 102.41 193.739 103.001 198.012C104.07 205.645 108.668 216.002 117.567 216.42V216.438Z" fill="#263238"/>
<path d="M85.4097 233.401C85.2098 234.167 84.9404 235.089 85.0447 235.872C85.0534 235.994 85.2098 236.003 85.2881 235.925C85.7313 235.359 85.9486 234.558 86.2006 233.879C86.4701 233.131 86.7482 232.391 87.0611 231.651C87.374 230.92 87.7564 230.198 88.1736 229.528C88.3213 229.284 88.4951 228.884 88.7298 228.718C88.7646 228.701 88.7733 228.692 88.7907 228.675C88.8428 228.718 88.8949 228.762 88.9297 228.814C89.0601 228.936 89.1731 229.075 89.2947 229.214C90.2682 230.354 91.033 231.669 92.1455 232.704C93.0059 233.514 94.3965 234.393 95.6394 234.123C95.7176 234.106 95.7611 233.984 95.6829 233.94C94.9789 233.531 94.3531 233.183 93.7621 232.609C93.2058 232.06 92.7539 231.434 92.3106 230.798C91.8152 230.119 91.372 229.397 90.8331 228.744C90.3464 228.135 89.6945 227.247 88.8341 227.247C88.0171 227.247 87.5652 228.022 87.2262 228.64C86.8177 229.388 86.4788 230.154 86.1833 230.955C85.8965 231.764 85.6357 232.583 85.4184 233.409L85.4097 233.401Z" fill="#263238"/>
<path d="M119.645 211.746C119.81 211.799 119.906 211.59 119.776 211.485C118.715 210.537 117.707 209.649 116.82 208.526C115.951 207.421 115.187 206.246 114.439 205.071C113.083 202.947 111.632 200.832 110.719 198.474C110.293 197.386 109.815 196.071 109.928 194.888C110.085 193.112 111.832 194.418 112.588 195.071C113.483 195.836 114.283 196.707 115.282 197.342C116.247 197.96 117.281 198.395 118.385 198.639C119.463 198.883 120.558 198.97 121.653 198.848C122.826 198.717 123.669 198.221 124.721 197.743C124.938 197.647 124.773 197.351 124.564 197.421C123.782 197.682 122.791 197.656 121.974 197.664C121.253 197.664 120.523 197.638 119.819 197.534C118.359 197.307 116.899 196.724 115.699 195.871C114.222 194.818 111.51 191.285 109.442 192.99C107.651 194.461 109.033 197.882 109.754 199.544C110.867 202.103 112.449 204.47 114.074 206.716C115.482 208.657 117.29 210.946 119.654 211.746H119.645Z" fill="#263238"/>
<path d="M51.3575 218.405C53.2522 218.857 55.2077 218.378 56.8938 217.465C57.2502 217.273 57.5804 217.056 57.9194 216.838C57.7456 217.047 57.563 217.247 57.4066 217.456C56.2767 218.962 55.3902 220.659 55.2512 222.565C55.2512 222.687 55.3989 222.748 55.4598 222.643C56.4419 221.146 57.4327 219.649 58.5539 218.257C59.6837 216.847 60.9613 215.55 62.0651 214.114C62.265 213.853 61.9956 213.444 61.674 213.513C59.8228 213.922 58.4496 215.237 56.8156 216.124C55.1034 217.056 53.2435 217.717 51.3661 218.239C51.2966 218.265 51.2619 218.378 51.3575 218.396V218.405Z" fill="#263238"/>
<path d="M71.5294 226.551C70.5908 228.405 69.6087 230.311 68.9134 232.26C68.8351 232.469 69.1306 232.626 69.2697 232.443C70.7472 230.45 71.9379 228.239 73.3112 226.168C74.6322 224.166 76.0489 222.217 77.5438 220.328C79.9339 217.317 82.7412 214.584 86.0526 212.486C86.887 211.955 87.7822 211.477 88.6861 211.068C89.6247 210.632 90.659 210.171 91.7193 210.232C93.6488 210.336 94.9004 212.19 95.7608 213.626C97.838 217.073 99.611 220.781 102.827 223.435C104.244 224.61 105.886 225.463 107.746 225.82C108.381 225.942 109.537 226.125 110.128 225.759C110.362 225.611 110.51 225.385 110.275 225.185C110.197 225.124 110.075 225.228 110.128 225.306C110.232 225.498 109.006 225.185 108.954 225.167C108.711 225.098 108.459 225.037 108.215 224.958C107.685 224.793 107.172 224.584 106.694 224.332C105.773 223.853 104.895 223.27 104.096 222.608C102.305 221.12 100.993 219.188 99.837 217.23C98.8375 215.532 97.951 213.766 96.8385 212.121C95.9172 210.754 94.7439 209.405 93.0752 208.857C91.1023 208.204 89.0859 208.926 87.3042 209.736C85.5659 210.519 83.9319 211.503 82.4196 212.634C79.3255 214.967 76.6486 217.917 74.5888 221.12C73.4589 222.869 72.4768 224.706 71.5381 226.551H71.5294Z" fill="#263238"/>
<path d="M76.5093 230.433C75.9618 231.886 75.4055 233.401 75.223 234.967C75.2143 235.08 75.3708 235.141 75.4316 235.037C76.3181 233.523 76.9091 231.834 77.813 230.328C78.6995 228.84 79.5252 227.317 80.4552 225.863C82.1065 223.296 83.9578 220.746 86.0784 218.579C87.0779 217.56 88.26 216.69 89.7201 216.873C91.0846 217.047 92.3014 217.961 93.214 218.988C95.1782 221.19 96.0821 224.201 98.1072 226.377C99.9585 228.361 102.635 229.406 105.278 229.032C105.373 229.014 105.391 228.849 105.286 228.823C103.6 228.405 101.992 227.665 100.61 226.577C99.2023 225.463 98.2376 223.992 97.3511 222.426C95.8562 219.78 94.4047 216.977 91.5887 215.672C90.3459 215.097 88.9205 214.967 87.6255 215.428C86.2262 215.924 85.1311 216.995 84.1316 218.091C81.924 220.476 80.038 223.131 78.4736 226.02C77.6913 227.448 77.0829 228.91 76.5093 230.441V230.433Z" fill="#263238"/>
<path d="M63.9334 228.962C63.8899 229.101 63.9595 229.258 64.0985 229.319C64.1333 229.336 64.1681 229.345 64.2115 229.345C64.3071 229.345 64.4027 229.301 64.4636 229.214C65.6717 227.36 67.0883 225.219 68.7397 223.192C70.1824 221.407 71.8686 219.588 73.8762 217.613C76.7357 214.81 79.9775 211.633 83.4888 209.022C85.3922 207.612 87.1653 206.568 88.9122 205.811C90.7548 205.01 93.2665 203.922 94.9787 205.471C96.0304 206.411 96.6909 207.778 97.3341 209.101C97.5774 209.605 97.8208 210.093 98.0728 210.554C99.3331 212.834 100.515 214.592 101.784 216.098C103.288 217.9 104.922 219.336 106.642 220.372C108.546 221.529 110.414 222.138 112.5 222.286C112.639 222.304 112.779 222.199 112.813 222.051C112.848 221.912 112.77 221.773 112.631 221.721C106.851 219.701 103.14 215.263 101.054 211.912C100.463 210.963 99.9415 209.954 99.4374 208.979C98.942 208.013 98.4292 207.02 97.8382 206.08C96.5779 204.035 94.9614 202.991 93.058 202.93C90.7808 202.878 88.4255 203.861 86.6177 204.723C84.7404 205.619 82.8631 206.794 81.0466 208.222C77.2311 211.224 73.8328 214.784 71.2949 217.552C68.2095 220.929 65.1849 224.636 63.916 228.962H63.9334Z" fill="#263238"/>
<path d="M118.185 214.61C118.463 214.749 118.645 214.323 118.419 214.149C115.595 211.903 112.918 209.257 110.997 206.168C109.346 203.504 108.242 200.554 107.659 197.481C107.355 195.897 107.199 194.305 107.19 192.695C107.19 191.52 106.886 188.552 108.607 188.543C110.215 188.543 111.275 190.597 112.283 191.589C113.439 192.738 114.752 193.704 116.246 194.357C119.367 195.723 122.704 195.34 125.338 193.165C125.425 193.095 125.338 192.938 125.233 192.991C121.409 195.123 116.394 193.46 113.439 190.606C112.24 189.448 111.258 187.786 109.563 187.325C108.059 186.924 106.547 187.56 106.13 189.117C105.713 190.649 105.756 192.416 105.834 194C105.913 195.654 106.156 197.307 106.573 198.909C108.25 205.254 112.188 211.572 118.176 214.592L118.185 214.61Z" fill="#263238"/>
<path d="M61.4833 222.774C60.8054 223.992 60.2578 225.263 59.9449 226.621C59.8754 226.943 60.0492 227.282 60.3534 227.421C60.423 227.447 60.4925 227.465 60.5533 227.465C60.7619 227.474 60.9618 227.378 61.0922 227.178C61.605 226.386 62.0917 225.576 62.5784 224.784C63.63 223.043 64.7252 221.242 66.0549 219.623C67.7845 217.499 69.8096 215.384 72.2431 213.156C74.2682 211.303 80.2044 206.794 86.2796 202.738C93.2066 198.108 98.0042 195.654 99.0993 196.167C99.838 196.515 99.8815 197.76 99.9075 198.761C99.9075 199.092 99.9249 199.396 99.951 199.649C100.125 201.05 100.386 202.477 100.716 203.887C101.429 206.89 102.411 209.379 103.706 211.485C105.079 213.731 106.835 215.602 108.79 216.881C109.92 217.621 112.849 219.284 115.543 218.761C115.717 218.727 115.839 218.587 115.856 218.422C115.873 218.248 115.769 218.083 115.613 218.022C115.169 217.848 114.735 217.691 114.3 217.534C113.353 217.186 112.466 216.864 111.589 216.394C110.354 215.733 109.155 214.854 108.112 213.844C106.122 211.903 104.566 209.362 103.48 206.289C102.506 203.496 102.08 200.545 101.741 197.777C101.602 196.62 101.298 195.332 100.151 194.592C99.1166 193.922 97.361 194.383 96.4832 194.757C91.4944 196.898 75.4676 207.151 69.0795 213.087C67.2717 214.775 65.5161 216.812 63.7343 219.318C62.9434 220.432 62.1612 221.59 61.4833 222.8V222.774Z" fill="#263238"/>
<path d="M48.7944 214.584C52.1492 216.046 56.1125 214.619 59.1631 213.069C62.1095 211.572 64.7168 209.51 67.585 207.882C68.315 207.464 69.0625 207.073 69.8273 206.716C70.2097 206.542 70.6009 206.376 70.992 206.228C71.1832 206.15 71.4265 206.002 71.6351 206.072C71.8524 206.02 71.8872 206.072 71.7133 206.237C71.6525 206.316 71.6091 206.385 71.5482 206.455C70.5574 207.691 69.0017 208.578 67.8109 209.597C65.3861 211.677 63.1611 213.966 61.2143 216.499C59.3717 218.883 57.4509 221.642 56.886 224.662C56.8599 224.81 57.0685 224.863 57.1467 224.758C58.32 223.157 59.3022 221.416 60.4668 219.806C61.6054 218.231 62.883 216.76 64.2475 215.385C65.473 214.149 66.7419 212.956 68.0456 211.799C69.3059 210.676 70.7052 209.649 71.8698 208.422C72.6781 207.578 74.1208 205.802 72.539 204.923C71.2614 204.227 69.3754 205.41 68.2455 205.976C65.0471 207.578 62.1703 209.745 59.0414 211.477C57.4248 212.364 55.7561 213.104 53.9744 213.6C52.2622 214.079 50.5935 214.253 48.8291 214.349C48.6988 214.349 48.7075 214.54 48.8118 214.584H48.7944Z" fill="#263238"/>
<path d="M88.7037 231.555C88.7037 231.555 88.7298 231.495 88.7471 231.46C88.808 231.329 88.9383 231.286 89.0687 231.364C89.0948 231.381 89.1122 231.39 89.1382 231.407C89.4337 231.521 89.6336 231.965 89.7466 232.226C89.8857 232.548 90.0334 232.87 90.1812 233.192C90.468 233.818 90.7288 234.462 91.0243 235.08C91.0851 235.202 90.9373 235.324 90.8244 235.246C90.2073 234.802 89.6858 234.306 89.2773 233.653C89.0861 233.348 88.9296 233.035 88.7993 232.704C88.7211 232.504 88.6428 232.278 88.6341 232.06C88.6255 231.886 88.6168 231.703 88.7037 231.555Z" fill="#263238"/>
<path d="M19.3203 137.663V108.454H48.4883" stroke="#219EBC" stroke-width="3" stroke-miterlimit="10"/>
<path d="M150.68 210.78V239.998H121.512" stroke="#219EBC" stroke-width="3" stroke-miterlimit="10"/>
<path d="M19.3203 210.78V239.998H48.4883" stroke="#219EBC" stroke-width="3" stroke-miterlimit="10"/>
<path d="M121.512 108.454H150.68V137.663" stroke="#219EBC" stroke-width="3" stroke-miterlimit="10"/>
<path d="M158.373 245.96V247.7H156.635" stroke="#219EBC" stroke-width="0.75" stroke-miterlimit="10"/>
<path d="M153.14 247.7H15.1133" stroke="#219EBC" stroke-width="0.75" stroke-miterlimit="10"/>
<path d="M13.3672 247.7H11.6289V245.96" stroke="#219EBC" stroke-width="0.75" stroke-miterlimit="10"/>
<path d="M11.6289 242.461V104.241" stroke="#219EBC" stroke-width="0.75" stroke-miterlimit="10"/>
<path d="M11.6289 102.492V100.751H13.3672" stroke="#219EBC" stroke-width="0.75" stroke-miterlimit="10"/>
<path d="M16.8613 100.751H154.888" stroke="#219EBC" stroke-width="0.75" stroke-miterlimit="10"/>
<path d="M156.635 100.751H158.373V102.492" stroke="#219EBC" stroke-width="0.75" stroke-miterlimit="10"/>
<path d="M158.373 105.991V244.21" stroke="#219EBC" stroke-width="0.75" stroke-miterlimit="10"/>
<path d="M201.074 348.53H281.321C281.981 345.945 282.625 343.395 283.259 340.888C283.989 338.008 284.71 335.196 285.406 332.455C285.562 331.846 285.719 331.236 285.875 330.636C286.405 328.538 286.927 326.493 287.431 324.508C287.735 323.299 288.039 322.106 288.335 320.923C288.648 319.722 288.943 318.538 289.239 317.389C289.317 317.084 289.395 316.78 289.473 316.484C289.551 316.144 289.638 315.822 289.717 315.5C289.821 315.091 289.917 314.708 290.021 314.308C290.134 313.882 290.238 313.473 290.334 313.063C290.534 312.289 290.734 311.523 290.916 310.783C291.203 309.686 291.472 308.607 291.742 307.554C291.855 307.093 291.976 306.64 292.089 306.188C292.281 305.457 292.463 304.743 292.637 304.038C292.759 303.568 292.872 303.115 292.985 302.663C293.463 300.818 293.897 299.086 294.306 297.467C294.419 297.04 294.523 296.623 294.627 296.214C294.801 295.509 294.975 294.838 295.131 294.186C295.244 293.777 295.349 293.385 295.436 292.993C295.792 291.609 296.113 290.347 296.392 289.233C296.47 288.937 296.548 288.65 296.618 288.38C296.8 287.649 296.974 286.997 297.113 286.413C297.174 286.178 297.226 285.952 297.287 285.752C297.348 285.517 297.4 285.308 297.452 285.108C297.487 284.969 297.521 284.821 297.556 284.699C297.608 284.499 297.66 284.316 297.695 284.151C297.713 284.055 297.739 283.976 297.756 283.907C297.878 283.428 297.939 283.184 297.939 283.184H219.821C219.821 283.184 217.249 292.062 213.129 306.379C212.294 309.295 211.391 312.437 210.426 315.779C207.688 325.318 204.498 336.458 201.057 348.521L201.074 348.53Z" fill="#37474F"/>
<path d="M268.188 348.53H270.195C273.168 336.215 276.062 323.882 278.826 311.532C279.495 308.529 280.155 305.526 280.816 302.506C280.877 302.219 280.938 301.949 280.998 301.662C281.025 301.505 280.807 301.444 280.764 301.601C280.729 301.697 280.712 301.784 280.686 301.88C279.782 305.109 278.878 308.346 277.991 311.584C274.602 323.864 271.36 336.189 268.188 348.53Z" fill="#263238"/>
<path d="M222.367 283.193L225.817 300.478L228.642 314.656L233.448 338.808L233.944 341.28L234.769 345.405L235.387 348.53H281.32C281.972 345.936 282.624 343.386 283.25 340.888C283.98 338.008 284.701 335.196 285.396 332.455C285.553 331.846 285.709 331.236 285.866 330.636C286.396 328.538 286.917 326.493 287.421 324.508C287.726 323.299 288.03 322.106 288.325 320.923C288.638 319.722 288.934 318.538 289.229 317.389C289.307 317.084 289.386 316.78 289.464 316.484C289.542 316.144 289.629 315.822 289.707 315.5C289.812 315.091 289.907 314.708 290.011 314.308C290.124 313.882 290.229 313.473 290.324 313.063C290.524 312.289 290.724 311.523 290.907 310.783C291.193 309.686 291.463 308.607 291.732 307.554C291.854 307.084 291.967 306.64 292.08 306.188C292.271 305.457 292.454 304.743 292.627 304.038C292.749 303.568 292.862 303.115 292.975 302.663C293.453 300.818 293.888 299.086 294.296 297.467C294.409 297.04 294.514 296.623 294.618 296.214C294.792 295.509 294.965 294.838 295.122 294.186C295.235 293.777 295.339 293.385 295.426 292.993C295.782 291.609 296.104 290.347 296.382 289.233C296.46 288.937 296.539 288.65 296.608 288.38C296.791 287.649 296.964 286.997 297.104 286.413C297.164 286.178 297.217 285.952 297.277 285.752C297.338 285.517 297.39 285.308 297.442 285.108C297.477 284.969 297.512 284.821 297.547 284.699C297.599 284.499 297.651 284.316 297.686 284.151C297.703 284.055 297.729 283.976 297.747 283.907C297.868 283.428 297.929 283.184 297.929 283.184H222.35L222.367 283.193Z" fill="#263238"/>
<path d="M222.359 283.158V283.193C222.394 283.62 222.681 288.285 223.437 295.404C223.654 297.484 223.906 299.765 224.202 302.21C224.663 306.066 225.228 310.331 225.932 314.83C227.131 322.681 228.695 331.245 230.729 339.618C231.45 342.629 232.241 345.614 233.084 348.539L333.921 348.574C332.73 333.186 331.644 319.269 330.775 308.303C329.567 292.863 328.793 283.202 328.793 283.202L237.326 283.167H222.359V283.158Z" fill="#37474F"/>
<path d="M222.576 292.436C222.689 296.048 222.837 299.66 223.072 303.255C223.315 307.154 223.671 311.044 224.184 314.935C224.193 315.074 224.219 315.222 224.236 315.361C224.714 319.008 225.253 322.646 225.87 326.266C226.453 329.643 226.878 333.29 228.373 336.423C228.93 337.607 229.738 338.739 230.729 339.609C231.65 340.427 232.736 341.036 233.953 341.28C234.144 341.332 234.353 341.358 234.553 341.384C234.605 341.393 234.666 341.384 234.727 341.393C234.657 341.445 234.605 341.506 234.614 341.611C234.657 342.82 234.622 344.056 234.753 345.257C234.761 345.31 234.761 345.362 234.77 345.414C234.892 346.467 235.083 347.503 235.274 348.539H237.004C237.004 348.539 236.995 348.495 236.986 348.478C236.682 347.338 236.43 346.189 236.143 345.04C235.839 343.865 235.448 342.716 235.179 341.524C235.17 341.471 235.126 341.445 235.1 341.411C237.299 341.445 239.516 340.27 240.306 338.138C240.889 336.589 240.619 334.979 240.385 333.395C240.072 331.323 239.768 329.26 239.446 327.189C238.855 323.394 238.09 319.634 237.421 315.857C237.317 315.283 237.221 314.708 237.117 314.134C235.761 306.449 234.353 298.755 232.649 291.139C232.589 290.826 232.519 290.504 232.45 290.191C232.406 289.973 232.067 290.034 232.084 290.243C232.137 290.756 232.189 291.27 232.25 291.783C232.545 294.708 232.893 297.615 233.301 300.522C233.788 303.933 234.127 307.363 234.605 310.774C234.77 311.932 234.927 313.098 235.1 314.256C235.883 319.869 236.7 325.474 237.656 331.071C238.099 333.664 239.724 338.321 235.987 339.13C235.066 339.33 234.205 339.182 233.458 338.817C231.798 337.99 230.59 336.101 229.99 334.43C228.93 331.454 228.556 328.181 228.008 325.083C227.4 321.662 226.861 318.242 226.383 314.804C225.775 310.505 225.14 306.231 224.471 301.949C224.132 299.773 223.793 297.589 223.445 295.413C223.28 294.403 223.124 293.394 222.959 292.384C222.915 292.166 222.585 292.227 222.585 292.445L222.576 292.436Z" fill="#263238"/>
<path d="M311.802 319.278C307.604 319.26 303.423 318.651 299.364 317.598C297.487 317.11 295.636 316.519 293.802 315.909C292.038 315.326 290.204 314.621 288.787 313.385C285.962 310.94 284.641 307.093 283.416 303.681C282.025 299.825 281.026 295.9 280.157 291.897C280.113 291.696 279.826 291.766 279.818 291.949C279.687 296.431 280.322 301 281.512 305.326C282.529 309.016 283.894 313.142 286.866 315.727C290.004 318.451 294.254 319.408 298.269 319.904C302.797 320.461 307.308 320.331 311.819 319.713C312.097 319.678 312.106 319.269 311.81 319.269L311.802 319.278Z" fill="#263238"/>
<path d="M318.789 292.027C319.015 297.676 319.25 303.342 319.502 308.99C320.084 322.167 320.719 335.344 321.405 348.521H323.3C322.439 335.309 321.527 322.115 320.562 308.929C320.145 303.289 319.719 297.658 319.284 292.01C319.258 291.696 318.789 291.714 318.798 292.018L318.789 292.027Z" fill="#263238"/>
<path d="M233.552 166.802C193.833 202.66 157.007 241.913 154.122 261.957C150.133 289.703 167.176 297.397 174.807 297.476C195.597 297.676 233.378 213.313 246.511 181.093C259.269 149.813 242.269 158.934 233.552 166.802Z" fill="#D3766A"/>
<path d="M173.6 224.175L217.769 248.223C217.769 248.223 245.233 197.429 251.561 173.878C257.888 150.335 248.44 151.014 227.651 169.326C206.87 187.638 173.6 224.175 173.6 224.175Z" fill="#C7C7C7"/>
<path d="M173.6 224.175L217.769 248.223C217.769 248.223 245.233 197.429 251.561 173.878C257.888 150.335 248.44 151.014 227.651 169.326C206.87 187.638 173.6 224.175 173.6 224.175Z" fill="#219EBC"/>
<path opacity="0.1" d="M251.552 173.869C245.225 197.421 217.769 248.223 217.769 248.223L177.555 226.316L251.622 156.61C254.09 158.507 254.195 164.104 251.561 173.869H251.552Z" fill="black"/>
<path d="M182.692 217.395C199.726 228.927 216.231 236.429 219.534 238.335C219.69 238.422 219.821 238.161 219.656 238.083C216.318 236.386 198.188 225.08 182.822 217.116C182.648 217.021 182.526 217.282 182.692 217.395Z" fill="#263238"/>
<path d="M207.809 314.543L337.144 314.917C337.144 314.917 325.863 217.465 278.374 159.9C267.379 146.575 249.684 153.816 242.226 160.892C223.279 178.856 207.444 314.082 207.809 314.543Z" fill="#219EBC"/>
<path d="M252.291 154.6C255.394 156.871 258.367 159.378 261.365 161.693C264.259 163.947 267.154 166.193 270.048 168.438C272.69 170.483 275.289 172.781 278.226 174.4C280.886 175.862 283.997 176.515 286.857 175.209C287.561 174.896 288.213 174.47 288.812 173.991C288.917 174.147 289.021 174.295 289.108 174.452C287.656 175.627 285.909 176.41 283.963 176.524C281.103 176.689 278.435 175.383 276.114 173.817C273.211 171.85 270.508 169.578 267.736 167.428C262.356 163.251 257.046 158.908 251.518 154.913C251.779 154.8 252.031 154.687 252.3 154.591L252.291 154.6ZM303.874 232.13C308.489 232.191 313.061 232.435 317.52 233.348C317.415 233.044 317.302 232.73 317.189 232.426C313.27 231.651 309.254 231.381 305.204 231.303C293.497 231.086 277.835 231.817 270.752 220.328C267.962 215.794 267.067 209.788 270.126 205.149C272.829 201.05 277.879 199.283 282.615 199.327C285.084 199.344 287.535 199.823 289.82 200.754C292.567 201.885 294.983 203.731 297.234 205.637C301.449 209.231 305.369 213.426 310.627 215.428C310.488 215.097 310.349 214.758 310.21 214.418C308.611 213.731 307.107 212.852 305.786 211.886C300.893 208.335 296.939 203.435 291.489 200.667C287.387 198.578 282.476 197.978 278.009 199.057C273.646 200.11 269.804 202.939 268.188 207.238C266.397 212.042 267.797 217.552 270.656 221.642C277.992 232.147 292.463 231.973 303.874 232.113V232.13ZM284.023 187.342C287.439 185.793 290.942 184.191 294.575 183.156C294.409 182.894 294.262 182.633 294.097 182.372C285.753 184.713 278.044 189.996 269.439 191.476C259.114 193.252 248.215 190.815 239.376 185.271C236.925 183.739 234.631 181.963 232.553 179.953C232.449 180.231 232.354 180.51 232.267 180.806C234.24 182.686 236.412 184.365 238.716 185.836C247.268 191.293 257.706 193.852 267.797 192.608C273.542 191.894 278.791 189.701 284.023 187.333V187.342ZM291.837 279.816C298.182 282.192 304.77 283.959 311.34 285.508C318.676 287.24 327.758 288.711 333.677 293.681C333.599 293.254 333.512 292.828 333.425 292.393C327.506 287.876 319.015 286.44 311.949 284.777C305.352 283.219 298.729 281.444 292.367 279.085C286.865 277.057 281.416 274.324 277.401 269.938C273.933 266.178 272.038 261.13 272.377 255.995C272.716 250.86 275.636 246.177 280.686 244.585C286.101 242.861 292.141 244.881 296.661 247.979C301.832 251.521 305.534 256.83 309.506 261.574C313.27 266.091 317.441 270.242 322.943 272.558C325.003 273.419 327.228 273.967 329.444 274.081C329.383 273.82 329.322 273.558 329.253 273.297C324.864 273.019 320.562 270.852 317.155 268.214C312.14 264.333 308.533 258.919 304.413 254.176C300.632 249.824 296.304 245.96 290.724 244.149C285.892 242.583 280.33 242.739 276.253 246.073C272.69 248.997 271.273 253.732 271.517 258.214C271.795 263.149 273.915 267.692 277.375 271.2C281.364 275.247 286.561 277.84 291.819 279.807L291.837 279.816ZM276.114 301.984C275.193 306.196 275.628 310.487 275.376 314.734H276.175V314.717C276.471 309.512 275.654 304.038 277.818 299.12C278.922 296.614 280.912 294.569 283.58 293.768C286.422 292.915 289.551 293.463 292.185 294.734C297.799 297.476 300.806 303.42 303.535 308.72C304.587 310.748 305.673 312.855 306.934 314.83H307.864C304.77 310.13 302.797 304.769 299.459 300.208C296.243 295.822 291.385 292.253 285.692 292.636C280.425 292.985 277.175 297.101 276.114 301.975V301.984ZM225.418 314.595H226.444C227.617 312.585 228.408 310.322 228.894 308.042C230.146 302.262 229.781 296.283 229.364 290.434C228.408 276.883 226.07 263.045 229.033 249.58C230.242 244.115 232.241 238.762 235.361 234.08C238.559 229.284 243.2 224.784 248.771 222.965C251.753 221.99 255.055 221.886 257.889 223.392C260.305 224.671 262.113 226.856 263.26 229.31C266.085 235.333 264.338 242.148 261.643 247.874C256.359 259.076 247.815 268.484 243.557 280.217C239.733 290.748 240.532 302.489 245.625 312.472C245.999 313.211 246.407 313.942 246.833 314.665H247.772C245.686 311.236 244.122 307.484 243.148 303.594C241.749 298.059 241.514 292.21 242.609 286.596C243.791 280.53 246.494 274.907 249.606 269.616C252.752 264.254 256.333 259.154 259.453 253.767C262.599 248.327 265.598 242.287 265.528 235.846C265.467 230.868 263.156 225.594 258.758 222.991C253.56 219.893 247.294 221.999 242.731 225.254C233.753 231.677 229.19 242.444 227.53 253.062C225.357 266.909 228.077 280.922 228.729 294.786C228.999 300.313 228.981 306.04 227.043 311.314C226.617 312.48 226.07 313.594 225.418 314.613V314.595ZM238.385 197.621C235.535 195.132 232.049 193.974 228.434 193.756C228.373 193.991 228.312 194.226 228.243 194.461C229.094 194.505 229.963 194.609 230.824 194.775C236.16 195.837 241.566 200.005 241.636 205.872C241.714 212.269 236.291 217.021 231.041 219.667C227.956 221.216 224.74 222.417 221.585 223.757C221.533 224.036 221.472 224.306 221.42 224.593C223.41 223.74 225.453 222.974 227.46 222.138C232.892 219.91 238.377 216.925 241.08 211.433C243.47 206.611 242.453 201.18 238.385 197.629V197.621Z" fill="white"/>
<path d="M287.456 164.252C325.124 193.208 364.4 242.356 364.982 270.738C365.565 298.764 349.842 295.97 347.191 295.143C319.205 286.422 285.466 208.674 272.994 177.02C260.608 145.591 278.139 157.089 287.456 164.252Z" fill="#D3766A"/>
<path d="M347.973 220.737L304.238 245.568C304.238 245.568 275.87 195.271 269.125 171.841C262.381 148.411 271.837 148.925 292.948 166.863C314.059 184.8 347.964 220.737 347.964 220.737H347.973Z" fill="#219EBC"/>
<path d="M338.76 214.122C321.934 225.959 305.568 233.757 302.3 235.724C302.143 235.82 302.013 235.559 302.178 235.472C305.49 233.714 323.411 222.086 338.63 213.844C338.803 213.748 338.934 214.009 338.769 214.122H338.76Z" fill="#263238"/>
<path d="M307.045 243.853C306.758 243.88 304.812 244.828 304.412 245.028C300.205 236.656 300.97 238.579 296.694 230.25C294.599 226.168 292.496 222.086 290.401 218.004C288.229 213.757 286.282 209.327 283.874 205.21C283.805 205.088 283.64 205.175 283.683 205.306C285.074 209.336 286.96 213.226 288.75 217.108C288.35 216.507 287.976 215.889 287.551 215.315C286.586 214.018 285.639 212.712 284.778 211.346C284.648 211.137 284.3 211.303 284.43 211.52C285.247 212.834 285.977 214.175 286.69 215.55C287.412 216.925 288.202 218.23 289.011 219.545C289.793 220.815 290.662 222.025 291.531 223.235C291.636 223.383 291.74 223.531 291.844 223.679C292.991 226.107 294.104 228.553 295.303 230.955C299.501 239.371 303.838 245.986 303.986 245.951C304.568 245.803 306.924 244.28 307.158 244.106C307.28 244.019 307.158 243.862 307.045 243.871V243.853Z" fill="#263238"/>
<path d="M176.729 296.492C189.687 294.595 197.032 270.469 211.424 232.078C213.954 225.341 180.475 186.759 175.929 192.964C170.21 200.78 155.035 244.132 153.523 255.917C150.542 279.146 161.588 298.72 176.729 296.501V296.492Z" fill="#D3766A"/>
<path d="M196.676 270.93C197.84 267.658 199.083 264.42 200.317 261.191L204.089 251.504C205.393 248.292 206.645 245.063 207.905 241.843C208.548 240.233 209.165 238.623 209.765 236.995C210.382 235.376 210.982 233.758 211.442 232.078C210.825 235.507 209.643 238.788 208.531 242.069C207.392 245.351 206.132 248.58 204.898 251.817C203.594 255.029 202.308 258.249 200.935 261.435C199.57 264.62 198.171 267.797 196.676 270.93Z" fill="#263238"/>
<path d="M163.927 220.789C165.743 207.612 169.454 189.222 174.165 185.375C179.102 181.337 197.023 167.82 202.203 166.027C207.383 164.234 230.459 155.435 234.7 157.889C238.098 159.856 234.074 168.795 223.088 173.077C213.432 176.846 208.47 180.353 205.706 181.554C202.89 182.773 196.119 191.903 197.97 195.941C199.057 198.326 205.975 201.111 210.277 199.17C214.58 197.22 215.64 188.691 220.55 184.67C225.461 180.649 234.135 181.136 234.63 183.478C235.134 185.819 232.266 186.915 227.834 194.888C224.983 200.014 224.792 212.303 218.326 221.12C215.075 225.55 209.408 237.343 209.408 237.343L163.918 220.798L163.927 220.789Z" fill="#D3766A"/>
<path d="M225.14 181.041C226.661 180.693 228.312 180.231 229.433 179.091C229.911 178.604 230.276 178.003 230.407 177.333C230.476 176.976 230.485 176.593 230.442 176.236C230.398 175.906 230.303 175.392 230.016 175.183C229.929 175.122 230.059 175.018 230.103 175.105C230.198 175.296 230.381 175.453 230.502 175.627C230.607 175.784 230.685 175.949 230.746 176.123C230.876 176.471 230.937 176.828 230.928 177.194C230.911 178.003 230.589 178.769 230.077 179.387C228.851 180.849 226.965 181.241 225.14 181.171C225.062 181.171 225.062 181.058 225.131 181.041H225.14Z" fill="#263238"/>
<path d="M174.157 185.375C178.338 178.795 189.037 166.932 199.631 162.85C206.793 160.091 231.468 172.102 230.746 176.819C230.034 181.537 225.818 181.563 219.578 180.823C217.301 180.553 205.281 176.245 203.238 178.769C200.301 182.398 196.563 194.801 196.563 194.801L174.148 185.375H174.157Z" fill="#D3766A"/>
<path d="M230.137 174.983C227.087 169.935 220.386 167.237 213.728 165.113C213.624 165.078 213.563 165.235 213.667 165.27C215.362 165.81 226.226 170.805 230.068 175.061C230.111 175.114 230.172 175.035 230.137 174.983Z" fill="#263238"/>
<path d="M174.156 185.375C178.337 178.795 189.036 166.932 199.63 162.85C206.792 160.091 226.313 175.47 225.6 180.188C224.887 184.905 218.83 185.288 212.146 182.964C209.982 182.216 202.733 177.107 200.682 179.631C197.744 183.26 190.565 192.277 190.565 192.277L174.156 185.375Z" fill="#D3766A"/>
<path d="M194.703 186.698C195.372 185.662 195.607 185.297 196.293 184.27C196.98 183.251 197.684 182.233 198.44 181.267C199.092 180.431 199.735 179.5 200.648 178.934C201.526 178.386 202.586 178.256 203.603 178.351C205.923 178.569 208.018 180.04 209.991 181.171C212.19 182.433 216.744 184.479 220.238 184.104C221.203 184 222.141 183.843 222.993 183.356C223.541 183.042 224.279 182.651 224.644 182.033C226.157 179.457 224.262 176.524 222.324 174.452C218.717 170.579 213.876 167.777 209.174 165.47C208.018 164.904 206.853 164.365 205.68 163.834C204.35 163.225 202.96 162.633 201.447 162.624C199.023 162.607 195.051 165.079 193.816 165.827C193.721 165.888 193.651 165.731 193.747 165.67C195.233 164.739 198.927 161.71 202.838 161.902C204.272 161.971 205.611 162.711 206.914 163.268C208.279 163.86 209.626 164.487 210.956 165.157C213.546 166.445 216.057 167.89 218.413 169.569C220.638 171.162 223.011 173.016 224.514 175.34C225.818 177.35 226.209 180.214 224.94 182.329C223.871 184.113 221.594 184.539 220.542 184.679C219.499 184.818 218.5 184.792 217.457 184.653C216.379 184.505 212.416 183.356 210.747 182.694C208.626 181.85 206.714 180.423 204.524 179.761C203.481 179.448 202.334 179.431 201.36 179.97C200.457 180.466 199.7 181.389 198.996 182.129C197.406 183.808 196.354 184.896 195.051 186.82C194.738 187.29 194.407 187.142 194.694 186.707L194.703 186.698Z" fill="#263238"/>
<path d="M171.062 191.119C172.601 187.995 175.182 175.096 177.659 171.136C180.145 167.185 191.487 153.494 196.78 154.086C203.438 154.826 196.511 166.845 193.025 171.806C189.54 176.759 190.14 185.166 190.14 185.166L171.062 191.119Z" fill="#D3766A"/>
<path d="M197.884 163.59C196.65 165.157 195.546 166.898 194.477 168.577C193.46 170.17 192.278 171.754 191.505 173.486C190.731 175.227 190.383 177.089 190.21 178.978C190.123 179.909 190.097 180.832 190.088 181.763C190.088 182.781 190.175 183.808 190.149 184.818C190.149 184.922 190.314 184.94 190.314 184.835C190.392 182.999 190.714 181.11 191.035 179.309C191.366 177.429 191.922 175.549 192.704 173.799C194.26 170.309 196.537 167.185 198.119 163.712C198.179 163.573 197.98 163.477 197.893 163.59H197.884Z" fill="#263238"/>
<path d="M190.217 186.576C190.287 188.151 190.661 189.674 191.174 191.154C191.66 192.634 192.277 194.07 192.964 195.471C193.651 196.872 194.389 198.239 195.215 199.562C196.015 200.893 196.988 202.094 197.935 203.365C199.847 205.863 201.603 208.596 202.655 211.607C203.759 214.601 204.219 217.787 204.228 220.929C203.88 217.804 203.254 214.706 202.055 211.842C200.873 208.961 199.17 206.359 197.249 203.887C196.293 202.651 195.319 201.381 194.502 200.005C193.685 198.639 192.955 197.229 192.321 195.776C191.121 192.869 190 189.77 190.209 186.593L190.217 186.576Z" fill="#263238"/>
<path d="M237.769 168.159C237.96 170.205 238.247 172.25 238.638 174.278C238.994 176.097 239.359 177.916 240.055 179.665C241.298 182.807 243.67 185.723 247.329 186.567C250.823 187.377 254.413 186.28 257.194 184.452C260.227 182.451 262.591 179.613 264.755 176.854C266.094 175.148 267.372 173.39 268.545 171.58C269.145 170.666 269.744 169.752 270.3 168.803C270.848 167.864 271.361 166.897 271.969 165.992C272.021 165.923 272.178 165.975 272.126 166.053C270.952 168.194 267.406 174.983 266.216 176.663C264.06 179.718 261.696 182.851 258.559 185.114C255.595 187.255 251.927 188.534 248.025 187.986C244.183 187.438 241.289 184.835 239.837 181.58C238.942 179.587 238.534 177.411 238.273 175.296C237.978 172.929 237.812 170.544 237.717 168.168C237.717 168.142 237.76 168.142 237.769 168.168V168.159Z" fill="#263238"/>
<path d="M250.284 180.632C258.254 180.414 268.101 165.522 270.717 154.878C270.891 154.147 261.487 129.368 260.14 124.259C259.87 123.206 230.189 140.543 230.189 140.543C230.189 140.543 236.169 150.404 238.481 159.317C238.663 160.065 242.583 180.832 250.284 180.623V180.632Z" fill="#D3766A"/>
<path d="M230.189 140.543C230.189 140.543 236.178 150.404 238.481 159.325C238.524 159.5 238.776 160.796 239.228 162.676C254.073 157.228 261.278 145.313 264.572 137.236C262.556 131.622 260.687 126.339 260.14 124.268C259.862 123.215 230.189 140.543 230.189 140.543Z" fill="#263238"/>
<path d="M213.155 82.8047C211.251 83.1355 204.863 98.323 205.793 104.981C206.723 111.639 211.06 124.512 213.042 124.451C215.023 124.39 214.623 82.5523 213.155 82.8047Z" fill="#263238"/>
<path d="M258.801 88.697C265.354 99.0802 268.317 133.441 262.26 142.946C253.473 156.723 234.621 162.972 221.793 151.397C209.356 140.178 206.288 95.3203 213.475 86.2252C224.061 72.8306 249.118 73.3615 258.801 88.697Z" fill="#D3766A"/>
<path d="M234.144 110.638C235.178 110.83 236.16 110.83 237.195 110.908C238.368 110.995 239.289 111.195 240.358 110.595C240.932 110.273 241.184 109.333 240.915 108.75C240.306 107.383 238.898 106.913 237.49 106.748C235.96 106.565 234.735 106.818 233.44 107.636C232.18 108.436 232.771 110.395 234.135 110.638H234.144Z" fill="#263238"/>
<path d="M235.482 118.141C235.491 118.054 235.674 118.228 235.682 118.323C235.848 120.647 236.421 123.276 238.594 123.833C238.663 123.85 238.663 123.963 238.594 123.963C236.004 123.868 235.274 120.369 235.491 118.141H235.482Z" fill="#263238"/>
<path d="M237.299 115.512C240.984 114.851 242.045 122.284 238.629 122.902C235.266 123.511 234.214 116.069 237.299 115.512Z" fill="#263238"/>
<path d="M222.202 119.699C222.176 119.612 222.037 119.829 222.054 119.925C222.454 122.214 222.524 124.912 220.559 125.974C220.499 126.009 220.525 126.122 220.594 126.096C223.08 125.373 222.95 121.805 222.202 119.699Z" fill="#263238"/>
<path d="M219.804 117.592C216.066 117.836 216.831 125.312 220.29 125.077C223.697 124.851 222.933 117.384 219.804 117.592Z" fill="#263238"/>
<path d="M216.413 113.624C217.421 113.31 218.291 112.849 219.255 112.44C220.342 111.97 221.254 111.709 221.924 110.673C222.28 110.116 222.071 109.167 221.559 108.767C220.376 107.836 218.908 108.08 217.578 108.584C216.135 109.133 215.162 109.933 214.397 111.274C213.649 112.571 215.083 114.041 216.413 113.624Z" fill="#263238"/>
<path d="M240.262 136.975C239.784 137.593 239.341 138.411 238.515 138.603C237.724 138.785 236.733 138.559 235.96 138.376C235.882 138.359 235.821 138.446 235.873 138.507C236.594 139.308 237.933 139.682 238.967 139.342C239.984 139.012 240.366 138.037 240.488 137.045C240.505 136.905 240.323 136.879 240.253 136.975H240.262Z" fill="#263238"/>
<path d="M236.873 130.43C235.873 132.615 234.135 133.972 232.145 134.66C231.258 134.973 230.302 135.139 229.346 135.191C229.164 135.217 228.972 135.217 228.799 135.208C228.625 135.208 228.477 135.208 228.286 135.208C228.008 135.208 227.834 135.008 227.747 134.756V134.738C227.738 134.651 227.729 134.59 227.729 134.503V134.486L227.703 134.286C227.399 132.519 227.191 129.795 227.191 129.795C226.591 130.213 223.506 132.171 223.419 131.231C222.784 123.493 222.08 114.894 223.088 107.061C223.106 106.8 223.506 106.8 223.514 107.061C224.418 114.468 224.01 121.988 224.792 129.447C225.791 128.898 227.399 127.906 228.329 127.793C228.59 127.828 228.642 133.059 228.842 133.842C228.842 133.842 228.842 133.877 228.868 133.92C231.901 133.877 234.013 132.658 236.621 130.247C236.777 130.091 236.977 130.221 236.864 130.421L236.873 130.43Z" fill="#263238"/>
<path d="M262.825 118.193C256.845 119.542 252.969 113.206 249.631 104.05C247.684 98.7059 247.676 87.5306 247.676 87.5306C247.676 87.5306 233.178 96.8608 224.305 97.2611C215.431 97.6615 206.922 91.1078 206.401 84.1624C205.957 78.2005 214.883 69.1838 227.903 66.8686C236.977 65.2585 253.394 70.5241 261.512 79.4451C261.512 79.4451 273.749 83.4052 273.202 92.3263C272.654 101.247 269.621 116.652 262.833 118.184L262.825 118.193Z" fill="#263238"/>
<path d="M262.303 117.558C254.56 120.317 248.736 108.863 247.702 102.631C246.624 96.1471 248.241 89.2366 248.519 82.7351C248.519 82.7003 248.467 82.6916 248.467 82.7264C246.798 90.7858 245.19 100.925 248.884 108.637C251.213 113.493 256.054 121.378 262.46 117.984C262.677 117.871 262.547 117.471 262.303 117.558Z" fill="#263238"/>
<path d="M274.583 89.4715C272.741 84.2668 265.944 79.8019 260.66 79.2362C260.616 79.2362 260.599 79.3058 260.642 79.3232C267.057 80.7419 275.087 86.8604 274.105 93.9799C273.323 99.6719 271.646 107.253 268.499 112.109C268.421 112.231 268.604 112.344 268.69 112.231C271.237 108.898 272.011 104.885 273.045 100.89C273.949 97.409 275.852 93.0834 274.583 89.4802V89.4715Z" fill="#263238"/>
<path d="M262.781 80.0979C254.194 70.6982 237.046 61.0199 224.183 65.9809C224.148 65.9983 224.165 66.0592 224.209 66.0505C238.028 62.0034 252.368 72.3083 262.372 80.6027C262.668 80.8464 263.033 80.3677 262.789 80.1066L262.781 80.0979Z" fill="#263238"/>
<path d="M259.02 119.081C259.02 119.081 263.661 106.522 269.171 107.905C274.681 109.289 273.126 126.139 268.024 129.725C262.922 133.311 259.506 128.655 259.506 128.655L259.02 119.081Z" fill="#D3766A"/>
<path d="M268.607 112.718C268.694 112.684 268.746 112.805 268.676 112.858C265.13 115.504 264.009 119.725 263.54 123.92C264.331 122.144 265.73 120.917 268.059 121.805C268.181 121.848 268.129 122.04 268.007 122.049C266.295 122.127 265.191 122.719 264.435 124.303C263.896 125.425 263.67 126.731 263.392 127.941C263.296 128.341 262.61 128.324 262.636 127.88C262.636 127.845 262.636 127.81 262.636 127.784C261.21 122.754 263.296 114.651 268.589 112.718H268.607Z" fill="#263238"/>
<path d="M243.085 174.8L261.32 229.293C262.041 230.877 261.32 232.269 259.72 232.391L231.091 234.593C229.492 234.715 227.615 233.531 226.893 231.947L208.659 177.455C207.938 175.871 208.659 174.478 210.258 174.356L238.887 172.154C240.487 172.033 242.364 173.216 243.085 174.8Z" fill="#37474F"/>
<path d="M239.679 175.035L257.913 229.528C258.635 231.112 257.913 232.504 256.314 232.626L227.685 234.828C226.086 234.95 224.208 233.766 223.487 232.182L205.253 177.69C204.531 176.106 205.253 174.713 206.852 174.591L235.481 172.389C237.08 172.268 238.966 173.451 239.679 175.035Z" fill="#455A64"/>
<path d="M232.021 178.177C232.152 179.517 233.351 180.501 234.69 180.37C236.028 180.24 237.01 179.039 236.88 177.698C236.749 176.358 235.55 175.375 234.212 175.505C232.873 175.636 231.891 176.837 232.021 178.177Z" fill="#263238"/>
<path d="M353.145 295.43C340.655 297.293 324.95 287.728 284.179 258.623C278.538 254.594 296.216 207.073 302.466 211.068C310.331 216.098 339.769 237.317 341.733 239.136C358.238 254.524 361.627 294.168 353.153 295.43H353.145Z" fill="#D3766A"/>
<path d="M317.066 225.219C317.066 225.219 305.368 209.162 296.615 202.634C284.891 193.887 271.176 191.171 265.362 190.379C253.22 188.726 222.731 193.138 222.461 202.155C222.227 210.319 253.168 204.235 253.168 204.235C253.168 204.235 220.601 205.228 222.114 215.106C223.635 224.984 259.147 215.872 259.147 215.872C259.147 215.872 225.703 217.647 228.875 227.587C231.274 235.098 263.91 228.657 263.91 228.657C263.91 228.657 235.177 230.381 237.315 238.214C239.67 246.865 270.168 242.818 270.168 242.818C278.937 261.809 290.879 267.266 299.831 270.129C301.995 270.826 317.066 225.219 317.066 225.219Z" fill="#D3766A"/>
<path d="M264.414 203.165C260.582 203.139 256.705 203.095 252.89 203.417C249.074 203.739 245.259 204.192 241.487 204.862C232.231 206.516 226.703 208.996 227.059 208.883C235.542 206.133 249.196 204.784 253.011 204.462C256.818 204.14 260.616 203.635 264.432 203.313C264.527 203.313 264.501 203.165 264.414 203.165Z" fill="#263238"/>
<path d="M265.815 216.951C260.921 217.134 256.063 217.134 251.17 217.534C246.311 217.935 241.731 218.735 236.907 219.466C236.534 219.519 236.69 219.701 237.064 219.667C241.914 219.127 246.433 219.005 251.283 218.518C256.115 218.039 260.974 217.369 265.823 217.064C265.902 217.064 265.884 216.942 265.806 216.951H265.815Z" fill="#263238"/>
<path d="M269.143 228.57C261.651 228.466 254.151 229.745 246.824 231.181C246.459 231.251 246.685 231.469 247.058 231.416C254.463 230.407 260.261 229.563 269.143 228.831C269.282 228.823 269.3 228.57 269.143 228.57Z" fill="#263238"/>
<path d="M330.469 230.746C333.702 232.887 336.813 235.185 339.829 237.631C341.35 238.84 342.802 240.137 344.201 241.495C345.609 242.844 346.913 244.367 347.947 246.029C349.998 249.371 351.615 252.923 352.979 256.561C354.3 260.207 355.43 263.958 355.926 267.814C355.508 265.925 354.978 264.063 354.361 262.235C353.761 260.399 353.101 258.588 352.362 256.804C350.876 253.253 349.285 249.72 347.217 246.499C346.226 244.854 345.018 243.41 343.653 242.061C342.306 240.694 340.855 239.432 339.412 238.153C337.961 236.882 336.483 235.637 334.98 234.419C333.502 233.174 331.981 231.973 330.477 230.755L330.469 230.746Z" fill="#263238"/>
<path d="M207.071 60.1583C207.071 60.1583 203.499 88.8014 197.623 95.2419C190.575 102.971 185.464 101.839 182.614 105.825C179.772 101.83 174.652 102.971 167.595 95.2332C161.72 88.7927 158.156 60.1496 158.156 60.1496C173.627 52.6298 182.605 44.2048 182.605 44.2048C182.883 44.4659 191.826 52.7516 207.054 60.1496L207.071 60.1583Z" fill="#219EBC"/>
<path opacity="0.2" d="M182.614 44.2135V105.825C179.772 101.83 174.652 102.971 167.595 95.2332C161.72 88.7927 158.156 60.1496 158.156 60.1496C173.627 52.6298 182.605 44.2048 182.605 44.2048L182.614 44.2135Z" fill="black"/>
<path opacity="0.1" d="M207.071 60.1582C207.071 60.1582 203.498 88.8013 197.623 95.2419C190.575 102.971 185.464 101.839 182.613 105.825V44.2135C182.891 44.4746 191.835 52.7603 207.062 60.1582H207.071Z" fill="black"/>
<path d="M203.272 62.4646C203.272 62.4646 200.257 86.6603 195.294 92.1086C189.332 98.6449 185.012 97.6876 182.605 101.056C180.197 97.6876 175.877 98.6449 169.915 92.1086C164.953 86.6603 161.945 62.4646 161.945 62.4646C175.017 56.1111 182.605 48.9917 182.605 48.9917C182.605 48.9917 190.201 56.1111 203.264 62.4646H203.272Z" fill="#219EBC"/>
<path opacity="0.1" d="M182.613 49.0004V101.047V101.056C180.215 97.6876 175.886 98.6449 169.933 92.1086C164.97 86.6603 161.963 62.4646 161.963 62.4646C175.026 56.1111 182.613 48.9917 182.613 48.9917V49.0004Z" fill="black"/>
<path d="M191.87 70.4197H173.357V87.2348H191.87V70.4197Z" fill="white"/>
<path d="M190.019 75.607H188.133V68.0959C188.133 65.0497 185.656 62.5692 182.614 62.5692C179.572 62.5692 177.095 65.0497 177.095 68.0959V75.607H175.209V68.0959C175.209 64.0053 178.529 60.6805 182.614 60.6805C186.699 60.6805 190.019 64.0053 190.019 68.0959V75.607Z" fill="white"/>
<path d="M183.196 79.1058L183.796 81.9431H181.258L181.858 79.1058C181.501 78.8795 181.258 78.4878 181.258 78.0352C181.258 77.3303 181.823 76.7645 182.527 76.7645C183.231 76.7645 183.796 77.3303 183.796 78.0352C183.796 78.4878 183.552 78.8795 183.196 79.1058Z" fill="#37474F"/>
<path d="M158.373 173.086H182.613V109.542" stroke="#219EBC" stroke-width="0.75" stroke-miterlimit="10"/>
<path d="M182.613 111.082C183.425 111.082 184.082 110.424 184.082 109.611C184.082 108.799 183.425 108.141 182.613 108.141C181.802 108.141 181.145 108.799 181.145 109.611C181.145 110.424 181.802 111.082 182.613 111.082Z" fill="#219EBC"/>
<path d="M56.0853 70.7853H11.4902V13.4556H44.6041L56.0853 24.3784V70.7853Z" fill="#EBEBEB"/>
<path d="M44.6035 13.4556L56.0847 24.3784H44.6035V13.4556Z" fill="#DBDBDB"/>
<path d="M15.8443 24.5438L40.6406 24.5438V23.0729L15.8443 23.0729V24.5438Z" fill="#DBDBDB"/>
<path d="M15.8443 28.2601L40.6406 28.2601V26.7892L15.8443 26.7892V28.2601Z" fill="#DBDBDB"/>
<path d="M15.8443 31.9678L40.6406 31.9678V30.4969L15.8443 30.4969V31.9678Z" fill="#DBDBDB"/>
<path d="M15.8442 35.6842L52.1738 35.6842V34.2133L15.8442 34.2133V35.6842Z" fill="#DBDBDB"/>
<path d="M15.8442 39.4093L52.1738 39.4093V37.9384L15.8442 37.9384V39.4093Z" fill="#DBDBDB"/>
<path d="M15.8442 43.1256L52.1738 43.1256V41.6547L15.8442 41.6547V43.1256Z" fill="#DBDBDB"/>
<path d="M15.8442 46.842L52.1738 46.842V45.3712L15.8442 45.3712V46.842Z" fill="#DBDBDB"/>
<path d="M15.8442 50.5585L52.1738 50.5585V49.0876L15.8442 49.0876V50.5585Z" fill="#DBDBDB"/>
<path d="M15.8442 54.2748L52.1738 54.2748V52.8039L15.8442 52.8039V54.2748Z" fill="#DBDBDB"/>
<path d="M15.8442 57.9824L52.1738 57.9824V56.5115L15.8442 56.5115V57.9824Z" fill="#DBDBDB"/>
<path d="M15.8442 61.6989L52.1738 61.6989V60.228L15.8442 60.228V61.6989Z" fill="#DBDBDB"/>
<path d="M15.8442 65.4152H52.1738V63.9443L15.8442 63.9443V65.4152Z" fill="#DBDBDB"/>
<path d="M59.097 75.9937C63.0844 74.3291 64.9694 69.7426 63.3071 65.7496C61.6448 61.7566 57.0648 59.869 53.0774 61.5336C49.0899 63.1982 47.205 67.7846 48.8672 71.7776C50.5295 75.7707 55.1095 77.6583 59.097 75.9937Z" fill="#263238"/>
<path d="M59.9616 66.7903H52.209V73.8401H59.9616V66.7903Z" fill="white"/>
<path d="M59.188 68.9575H58.3971V65.8068C58.3971 64.5274 57.3628 63.4917 56.0852 63.4917C54.8076 63.4917 53.7733 64.5274 53.7733 65.8068V68.9575H52.9824V65.8068C52.9824 64.0923 54.373 62.6997 56.0852 62.6997C57.7974 62.6997 59.188 64.0923 59.188 65.8068V68.9575Z" fill="white"/>
<path d="M56.4158 70.3935L56.7374 71.934H55.3555L55.677 70.3935C55.4858 70.2717 55.3555 70.0541 55.3555 69.8104C55.3555 69.4274 55.6684 69.1228 56.0421 69.1228C56.4158 69.1228 56.7287 69.4274 56.7287 69.8104C56.7287 70.0541 56.5983 70.2717 56.4071 70.3935H56.4158Z" fill="#263238"/>
<path d="M86.3228 100.751V47.9996H61.0137" stroke="#219EBC" stroke-width="0.75" stroke-miterlimit="10"/>
<path d="M61.0919 49.4705C61.9031 49.4705 62.5607 48.8119 62.5607 47.9996C62.5607 47.1872 61.9031 46.5287 61.0919 46.5287C60.2807 46.5287 59.623 47.1872 59.623 47.9996C59.623 48.8119 60.2807 49.4705 61.0919 49.4705Z" fill="#219EBC"/>
<path d="M86.3223 247.7V294.029H111.631" stroke="#219EBC" stroke-width="0.75" stroke-miterlimit="10"/>
<path d="M111.553 295.5C112.364 295.5 113.022 294.841 113.022 294.029C113.022 293.217 112.364 292.558 111.553 292.558C110.742 292.558 110.084 293.217 110.084 294.029C110.084 294.841 110.742 295.5 111.553 295.5Z" fill="#219EBC"/>
<path d="M172.227 284.481H116.689V318.042H172.227V284.481Z" fill="#455A64"/>
<path d="M136.575 288.702H121.053V308.581H136.575V288.702Z" fill="white"/>
<path d="M128.813 300.339C130.844 300.339 132.49 298.691 132.49 296.657C132.49 294.624 130.844 292.976 128.813 292.976C126.783 292.976 125.137 294.624 125.137 296.657C125.137 298.691 126.783 300.339 128.813 300.339Z" fill="#455A64"/>
<path d="M136.575 308.581H121.053C121.053 308.581 121.479 304.873 122.235 303.777C122.991 302.68 124.99 301.427 128.814 301.427C132.638 301.427 134.637 302.671 135.393 303.777C136.15 304.882 136.575 308.581 136.575 308.581Z" fill="#455A64"/>
<path d="M166.142 288.702H140.59V289.668H166.142V288.702Z" fill="white"/>
<path d="M166.142 298.154H140.59V299.12H166.142V298.154Z" fill="white"/>
<path d="M166.142 300.939H140.59V301.906H166.142V300.939Z" fill="white"/>
<path d="M166.142 303.716H140.59V304.682H166.142V303.716Z" fill="white"/>
<path d="M166.142 306.501H140.59V307.467H166.142V306.501Z" fill="white"/>
<path d="M166.142 309.277H140.59V310.243H166.142V309.277Z" fill="white"/>
<path d="M161.284 291.488H140.59V292.454H161.284V291.488Z" fill="white"/>
<path d="M175.236 325.279C179.223 323.614 181.108 319.028 179.446 315.035C177.784 311.042 173.203 309.154 169.216 310.819C165.229 312.483 163.344 317.07 165.006 321.063C166.668 325.056 171.248 326.944 175.236 325.279Z" fill="#263238"/>
<path d="M176.102 316.066H168.35V323.116H176.102V316.066Z" fill="white"/>
<path d="M175.329 318.242H174.538V315.091C174.538 313.812 173.503 312.776 172.226 312.776C170.948 312.776 169.914 313.812 169.914 315.091V318.242H169.123V315.091C169.123 313.377 170.514 311.984 172.226 311.984C173.938 311.984 175.329 313.377 175.329 315.091V318.242Z" fill="white"/>
<path d="M172.556 319.678L172.878 321.219H171.496L171.818 319.678C171.626 319.556 171.496 319.339 171.496 319.095C171.496 318.712 171.809 318.407 172.183 318.407C172.556 318.407 172.869 318.712 172.869 319.095C172.869 319.339 172.739 319.556 172.548 319.678H172.556Z" fill="#263238"/>
<path d="M365 348.565L319.379 348.774L273.75 348.852L182.5 349L91.25 348.852L45.6207 348.774L0 348.565L45.6207 348.356L91.25 348.278L182.5 348.13L273.75 348.278L319.379 348.356L365 348.565Z" fill="#263238"/>
</g>
<defs>
<clipPath id="clip0_1068_6036">
<rect width="365" height="349" fill="white"/>
</clipPath>
</defs>
</svg>
