<svg width="277" height="61" viewBox="0 0 277 61" fill="none" xmlns="http://www.w3.org/2000/svg">
<path d="M85.41 15.87C88.32 15.87 90.72 16.23 92.61 16.95C94.5 17.64 95.91 18.705 96.84 20.145C97.77 21.555 98.235 23.34 98.235 25.5C98.235 26.97 97.95 28.26 97.38 29.37C96.84 30.45 96.105 31.38 95.175 32.16C94.275 32.91 93.3 33.525 92.25 34.005L101.7 48H94.14L86.49 35.67H82.845V48H76.05V15.87H85.41ZM84.915 21.45H82.845V30.135H85.05C86.55 30.135 87.765 29.97 88.695 29.64C89.625 29.31 90.3 28.815 90.72 28.155C91.14 27.465 91.35 26.64 91.35 25.68C91.35 24.66 91.11 23.85 90.63 23.25C90.18 22.62 89.475 22.17 88.515 21.9C87.585 21.6 86.385 21.45 84.915 21.45ZM115.747 22.935C119.047 22.935 121.567 23.655 123.307 25.095C125.077 26.505 125.962 28.68 125.962 31.62V48H121.282L119.977 44.67H119.797C119.107 45.54 118.387 46.26 117.637 46.83C116.917 47.4 116.077 47.805 115.117 48.045C114.187 48.315 113.032 48.45 111.652 48.45C110.212 48.45 108.907 48.18 107.737 47.64C106.597 47.07 105.697 46.215 105.037 45.075C104.377 43.905 104.047 42.435 104.047 40.665C104.047 38.055 104.962 36.135 106.792 34.905C108.622 33.645 111.367 32.955 115.027 32.835L119.302 32.7V31.62C119.302 30.33 118.957 29.385 118.267 28.785C117.607 28.185 116.677 27.885 115.477 27.885C114.277 27.885 113.107 28.065 111.967 28.425C110.827 28.755 109.687 29.175 108.547 29.685L106.342 25.14C107.662 24.45 109.117 23.91 110.707 23.52C112.327 23.13 114.007 22.935 115.747 22.935ZM116.692 36.705C114.532 36.765 113.032 37.155 112.192 37.875C111.352 38.595 110.932 39.54 110.932 40.71C110.932 41.73 111.232 42.465 111.832 42.915C112.432 43.335 113.212 43.545 114.172 43.545C115.612 43.545 116.827 43.125 117.817 42.285C118.807 41.415 119.302 40.2 119.302 38.64V36.615L116.692 36.705ZM139.98 23.43V48H133.275V23.43H139.98ZM136.65 13.8C137.64 13.8 138.495 14.04 139.215 14.52C139.935 14.97 140.295 15.825 140.295 17.085C140.295 18.315 139.935 19.17 139.215 19.65C138.495 20.13 137.64 20.37 136.65 20.37C135.63 20.37 134.76 20.13 134.04 19.65C133.35 19.17 133.005 18.315 133.005 17.085C133.005 15.825 133.35 14.97 134.04 14.52C134.76 14.04 135.63 13.8 136.65 13.8ZM154.141 48H147.436V13.8H154.141V48ZM178.742 40.71C178.742 42.36 178.352 43.77 177.572 44.94C176.792 46.08 175.622 46.95 174.062 47.55C172.502 48.15 170.567 48.45 168.257 48.45C166.547 48.45 165.077 48.33 163.847 48.09C162.617 47.88 161.387 47.52 160.157 47.01V41.475C161.477 42.075 162.902 42.57 164.432 42.96C165.962 43.35 167.312 43.545 168.482 43.545C169.802 43.545 170.732 43.35 171.272 42.96C171.842 42.57 172.127 42.06 172.127 41.43C172.127 41.01 172.007 40.635 171.767 40.305C171.557 39.975 171.077 39.6 170.327 39.18C169.577 38.76 168.407 38.22 166.817 37.56C165.287 36.9 164.027 36.255 163.037 35.625C162.047 34.965 161.312 34.185 160.832 33.285C160.352 32.355 160.112 31.2 160.112 29.82C160.112 27.54 160.997 25.83 162.767 24.69C164.537 23.55 166.892 22.98 169.832 22.98C171.362 22.98 172.817 23.13 174.197 23.43C175.577 23.73 177.002 24.225 178.472 24.915L176.447 29.73C175.637 29.37 174.857 29.055 174.107 28.785C173.357 28.515 172.622 28.305 171.902 28.155C171.212 28.005 170.492 27.93 169.742 27.93C168.752 27.93 168.002 28.065 167.492 28.335C167.012 28.605 166.772 29.01 166.772 29.55C166.772 29.94 166.892 30.3 167.132 30.63C167.402 30.93 167.897 31.26 168.617 31.62C169.367 31.98 170.462 32.46 171.902 33.06C173.312 33.63 174.527 34.23 175.547 34.86C176.567 35.46 177.347 36.225 177.887 37.155C178.457 38.055 178.742 39.24 178.742 40.71ZM197.33 48H190.535V21.54H181.805V15.87H206.06V21.54H197.33V48ZM217.886 22.98C220.166 22.98 222.116 23.415 223.736 24.285C225.386 25.155 226.661 26.415 227.561 28.065C228.461 29.715 228.911 31.74 228.911 34.14V37.38H213.071C213.131 39.27 213.686 40.755 214.736 41.835C215.816 42.915 217.301 43.455 219.191 43.455C220.781 43.455 222.221 43.305 223.511 43.005C224.801 42.675 226.136 42.18 227.516 41.52V46.695C226.316 47.295 225.041 47.73 223.691 48C222.371 48.3 220.766 48.45 218.876 48.45C216.416 48.45 214.241 48 212.351 47.1C210.461 46.17 208.976 44.775 207.896 42.915C206.816 41.055 206.276 38.715 206.276 35.895C206.276 33.015 206.756 30.63 207.716 28.74C208.706 26.82 210.071 25.38 211.811 24.42C213.551 23.46 215.576 22.98 217.886 22.98ZM217.931 27.75C216.641 27.75 215.561 28.17 214.691 29.01C213.851 29.85 213.356 31.155 213.206 32.925H222.611C222.611 31.935 222.431 31.05 222.071 30.27C221.741 29.49 221.231 28.875 220.541 28.425C219.851 27.975 218.981 27.75 217.931 27.75ZM238.959 35.445L231.039 23.43H238.644L243.414 31.26L248.229 23.43H255.834L247.824 35.445L256.194 48H248.589L243.414 39.585L238.239 48H230.634L238.959 35.445ZM270.734 43.095C271.484 43.095 272.204 43.02 272.894 42.87C273.584 42.72 274.274 42.54 274.964 42.33V47.325C274.244 47.625 273.344 47.88 272.264 48.09C271.214 48.33 270.059 48.45 268.799 48.45C267.329 48.45 266.009 48.21 264.839 47.73C263.699 47.25 262.784 46.425 262.094 45.255C261.434 44.055 261.104 42.405 261.104 40.305V28.47H257.909V25.635L261.599 23.385L263.534 18.21H267.809V23.43H274.694V28.47H267.809V40.305C267.809 41.235 268.079 41.94 268.619 42.42C269.159 42.87 269.864 43.095 270.734 43.095Z" fill="#444444"/>
<circle cx="28.5" cy="30.5" r="27" stroke="#444444" stroke-width="3"/>
<circle cx="28.4998" cy="30.4999" r="10.6875" fill="#219EBC"/>
</svg>
