<svg width="230" height="230" viewBox="0 0 230 230" fill="none" xmlns="http://www.w3.org/2000/svg">
<path d="M35.484 77.4042C34.3726 74.4198 34.1712 71.1729 34.9053 68.0741C35.6394 64.9753 37.276 62.1638 39.6081 59.9952C41.9402 57.8266 44.863 56.3983 48.0069 55.891C51.1508 55.3837 54.3746 55.8202 57.2704 57.1452C60.1663 58.4702 62.6041 60.6242 64.2756 63.3349C65.9471 66.0455 66.7772 69.191 66.6609 72.3734C66.5446 75.5559 65.4872 78.6323 63.6223 81.2137C61.7573 83.7951 59.1688 85.7655 56.184 86.8756C52.1829 88.3636 47.7547 88.2018 43.873 86.4257C39.9912 84.6496 36.9737 81.4046 35.484 77.4042Z" fill="#EBEBEB"/>
<path d="M58.9436 72.8456C57.1036 77.993 51.694 81.5534 51.694 81.5534C51.694 81.5534 45.6174 79.3362 42.6366 74.75C40.1526 70.9274 40.9162 66.3918 43.9752 65.0624C48.359 63.1534 50.452 70.9366 50.452 70.9366C50.452 70.9366 50.6958 62.882 55.4062 63.7238C58.6906 64.3126 60.4754 68.54 58.9436 72.8456Z" fill="white"/>
<path d="M186.695 139.072C183.66 140.609 180.217 141.145 176.859 140.604C173.501 140.063 170.4 138.472 168.002 136.059C165.604 133.647 164.032 130.537 163.51 127.176C162.989 123.815 163.546 120.375 165.101 117.349C166.656 114.324 169.129 111.869 172.165 110.336C175.202 108.803 178.646 108.272 182.003 108.817C185.361 109.363 188.459 110.958 190.854 113.374C193.249 115.789 194.817 118.901 195.334 122.263C195.87 125.62 195.322 129.06 193.768 132.083C192.214 135.106 189.736 137.554 186.695 139.072Z" fill="#EBEBEB"/>
<path d="M184.46 123.308C184.378 124.272 184.011 125.19 183.406 125.946C182.801 126.702 181.986 127.262 181.063 127.555C180.141 127.847 179.152 127.86 178.222 127.591C177.292 127.321 176.463 126.782 175.84 126.042C175.216 125.301 174.826 124.392 174.719 123.43C174.612 122.468 174.793 121.496 175.239 120.636C175.685 119.777 176.375 119.069 177.223 118.602C178.071 118.135 179.038 117.93 180.003 118.013C181.296 118.124 182.492 118.744 183.328 119.737C184.164 120.73 184.571 122.014 184.46 123.308Z" fill="white"/>
<path d="M186.866 137.08L186.695 139.09C184.03 140.44 181.04 141.019 178.064 140.762C175.087 140.505 172.241 139.423 169.846 137.637L170.016 135.636C170.207 133.401 171.279 131.334 172.994 129.89C174.71 128.445 176.929 127.741 179.163 127.933C181.397 128.124 183.464 129.196 184.909 130.911C186.353 132.627 187.057 134.846 186.866 137.08Z" fill="white"/>
<path d="M156.097 59.5162C164.775 55.06 168.198 44.4123 163.742 35.734C159.286 27.0557 148.638 23.6331 139.96 28.0893C131.281 32.5455 127.859 43.1931 132.315 51.8714C136.771 60.5497 147.419 63.9724 156.097 59.5162Z" fill="#EBEBEB"/>
<path fill-rule="evenodd" clip-rule="evenodd" d="M145.616 50.8209C145.156 50.5265 144.742 50.0987 144.117 50.1585C143.878 50.1585 143.928 49.9837 143.928 49.8549C143.928 47.4997 143.928 45.1491 143.928 42.7939C143.928 42.6237 143.928 42.4857 144.126 42.3891C145.925 41.4691 146.702 39.7027 147.806 38.1755C148.371 37.4192 148.777 36.557 149.002 35.6403C149.226 34.7236 149.264 33.771 149.112 32.8395C149.034 32.3105 149.283 32.0713 149.761 31.9655C150 31.8821 150.26 31.8778 150.502 31.9532C150.744 32.0286 150.955 32.1796 151.104 32.3841C151.62 33.3469 151.967 34.3908 152.13 35.4707C152.231 36.3631 151.914 37.2325 151.804 38.1111C151.721 38.7597 151.569 39.3991 151.445 40.0523C151.606 40.1673 151.785 40.1075 151.955 40.1075H157.935C158.772 40.1075 159.182 40.3467 159.315 40.9033C159.38 41.2458 159.33 41.6001 159.174 41.9118C159.018 42.2234 158.764 42.4751 158.45 42.6283C158.303 42.7019 158.032 42.6283 158.013 42.8675C157.995 43.1067 158.276 43.0791 158.409 43.1757C159.131 43.6679 158.998 44.6891 158.165 45.2733C157.963 45.4159 157.576 45.3515 157.567 45.6459C157.558 45.9403 157.926 45.8759 158.087 46.0415C158.671 46.6165 158.382 47.6883 157.512 48.1207C157.393 48.1575 157.276 48.2021 157.162 48.2541C157.066 48.3231 156.969 48.3967 157.162 48.5301C158.023 49.1465 158.004 50.0021 157.135 50.6277L156.877 50.8117C156.562 51.0007 156.194 51.0815 155.828 51.0417C152.713 51.0417 149.597 51.0417 146.481 51.0417C146.33 51.0657 146.175 51.0585 146.026 51.0205C145.877 50.9826 145.738 50.9146 145.616 50.8209Z" fill="white"/>
<path fill-rule="evenodd" clip-rule="evenodd" d="M136.752 46.6717C136.752 45.1767 136.752 43.6771 136.752 42.1867C136.752 41.8831 136.784 41.7267 137.157 41.7267C138.979 41.7512 140.802 41.7512 142.626 41.7267C142.981 41.7267 143.036 41.8463 143.036 42.1867C143.036 45.1951 143.036 48.2035 143.036 51.2119C143.036 51.5983 142.935 51.7041 142.553 51.6995C140.782 51.6995 139.015 51.6995 137.244 51.6995C136.784 51.6995 136.748 51.5523 136.752 51.1659C136.766 49.6801 136.752 48.1667 136.752 46.6717Z" fill="white"/>
<path d="M78.5728 125.654L44.9974 139.955L32.8994 111.555L45.1446 93.748L66.4748 97.2532L78.5728 125.654Z" fill="#219EBC"/>
<path opacity="0.2" d="M78.5728 125.654L44.9974 139.955L32.8994 111.555L45.1446 93.748L66.4748 97.2532L78.5728 125.654Z" fill="black"/>
<path d="M76.5625 126.183L46.7729 138.869L30.8799 101.559L52.9967 92.1334L63.7699 96.1538L76.5625 126.183Z" fill="#EBEBEB"/>
<path d="M52.9971 92.1334L63.7703 96.1538L56.0975 99.4198L52.9971 92.1334Z" fill="#DBDBDB"/>
<path d="M36.9417 107.709L53.502 100.655L53.0838 99.6735L36.5235 106.727L36.9417 107.709Z" fill="#DBDBDB"/>
<path d="M37.9954 110.189L54.5557 103.136L54.1375 102.154L37.5772 109.207L37.9954 110.189Z" fill="#DBDBDB"/>
<path d="M39.0559 112.668L55.6162 105.614L55.198 104.632L38.6377 111.686L39.0559 112.668Z" fill="#DBDBDB"/>
<path d="M40.1021 115.146L64.3691 104.81L63.951 103.828L39.684 114.164L40.1021 115.146Z" fill="#DBDBDB"/>
<path d="M41.1588 117.626L65.4258 107.29L65.0076 106.308L40.7406 116.644L41.1588 117.626Z" fill="#DBDBDB"/>
<path d="M42.2174 120.104L66.4844 109.769L66.0662 108.787L41.7992 119.123L42.2174 120.104Z" fill="#DBDBDB"/>
<path d="M43.2711 122.58L67.5381 112.245L67.1199 111.263L42.8529 121.598L43.2711 122.58Z" fill="#DBDBDB"/>
<path d="M44.3297 125.059L68.5967 114.723L68.1785 113.741L43.9115 124.077L44.3297 125.059Z" fill="#DBDBDB"/>
<path d="M45.3814 127.539L69.6484 117.203L69.2302 116.222L44.9633 126.557L45.3814 127.539Z" fill="#DBDBDB"/>
<path d="M46.44 130.018L70.707 119.682L70.2888 118.7L46.0218 129.036L46.44 130.018Z" fill="#DBDBDB"/>
<path d="M47.4937 132.494L71.7607 122.158L71.3426 121.176L47.0756 131.512L47.4937 132.494Z" fill="#DBDBDB"/>
<path d="M48.5523 134.968L72.8193 124.632L72.4011 123.65L48.1342 133.986L48.5523 134.968Z" fill="#DBDBDB"/>
<path d="M69.5015 104.365L78.5727 125.654L44.9927 139.955L35.9307 118.68C37.7201 118.882 39.5003 119.14 41.2851 119.365C43.0699 119.591 44.8547 119.858 46.6349 120.124C48.619 120.41 50.6123 120.716 52.6149 121.044L52.6517 120.989C52.6517 120.989 52.6517 121.026 52.6241 121.044L57.0861 121.744C57.9463 120.511 58.8019 119.269 59.6667 118.041C59.6667 118.041 59.6345 118.041 59.6115 118.041H59.6759C60.8259 116.394 61.9835 114.753 63.1489 113.119C64.1946 111.656 65.2465 110.198 66.3045 108.744C67.3579 107.254 68.4067 105.8 69.5015 104.365Z" fill="#219EBC"/>
<g opacity="0.2">
<path d="M69.5015 104.365C68.5539 105.892 67.5603 107.396 66.5943 108.914C65.6283 110.432 64.6163 111.923 63.6181 113.422C62.6199 114.922 61.5205 116.546 60.4671 118.096L60.3751 118.243L57.5553 122.36L57.4127 122.558L57.1781 122.521C55.5359 122.25 53.9029 121.974 52.2653 121.693L52.0905 121.665C50.2505 121.353 48.4105 121.035 46.5337 120.699C44.7673 120.387 42.9963 120.055 41.2253 119.724C39.4543 119.393 37.6925 119.043 35.9307 118.671C37.7201 118.873 39.5003 119.131 41.2851 119.356C43.0699 119.582 44.8547 119.848 46.6349 120.115C48.619 120.4 50.6123 120.707 52.6149 121.035L57.0769 121.734C57.9371 120.502 58.7927 119.26 59.6575 118.031C60.8075 116.385 61.9651 114.744 63.1305 113.109C64.1762 111.647 65.2281 110.188 66.2861 108.735C67.3579 107.254 68.4067 105.8 69.5015 104.365Z" fill="black"/>
<path d="M52.6282 120.98C52.6282 120.98 52.6282 121.017 52.6006 121.035C52.4902 121.261 52.3798 121.495 52.2648 121.707C51.7266 122.779 51.1516 123.827 50.5582 124.858C49.836 126.132 49.0724 127.379 48.3042 128.625C47.536 129.872 46.7402 131.086 45.9122 132.305C45.0842 133.524 44.247 134.711 43.3408 135.866C43.9756 134.541 44.684 133.257 45.4062 131.988C46.1284 130.718 46.892 129.467 47.6556 128.225C48.4192 126.983 49.2242 125.76 50.0522 124.545C50.7054 123.579 51.3816 122.618 52.09 121.684C52.2556 121.468 52.4212 121.252 52.5914 121.04L52.6282 120.98Z" fill="black"/>
<path d="M76.7515 121.606C75.2887 121.458 73.8397 121.238 72.3999 120.994C70.9601 120.75 69.5249 120.465 68.0897 120.18C66.6545 119.894 65.2331 119.554 63.8163 119.195C62.6617 118.905 61.5163 118.597 60.3755 118.243L59.6441 118.013C59.6441 118.013 59.6119 118.013 59.5889 118.013H59.6533C59.9293 118.045 60.1961 118.073 60.4675 118.11C61.6313 118.243 62.7675 118.422 63.9405 118.616C65.3849 118.859 66.8155 119.145 68.2461 119.439C69.6767 119.733 71.1027 120.065 72.5195 120.423C73.9363 120.782 75.3531 121.146 76.7515 121.606Z" fill="black"/>
</g>
<path d="M151.643 91.4388L156.69 89.4517L150.93 74.8282L144.541 77.3444L151.643 91.4388Z" fill="#219EBC"/>
<path d="M144.541 77.3444L147.25 82.7218L151.643 91.4388L156.694 89.4517L150.93 74.8282L144.541 77.3444Z" fill="#219EBC"/>
<path opacity="0.1" d="M144.541 77.3444L147.25 82.7218L153.129 80.4034L150.93 74.8282L144.541 77.3444Z" fill="black"/>
<path d="M144.797 79.7548L152.744 76.6227L150.364 70.5841L142.417 73.7162L144.797 79.7548Z" fill="#219EBC"/>
<path d="M136.224 73.5908L142.646 71.7738L138.795 62.0034L132.861 65.0532L136.224 73.5908Z" fill="#219EBC"/>
<path d="M141.211 58.8156L146.892 73.2366L157.743 70.3938L185.325 69.7682L171.677 35.1348L151.083 53.4934L141.211 58.8156Z" fill="#219EBC"/>
<path d="M185.921 69.6161C189.01 68.3987 188.444 59.621 184.656 50.0107C180.869 40.4004 175.294 33.5967 172.205 34.8142C169.116 36.0317 169.682 44.8094 173.469 54.4196C177.257 64.0299 182.831 70.8336 185.921 69.6161Z" fill="#219EBC"/>
<path opacity="0.2" d="M185.321 67.2535C187.85 66.2568 187.174 58.5318 183.812 49.9993C180.449 41.4668 175.673 35.3579 173.144 36.3546C170.615 37.3513 171.291 45.0763 174.653 53.6088C178.016 62.1412 182.792 68.2502 185.321 67.2535Z" fill="black"/>
<path d="M175.402 53.3279C175.862 54.4641 176.322 55.5589 176.814 56.5939C177.483 56.8076 178.199 56.8268 178.879 56.6491C179.559 56.4715 180.174 56.1043 180.653 55.5905C181.133 55.0766 181.456 54.4372 181.586 53.7467C181.715 53.0562 181.646 52.343 181.386 51.6903L180.742 50.0573C180.488 49.406 180.054 48.84 179.491 48.4248C178.928 48.0095 178.26 47.7618 177.562 47.7104C176.865 47.6589 176.167 47.8057 175.55 48.1339C174.932 48.4621 174.42 48.9582 174.072 49.5651C174.449 50.7887 174.896 52.0491 175.402 53.3279Z" fill="#219EBC"/>
<path d="M141.616 76.2404L154.027 72.726L146.584 53.8292L135.111 59.7264L141.616 76.2404Z" fill="#219EBC"/>
<path opacity="0.2" d="M141.616 76.2404L154.027 72.726L146.584 53.8292L135.111 59.7264L141.616 76.2404Z" fill="black"/>
<path opacity="0.2" d="M170.99 38.1478C170.588 39.4888 170.433 40.8914 170.53 42.2878C170.585 43.6895 170.751 45.0846 171.027 46.46C171.147 47.1546 171.331 47.84 171.487 48.5162C171.643 49.1924 171.86 49.8686 172.071 50.5356C172.283 51.2026 172.494 51.8742 172.738 52.532C172.982 53.1898 173.198 53.8522 173.474 54.5054C174.495 57.1211 175.751 59.6385 177.228 62.0264C177.978 63.2149 178.831 64.3355 179.776 65.3752C180.704 66.4367 181.847 67.2882 183.13 67.873C181.889 67.2255 180.793 66.3317 179.91 65.2464C179.002 64.1901 178.188 63.0573 177.476 61.8608C176.048 59.4677 174.83 56.956 173.833 54.3536C172.773 51.7769 171.928 49.1166 171.308 46.4002C170.994 45.0386 170.787 43.6543 170.691 42.2602C170.552 40.8825 170.653 39.491 170.99 38.1478Z" fill="black"/>
<path d="M183.686 35.1165C183.162 35.7421 182.665 36.3907 182.177 37.0393C181.69 37.6879 181.216 38.3549 180.747 39.0219C180.277 39.6889 179.827 40.3651 179.367 41.0505L178.709 42.0855C178.502 42.4351 178.286 42.7801 178.088 43.1389C178.355 42.8261 178.598 42.5041 178.856 42.1867L179.597 41.2115C180.093 40.5629 180.563 39.9005 181.027 39.2335C181.492 38.5665 181.947 37.8903 182.407 37.2003C182.867 36.5103 183.286 35.8295 183.686 35.1165Z" fill="#263238"/>
<path d="M184 59.3814C184.92 59.432 185.84 59.4412 186.76 59.4458C187.68 59.4504 188.6 59.4458 189.52 59.409C190.44 59.3722 191.36 59.3446 192.28 59.2848L193.66 59.1928C194.12 59.1514 194.58 59.1192 195.04 59.064C194.58 59.0364 194.12 59.0318 193.66 59.0134H192.28C191.36 59.0134 190.44 59.0134 189.52 59.0502C188.6 59.087 187.68 59.1146 186.76 59.1744C185.84 59.2342 184.92 59.2802 184 59.3814Z" fill="#263238"/>
<path d="M199.935 52.8678C198.591 53.0334 197.257 53.2404 195.923 53.4474C194.589 53.6544 193.255 53.9074 191.926 54.1282C190.597 54.349 189.272 54.6158 187.947 54.8872L185.964 55.2966C185.307 55.4484 184.644 55.5864 183.986 55.7566C184.658 55.6784 185.325 55.5772 185.997 55.4852L187.998 55.177C189.332 54.97 190.666 54.717 191.995 54.5008C193.324 54.2846 194.649 54.0086 195.974 53.7372C197.299 53.4658 198.619 53.1852 199.935 52.8678Z" fill="#263238"/>
<path d="M191.13 33.8744C190.15 34.8312 189.193 35.8156 188.246 36.8046C187.298 37.7936 186.364 38.7918 185.435 39.7992C184.506 40.8066 183.595 41.8186 182.675 42.849L181.323 44.3992C180.863 44.9236 180.43 45.4388 179.998 45.9724C180.495 45.5124 180.969 45.0018 181.456 44.5188L182.882 43.0422C183.834 42.0578 184.768 41.055 185.697 40.0476C186.627 39.0402 187.537 38.0236 188.457 36.9932C189.377 35.9628 190.261 34.9324 191.13 33.8744Z" fill="#263238"/>
<path d="M182.418 50.7518C183.913 50.2274 185.39 49.6662 186.866 49.1004C188.343 48.5346 189.806 47.9366 191.278 47.3524C192.75 46.7682 194.203 46.1518 195.657 45.5124L197.837 44.5924C198.559 44.2704 199.282 43.953 199.999 43.6172C199.254 43.8748 198.513 44.1554 197.768 44.4268L195.551 45.2732C194.074 45.839 192.612 46.437 191.14 47.0166C189.668 47.5962 188.214 48.2172 186.76 48.8566C185.307 49.496 183.853 50.0894 182.418 50.7518Z" fill="#263238"/>
<path d="M199.999 142.6H30.001V189.29H199.999V142.6Z" fill="#219EBC"/>
<path d="M199.999 189.29H30.001L31.841 191.553H198.159L199.999 189.29Z" fill="#219EBC"/>
<path opacity="0.1" d="M199.999 189.29H30.001L31.841 191.553H198.159L199.999 189.29Z" fill="black"/>
<path d="M178.986 179.748C178.986 180.042 178.899 180.33 178.735 180.575C178.571 180.82 178.339 181.011 178.067 181.123C177.795 181.236 177.495 181.266 177.206 181.208C176.918 181.151 176.652 181.009 176.444 180.801C176.236 180.592 176.094 180.327 176.036 180.038C175.979 179.749 176.008 179.45 176.121 179.178C176.234 178.906 176.425 178.673 176.67 178.51C176.914 178.346 177.202 178.259 177.497 178.259C177.692 178.259 177.886 178.297 178.067 178.372C178.247 178.447 178.412 178.557 178.55 178.695C178.688 178.833 178.798 178.997 178.873 179.178C178.947 179.359 178.986 179.552 178.986 179.748Z" fill="white"/>
<path d="M184 179.253H171L171.168 178.336C171.281 177.77 171.577 177.256 172.01 176.873L172.696 176.258L174.415 169.635C174.674 168.34 175.924 167.411 177.383 167.411H177.61C179.07 167.411 180.326 168.347 180.578 169.635L182.301 176.258L182.984 176.873C183.421 177.252 183.718 177.768 183.825 178.336L184 179.253Z" fill="white"/>
<path d="M177.384 168.823C177.105 168.823 176.832 168.74 176.6 168.585C176.368 168.43 176.187 168.209 176.08 167.951C175.973 167.694 175.945 167.41 176 167.136C176.054 166.862 176.189 166.611 176.386 166.413C176.583 166.216 176.835 166.082 177.109 166.027C177.382 165.973 177.666 166.001 177.924 166.107C178.182 166.214 178.402 166.395 178.558 166.627C178.713 166.859 178.795 167.132 178.795 167.411C178.795 167.597 178.759 167.78 178.688 167.951C178.617 168.123 178.513 168.278 178.382 168.409C178.251 168.54 178.095 168.644 177.924 168.715C177.753 168.786 177.569 168.823 177.384 168.823ZM177.384 166.851C177.273 166.851 177.165 166.884 177.073 166.946C176.981 167.007 176.909 167.095 176.867 167.197C176.824 167.299 176.813 167.412 176.835 167.521C176.856 167.629 176.91 167.729 176.988 167.807C177.066 167.886 177.166 167.939 177.275 167.961C177.383 167.982 177.496 167.971 177.598 167.929C177.701 167.886 177.788 167.815 177.85 167.722C177.911 167.63 177.944 167.522 177.944 167.411C177.944 167.263 177.885 167.12 177.78 167.015C177.675 166.91 177.533 166.851 177.384 166.851Z" fill="white"/>
<path d="M55.0408 168.091V179H53.283L48.1428 171.569H48.0522V179H46.076V168.091H47.8445L52.9794 175.527H53.0753V168.091H55.0408ZM60.6778 179.16C59.8788 179.16 59.1863 178.984 58.6004 178.632C58.0145 178.281 57.5599 177.789 57.2368 177.157C56.9172 176.525 56.7574 175.786 56.7574 174.941C56.7574 174.096 56.9172 173.355 57.2368 172.72C57.5599 172.084 58.0145 171.591 58.6004 171.239C59.1863 170.887 59.8788 170.712 60.6778 170.712C61.4768 170.712 62.1693 170.887 62.7552 171.239C63.3412 171.591 63.7939 172.084 64.1135 172.72C64.4367 173.355 64.5983 174.096 64.5983 174.941C64.5983 175.786 64.4367 176.525 64.1135 177.157C63.7939 177.789 63.3412 178.281 62.7552 178.632C62.1693 178.984 61.4768 179.16 60.6778 179.16ZM60.6885 177.615C61.1217 177.615 61.4839 177.496 61.7751 177.258C62.0663 177.017 62.2829 176.694 62.425 176.289C62.5706 175.884 62.6434 175.433 62.6434 174.936C62.6434 174.435 62.5706 173.982 62.425 173.577C62.2829 173.169 62.0663 172.844 61.7751 172.603C61.4839 172.361 61.1217 172.24 60.6885 172.24C60.2446 172.24 59.8753 172.361 59.5805 172.603C59.2893 172.844 59.0709 173.169 58.9253 173.577C58.7833 173.982 58.7123 174.435 58.7123 174.936C58.7123 175.433 58.7833 175.884 58.9253 176.289C59.0709 176.694 59.2893 177.017 59.5805 177.258C59.8753 177.496 60.2446 177.615 60.6885 177.615ZM79.0057 168.091V179H77.2479L72.1076 171.569H72.017V179H70.0408V168.091H71.8093L76.9442 175.527H77.0401V168.091H79.0057ZM84.6427 179.16C83.8437 179.16 83.1512 178.984 82.5653 178.632C81.9793 178.281 81.5248 177.789 81.2016 177.157C80.882 176.525 80.7222 175.786 80.7222 174.941C80.7222 174.096 80.882 173.355 81.2016 172.72C81.5248 172.084 81.9793 171.591 82.5653 171.239C83.1512 170.887 83.8437 170.712 84.6427 170.712C85.4417 170.712 86.1341 170.887 86.7201 171.239C87.306 171.591 87.7588 172.084 88.0784 172.72C88.4015 173.355 88.5631 174.096 88.5631 174.941C88.5631 175.786 88.4015 176.525 88.0784 177.157C87.7588 177.789 87.306 178.281 86.7201 178.632C86.1341 178.984 85.4417 179.16 84.6427 179.16ZM84.6533 177.615C85.0866 177.615 85.4488 177.496 85.74 177.258C86.0312 177.017 86.2478 176.694 86.3898 176.289C86.5354 175.884 86.6082 175.433 86.6082 174.936C86.6082 174.435 86.5354 173.982 86.3898 173.577C86.2478 173.169 86.0312 172.844 85.74 172.603C85.4488 172.361 85.0866 172.24 84.6533 172.24C84.2094 172.24 83.8401 172.361 83.5454 172.603C83.2542 172.844 83.0358 173.169 82.8902 173.577C82.7481 173.982 82.6771 174.435 82.6771 174.936C82.6771 175.433 82.7481 175.884 82.8902 176.289C83.0358 176.694 83.2542 177.017 83.5454 177.258C83.8401 177.496 84.2094 177.615 84.6533 177.615ZM94.2853 170.818V172.31H89.5819V170.818H94.2853ZM90.7431 168.858H92.6713V176.539C92.6713 176.798 92.7104 176.997 92.7885 177.136C92.8702 177.271 92.9767 177.363 93.1081 177.413C93.2395 177.462 93.3851 177.487 93.5449 177.487C93.6657 177.487 93.7757 177.478 93.8752 177.461C93.9782 177.443 94.0563 177.427 94.1096 177.413L94.4345 178.92C94.3315 178.956 94.1841 178.995 93.9924 179.037C93.8042 179.08 93.5733 179.105 93.2999 179.112C92.8169 179.126 92.3819 179.053 91.9949 178.893C91.6078 178.73 91.3006 178.478 91.0733 178.137C90.8496 177.796 90.7395 177.37 90.7431 176.859V168.858ZM95.898 179V170.818H97.8263V179H95.898ZM96.8675 169.657C96.5621 169.657 96.2993 169.556 96.0791 169.353C95.8589 169.147 95.7488 168.901 95.7488 168.613C95.7488 168.322 95.8589 168.075 96.0791 167.873C96.2993 167.667 96.5621 167.564 96.8675 167.564C97.1764 167.564 97.4392 167.667 97.6558 167.873C97.876 168.075 97.9861 168.322 97.9861 168.613C97.9861 168.901 97.876 169.147 97.6558 169.353C97.4392 169.556 97.1764 169.657 96.8675 169.657ZM103.953 170.818V172.31H99.1167V170.818H103.953ZM100.326 179V170.046C100.326 169.495 100.439 169.037 100.667 168.672C100.898 168.306 101.206 168.032 101.594 167.851C101.981 167.67 102.41 167.58 102.883 167.58C103.216 167.58 103.513 167.606 103.772 167.659C104.031 167.713 104.223 167.761 104.347 167.803L103.964 169.295C103.882 169.27 103.779 169.245 103.655 169.22C103.531 169.192 103.392 169.178 103.24 169.178C102.881 169.178 102.627 169.265 102.478 169.439C102.332 169.609 102.259 169.854 102.259 170.174V179H100.326ZM105.463 179V170.818H107.392V179H105.463ZM106.433 169.657C106.127 169.657 105.865 169.556 105.645 169.353C105.424 169.147 105.314 168.901 105.314 168.613C105.314 168.322 105.424 168.075 105.645 167.873C105.865 167.667 106.127 167.564 106.433 167.564C106.742 167.564 107.005 167.667 107.221 167.873C107.441 168.075 107.551 168.322 107.551 168.613C107.551 168.901 107.441 169.147 107.221 169.353C107.005 169.556 106.742 169.657 106.433 169.657ZM112.943 179.16C112.127 179.16 111.425 178.98 110.839 178.622C110.257 178.263 109.808 177.768 109.492 177.136C109.179 176.5 109.023 175.768 109.023 174.941C109.023 174.11 109.183 173.377 109.502 172.741C109.822 172.102 110.273 171.605 110.855 171.25C111.441 170.891 112.134 170.712 112.933 170.712C113.597 170.712 114.185 170.834 114.696 171.079C115.211 171.321 115.621 171.663 115.926 172.107C116.232 172.548 116.406 173.062 116.448 173.652H114.605C114.531 173.258 114.353 172.929 114.073 172.667C113.796 172.4 113.425 172.267 112.959 172.267C112.565 172.267 112.219 172.374 111.921 172.587C111.622 172.796 111.39 173.098 111.223 173.492C111.06 173.886 110.978 174.359 110.978 174.909C110.978 175.467 111.06 175.946 111.223 176.347C111.386 176.745 111.615 177.052 111.91 177.269C112.208 177.482 112.558 177.588 112.959 177.588C113.244 177.588 113.497 177.535 113.721 177.429C113.948 177.319 114.138 177.161 114.291 176.955C114.444 176.749 114.549 176.498 114.605 176.203H116.448C116.402 176.782 116.232 177.295 115.937 177.743C115.642 178.187 115.241 178.535 114.733 178.787C114.225 179.036 113.629 179.16 112.943 179.16ZM120.386 179.165C119.868 179.165 119.401 179.073 118.985 178.888C118.573 178.7 118.247 178.423 118.005 178.057C117.767 177.691 117.648 177.24 117.648 176.704C117.648 176.243 117.733 175.861 117.904 175.559C118.074 175.257 118.307 175.016 118.602 174.835C118.896 174.653 119.229 174.517 119.598 174.424C119.971 174.328 120.356 174.259 120.754 174.217C121.233 174.167 121.622 174.123 121.92 174.083C122.219 174.041 122.435 173.977 122.57 173.892C122.709 173.803 122.778 173.666 122.778 173.482V173.45C122.778 173.048 122.659 172.738 122.421 172.517C122.183 172.297 121.84 172.187 121.393 172.187C120.921 172.187 120.546 172.29 120.269 172.496C119.996 172.702 119.811 172.945 119.715 173.226L117.915 172.97C118.057 172.473 118.291 172.058 118.618 171.724C118.944 171.386 119.344 171.134 119.816 170.967C120.289 170.797 120.811 170.712 121.382 170.712C121.776 170.712 122.169 170.758 122.559 170.85C122.95 170.942 123.307 171.095 123.63 171.308C123.953 171.518 124.213 171.804 124.408 172.166C124.607 172.528 124.706 172.981 124.706 173.524V179H122.852V177.876H122.789C122.671 178.103 122.506 178.316 122.293 178.515C122.084 178.711 121.819 178.869 121.499 178.989C121.183 179.107 120.812 179.165 120.386 179.165ZM120.887 177.748C121.274 177.748 121.61 177.672 121.894 177.519C122.178 177.363 122.396 177.157 122.549 176.901C122.705 176.646 122.783 176.367 122.783 176.065V175.101C122.723 175.151 122.62 175.197 122.474 175.239C122.332 175.282 122.172 175.319 121.995 175.351C121.817 175.383 121.642 175.412 121.468 175.436C121.294 175.461 121.143 175.483 121.015 175.5C120.727 175.539 120.47 175.603 120.242 175.692C120.015 175.781 119.836 175.905 119.704 176.065C119.573 176.221 119.507 176.424 119.507 176.672C119.507 177.027 119.637 177.295 119.896 177.477C120.155 177.658 120.486 177.748 120.887 177.748ZM130.731 170.818V172.31H126.027V170.818H130.731ZM127.188 168.858H129.117V176.539C129.117 176.798 129.156 176.997 129.234 177.136C129.316 177.271 129.422 177.363 129.553 177.413C129.685 177.462 129.83 177.487 129.99 177.487C130.111 177.487 130.221 177.478 130.32 177.461C130.423 177.443 130.502 177.427 130.555 177.413L130.88 178.92C130.777 178.956 130.629 178.995 130.438 179.037C130.249 179.08 130.019 179.105 129.745 179.112C129.262 179.126 128.827 179.053 128.44 178.893C128.053 178.73 127.746 178.478 127.519 178.137C127.295 177.796 127.185 177.37 127.188 176.859V168.858ZM132.343 179V170.818H134.272V179H132.343ZM133.313 169.657C133.007 169.657 132.745 169.556 132.524 169.353C132.304 169.147 132.194 168.901 132.194 168.613C132.194 168.322 132.304 168.075 132.524 167.873C132.745 167.667 133.007 167.564 133.313 167.564C133.622 167.564 133.884 167.667 134.101 167.873C134.321 168.075 134.431 168.322 134.431 168.613C134.431 168.901 134.321 169.147 134.101 169.353C133.884 169.556 133.622 169.657 133.313 169.657ZM139.823 179.16C139.024 179.16 138.332 178.984 137.746 178.632C137.16 178.281 136.705 177.789 136.382 177.157C136.063 176.525 135.903 175.786 135.903 174.941C135.903 174.096 136.063 173.355 136.382 172.72C136.705 172.084 137.16 171.591 137.746 171.239C138.332 170.887 139.024 170.712 139.823 170.712C140.622 170.712 141.315 170.887 141.901 171.239C142.487 171.591 142.939 172.084 143.259 172.72C143.582 173.355 143.744 174.096 143.744 174.941C143.744 175.786 143.582 176.525 143.259 177.157C142.939 177.789 142.487 178.281 141.901 178.632C141.315 178.984 140.622 179.16 139.823 179.16ZM139.834 177.615C140.267 177.615 140.629 177.496 140.921 177.258C141.212 177.017 141.428 176.694 141.57 176.289C141.716 175.884 141.789 175.433 141.789 174.936C141.789 174.435 141.716 173.982 141.57 173.577C141.428 173.169 141.212 172.844 140.921 172.603C140.629 172.361 140.267 172.24 139.834 172.24C139.39 172.24 139.021 172.361 138.726 172.603C138.435 172.844 138.216 173.169 138.071 173.577C137.929 173.982 137.858 174.435 137.858 174.936C137.858 175.433 137.929 175.884 138.071 176.289C138.216 176.694 138.435 177.017 138.726 177.258C139.021 177.496 139.39 177.615 139.834 177.615ZM147.309 174.206V179H145.38V170.818H147.223V172.208H147.319C147.508 171.75 147.808 171.386 148.22 171.116C148.635 170.847 149.148 170.712 149.759 170.712C150.324 170.712 150.815 170.832 151.234 171.074C151.657 171.315 151.984 171.665 152.215 172.123C152.449 172.581 152.564 173.137 152.561 173.79V179H150.633V174.089C150.633 173.542 150.491 173.114 150.206 172.805C149.926 172.496 149.537 172.342 149.04 172.342C148.703 172.342 148.402 172.416 148.14 172.565C147.88 172.711 147.676 172.922 147.527 173.199C147.381 173.476 147.309 173.812 147.309 174.206ZM160.988 172.981L159.23 173.173C159.18 172.995 159.093 172.828 158.969 172.672C158.848 172.516 158.685 172.39 158.479 172.294C158.273 172.198 158.021 172.15 157.722 172.15C157.321 172.15 156.984 172.237 156.71 172.411C156.44 172.585 156.307 172.81 156.311 173.087C156.307 173.325 156.394 173.519 156.572 173.668C156.753 173.817 157.051 173.94 157.467 174.036L158.862 174.334C159.636 174.501 160.212 174.765 160.588 175.127C160.968 175.49 161.16 175.964 161.163 176.55C161.16 177.065 161.009 177.519 160.711 177.913C160.416 178.304 160.006 178.609 159.48 178.83C158.955 179.05 158.351 179.16 157.669 179.16C156.668 179.16 155.862 178.95 155.251 178.531C154.64 178.109 154.276 177.521 154.159 176.768L156.039 176.587C156.124 176.956 156.305 177.235 156.582 177.423C156.859 177.612 157.22 177.706 157.664 177.706C158.122 177.706 158.489 177.612 158.766 177.423C159.047 177.235 159.187 177.002 159.187 176.725C159.187 176.491 159.097 176.298 158.916 176.145C158.738 175.992 158.461 175.875 158.085 175.793L156.689 175.5C155.904 175.337 155.324 175.062 154.947 174.675C154.571 174.284 154.384 173.79 154.388 173.194C154.384 172.69 154.521 172.253 154.798 171.884C155.079 171.511 155.467 171.223 155.965 171.021C156.465 170.815 157.042 170.712 157.696 170.712C158.655 170.712 159.409 170.916 159.96 171.324C160.514 171.733 160.856 172.285 160.988 172.981Z" fill="white"/>
<path d="M146.331 72.5972C146.332 72.7061 146.296 72.8121 146.226 72.8963C146.157 72.9806 146.061 73.0376 145.954 73.0572C145.434 73.0848 144.808 73.1032 144.114 73.1262C142.582 68.7838 140.894 65.3062 141.326 66.6632C141.974 68.7766 142.303 70.9752 142.301 73.186L138.653 73.2688C137.434 65.6558 135.751 59.9932 135.815 61.7274C136.082 68.7286 135.608 70.9642 135.056 73.347C126.261 73.5126 114.729 73.6046 106.394 73.4942C105.547 69.2806 104.83 64.7312 104.678 65.044C103.473 67.3762 103.072 70.7986 102.971 73.439C100.317 73.3838 98.1963 73.2918 96.9083 73.1722C96.9083 73.1722 96.3839 69.6348 96.3287 68.4756C96.1805 65.497 96.5844 62.5167 97.5201 59.685C98.4861 56.7778 100.082 54.2294 101.6 51.612C101.612 51.5906 101.626 51.5706 101.642 51.5522C102.642 49.8519 103.437 48.0391 104.011 46.1518C104.014 46.1382 104.014 46.124 104.011 46.1104C104.403 44.7463 104.672 43.3501 104.816 41.9382C105.345 36.777 108.381 32.3886 113.275 31.1558C122.691 22.7654 131.781 26.6524 134.371 33.3546C134.619 34.0078 134.858 34.7346 135.088 35.5672V35.5948C135.949 38.6078 136.68 42.4948 137.388 45.5216C137.388 45.5216 137.388 45.5216 137.388 45.5538C137.647 46.7369 137.979 47.9029 138.382 49.0452C140.553 54.51 145.765 57.7162 146.331 72.5972Z" fill="#263238"/>
<path d="M111.117 32.5036C107.897 34.0768 105.864 36.455 105.266 40.2132C104.916 42.4028 104.709 44.5464 103.807 46.598C102.906 48.6496 101.448 50.4344 99.9802 52.1502C97.6526 54.878 96.0012 57.615 95.5504 61.3042C95.0996 64.9934 95.1502 69.4968 96.3186 73.0388H96.3508C95.4308 69.4554 95.532 64.5288 96.268 60.8212C97.0776 56.7456 99.465 54.234 101.921 51.1888C103.887 48.8161 105.172 45.9543 105.638 42.9088C105.928 41.0688 105.956 39.1138 106.751 37.3888C107.708 35.3188 109.511 34.0308 111.351 32.8946C111.377 32.8792 111.399 32.8588 111.417 32.8348C111.435 32.8107 111.448 32.7834 111.455 32.7544C111.463 32.7253 111.464 32.6951 111.46 32.6655C111.455 32.6359 111.445 32.6074 111.43 32.5818C111.414 32.5561 111.394 32.5337 111.37 32.5159C111.346 32.498 111.318 32.4851 111.289 32.4779C111.26 32.4706 111.23 32.4691 111.201 32.4736C111.171 32.478 111.142 32.4882 111.117 32.5036Z" fill="#263238"/>
<path d="M143.57 54.9792C141.403 51.9892 139.126 49.427 137.912 45.7792C136.803 42.435 136.214 38.916 135.083 35.5718C135.083 35.5608 135.078 35.5503 135.071 35.5425C135.063 35.5348 135.052 35.5304 135.041 35.5304C135.03 35.5304 135.02 35.5348 135.012 35.5425C135.004 35.5503 135 35.5608 135 35.5718C136.72 41.5012 136.923 47.4398 140.58 52.4814C142.567 55.2414 144.559 57.7668 145.828 61.0236C147.116 64.4345 147.74 68.0598 147.668 71.7048C147.668 71.7292 147.678 71.7526 147.695 71.7699C147.713 71.7871 147.736 71.7968 147.76 71.7968C147.785 71.7968 147.808 71.7871 147.825 71.7699C147.843 71.7526 147.852 71.7292 147.852 71.7048C148.572 65.7899 147.044 59.8203 143.57 54.9792Z" fill="#263238"/>
<path d="M114.384 30.1944C114.237 31.4364 108.151 34.0492 104.112 30.6084C100.073 27.1676 102.24 20.9806 107.985 21.965C111.619 22.586 114.701 27.5724 114.384 30.1944Z" fill="#263238"/>
<path d="M102.326 24.863C103.058 23.3781 104.273 22.186 105.772 21.482C106.464 21.1376 107.235 20.9817 108.007 21.0302C108.779 21.0786 109.525 21.3297 110.169 21.758C111.495 22.6862 112.544 23.9585 113.201 25.438C113.558 26.1773 113.849 26.947 114.07 27.738C114.326 28.5334 114.432 29.3694 114.383 30.2036C114.613 29.371 114.659 28.498 114.516 27.646C114.399 26.7863 114.181 25.9433 113.868 25.1344C113.258 23.4557 112.141 22.0086 110.671 20.9944C109.89 20.4879 108.987 20.2033 108.058 20.171C107.14 20.1628 106.237 20.3977 105.44 20.8518C104.677 21.2744 104.007 21.8479 103.471 22.5375C102.936 23.227 102.546 24.0182 102.326 24.863Z" fill="#263238"/>
<path d="M131.647 72.7306C152.425 87.2068 180.605 117.134 177.909 125.456C174.906 134.72 145.751 117.447 146.275 116.067C146.735 114.894 133.602 94.0332 124.048 78.7704C114.494 63.5076 126.5 69.1518 131.647 72.7306Z" fill="#F7A9A0"/>
<path d="M157.006 89.9944L133.312 99.4198C133.312 99.4198 123.652 83.237 120.432 73.807C118.647 68.5216 121.789 67.6522 126.384 69.7222C142.484 76.958 157.006 89.9944 157.006 89.9944Z" fill="#455A64"/>
<path d="M134.693 73.9864C132.139 73.6184 129.548 73.5952 126.988 73.9174C124.918 74.1382 122.848 74.4648 120.801 74.7914C120.746 74.6488 120.695 74.5062 120.645 74.3636C122.733 74.037 124.831 73.715 126.947 73.4896C129.194 73.2182 131.466 73.1997 133.718 73.4344L134.693 73.9864ZM140.632 77.6342C138.953 78.0942 137.269 78.5542 135.572 78.9268C132.936 79.4834 130.24 79.9802 127.568 79.7318C126.231 79.5889 124.918 79.2798 123.658 78.8118C123.152 78.6232 122.65 78.407 122.163 78.1724L122.328 78.5496C122.728 78.7428 123.138 78.9222 123.556 79.0832C124.834 79.5819 126.169 79.9158 127.531 80.0768C128.896 80.1951 130.27 80.1658 131.629 79.9894C132.982 79.8261 134.324 79.588 135.65 79.2764C137.444 78.8624 139.219 78.3564 140.981 77.855L140.632 77.6342ZM151.612 85.5232C149.602 87.2298 147.578 88.918 145.457 90.4774C143.336 92.0368 141.009 93.5962 138.465 94.4564C137.185 94.8641 135.859 95.1129 134.518 95.197C133.27 95.2637 132.017 95.2129 130.778 95.0452L130.935 95.312C132.128 95.4783 133.333 95.5369 134.537 95.4868C135.906 95.4275 137.262 95.191 138.571 94.783C139.868 94.3427 141.113 93.7611 142.283 93.0488C143.456 92.347 144.588 91.5791 145.673 90.7488C147.803 89.148 149.836 87.423 151.846 85.6888L151.612 85.5232ZM150.88 84.9528C149.565 84.9528 148.245 85.0448 146.929 85.1644C145.573 85.3023 144.226 85.5282 142.899 85.8406C140.247 86.5127 137.71 87.5746 135.369 88.9916C133.35 90.1554 131.395 91.4158 129.449 92.6716C129.527 92.805 129.596 92.9292 129.665 93.058C131.625 91.793 133.571 90.5142 135.585 89.378C137.891 87.9816 140.385 86.9235 142.991 86.2362C144.299 85.9136 145.627 85.6754 146.966 85.5232C148.309 85.3852 149.657 85.2886 151.009 85.2656H151.258L150.88 84.9528Z" fill="#37474F"/>
<path d="M153.834 91.2593L133.309 99.4151C133.309 99.4151 123.649 83.2369 120.452 73.8115C119.311 70.4259 120.189 68.8527 122.172 68.7009L153.834 91.2593Z" fill="#37474F"/>
<path d="M132.655 95.358C136.183 93.6054 145.88 89.1296 152.563 87.0458C152.605 87.0458 152.669 87.1838 152.632 87.2022C147.333 89.7736 136.417 94.139 132.751 95.5742C132.682 95.6018 132.59 95.3902 132.655 95.358Z" fill="#263238"/>
<path d="M148.065 142.646H87.6025C87.6025 142.646 90.0543 95.5604 110.543 72.22C116.063 65.9272 124.761 67.459 129.191 72.0498C136.51 79.6398 145.149 96.117 145.806 99.7142C146.892 105.657 143.474 112.079 143.474 112.079L148.065 142.646Z" fill="#455A64"/>
<path d="M144.9 121.693C143.331 122.153 141.749 122.613 140.152 122.981C137.511 123.64 134.818 124.071 132.102 124.269C130.742 124.354 129.378 124.354 128.018 124.269C126.656 124.152 125.311 123.886 124.006 123.478C121.413 122.638 118.939 121.466 116.646 119.991C114.346 118.57 112.125 116.987 109.852 115.511C108.601 114.687 107.331 113.887 106.025 113.155L105.505 112.87C104.617 112.387 103.711 111.95 102.782 111.545C101.545 111.013 100.258 110.603 98.941 110.322C97.6248 110.054 96.2806 109.951 94.939 110.014C94.1988 110.065 93.4627 110.165 92.7356 110.313C92.7678 110.184 92.8 110.055 92.8368 109.926C93.5234 109.794 94.218 109.708 94.916 109.669C96.2877 109.616 97.6606 109.739 99.0008 110.037C100.332 110.34 101.631 110.771 102.879 111.325C103.869 111.761 104.836 112.247 105.777 112.783C105.951 112.875 106.117 112.971 106.287 113.073C107.534 113.795 108.748 114.577 109.94 115.373C112.189 116.891 114.411 118.45 116.729 119.844C119.024 121.303 121.498 122.458 124.089 123.28C125.38 123.669 126.71 123.916 128.054 124.016C129.402 124.081 130.753 124.061 132.098 123.956C134.79 123.721 137.459 123.271 140.079 122.608C141.684 122.222 143.299 121.767 144.854 121.279L144.9 121.693ZM144.647 120.005C143.851 119.545 143.069 119.025 142.296 118.514C140.024 117.038 137.816 115.455 135.502 114.034C133.208 112.562 130.734 111.39 128.142 110.547C126.839 110.139 125.495 109.874 124.135 109.756C122.775 109.671 121.411 109.671 120.05 109.756C117.334 109.954 114.639 110.385 111.996 111.044C109.903 111.545 107.833 112.148 105.781 112.783L105.51 112.87L104.167 113.289C101.577 114.108 99.0146 114.982 96.4018 115.672C94.7162 116.137 92.9966 116.469 91.259 116.665C91.2268 116.812 91.1992 116.955 91.167 117.098C92.9732 116.908 94.7608 116.571 96.5122 116.09C99.7322 115.23 102.869 114.154 106.03 113.155L106.292 113.073C108.21 112.47 110.137 111.9 112.092 111.43C114.712 110.764 117.381 110.312 120.073 110.078C121.417 109.975 122.766 109.955 124.112 110.018C125.457 110.118 126.786 110.365 128.077 110.754C130.658 111.569 133.123 112.715 135.41 114.163C137.733 115.543 139.955 117.116 142.204 118.634C143.018 119.181 143.842 119.72 144.679 120.235L144.647 120.005ZM130.313 73.2779C129.186 73.2779 128.059 73.3745 126.946 73.4895C123.634 73.8437 120.363 74.4095 117.088 74.9247L116.812 74.9661C114.825 75.2697 112.833 75.5365 110.832 75.7021C109.76 75.7895 108.684 75.8585 107.612 75.8907L107.331 76.2771C108.514 76.2771 109.691 76.1897 110.869 76.0977C113.017 75.9229 115.151 75.6377 117.277 75.3341L117.562 75.2927L118.942 75.0811C121.624 74.6717 124.292 74.2025 126.978 73.9173C128.2 73.7799 129.428 73.7062 130.658 73.6965C130.557 73.5539 130.437 73.4159 130.313 73.2779ZM134.78 79.0877C132.392 79.5753 129.963 79.9571 127.553 79.7317C126.216 79.5888 124.903 79.2797 123.643 78.8117C122.383 78.3318 121.173 77.7277 120.032 77.0085C119.176 76.4749 118.348 75.8953 117.548 75.2881L117.088 74.9201C115.91 74.0001 114.788 73.0065 113.67 72.0037C113.169 71.5437 112.677 71.0837 112.18 70.6467L112.074 70.7341L113.56 72.1141C114.618 73.0893 115.69 74.0507 116.812 74.9523C116.964 75.0811 117.116 75.2007 117.272 75.3203C118.122 75.9928 119.004 76.6222 119.917 77.2063C121.065 77.9446 122.282 78.5701 123.551 79.0739C124.828 79.5726 126.164 79.9065 127.525 80.0675C128.891 80.1858 130.265 80.1565 131.624 79.9801C132.771 79.8421 133.903 79.6505 135.019 79.4051L134.78 79.0877ZM142.687 92.3633C141.364 93.2255 139.943 93.928 138.455 94.4563C137.175 94.864 135.849 95.1128 134.508 95.1969C133.162 95.2674 131.812 95.2043 130.479 95.0083C129.476 94.8703 128.487 94.6725 127.507 94.4379L126.96 94.2999C125.506 93.9273 124.075 93.4811 122.654 93.0119C120.073 92.1793 117.534 91.2225 114.931 90.4497C112.335 89.62 109.643 89.1299 106.922 88.9915C105.558 88.9347 104.191 89.0257 102.846 89.2629C101.737 89.4828 100.643 89.7732 99.5712 90.1323L99.4056 90.5187C100.546 90.1152 101.713 89.7879 102.897 89.5389C104.221 89.2838 105.57 89.1774 106.917 89.2215C109.621 89.3363 112.299 89.8001 114.885 90.6015C117.488 91.3467 120.037 92.2713 122.603 93.1545C123.96 93.6145 125.336 94.0745 126.743 94.4379L127.309 94.5851C128.359 94.8562 129.421 95.0742 130.492 95.2383C131.841 95.4515 133.208 95.5316 134.573 95.4775C135.942 95.4182 137.298 95.1817 138.607 94.7737C139.904 94.3334 141.149 93.7518 142.319 93.0395L142.899 92.6853L142.687 92.3633ZM139.683 86.8433C138.196 87.4553 136.753 88.1684 135.364 88.9777C132.48 90.6567 129.72 92.5151 126.96 94.2999L126.725 94.4471C125.032 95.5235 123.321 96.5769 121.555 97.5383C119.196 98.8589 116.735 99.9865 114.195 100.91C112.923 101.359 111.625 101.729 110.308 102.019C108.983 102.269 107.635 102.376 106.287 102.336C103.585 102.219 100.909 101.756 98.3246 100.956C97.4537 100.708 96.5919 100.442 95.7394 100.16C95.7394 100.202 95.7072 100.248 95.6934 100.294C96.549 100.579 97.4092 100.855 98.274 101.113C100.862 101.941 103.546 102.434 106.26 102.58C107.624 102.638 108.991 102.545 110.335 102.304C111.671 102.029 112.987 101.669 114.277 101.228C116.85 100.334 119.34 99.2194 121.72 97.8971C123.615 96.8713 125.451 95.7535 127.268 94.6081C127.351 94.5575 127.433 94.5069 127.512 94.4517C127.912 94.2033 128.307 93.9503 128.703 93.6973C131.003 92.2391 133.239 90.7257 135.603 89.3825C136.991 88.5675 138.434 87.8512 139.922 87.2389C139.84 87.1055 139.766 86.9813 139.692 86.8571L139.683 86.8433ZM146.192 130.235C144.237 129.716 142.233 129.407 140.212 129.315C138.848 129.258 137.481 129.349 136.137 129.587C134.801 129.863 133.485 130.223 132.194 130.663C129.623 131.558 127.133 132.672 124.752 133.993C122.856 135.019 121.016 136.137 119.199 137.282C119.121 137.338 119.038 137.388 118.956 137.439L117.76 138.23C115.46 139.688 113.219 141.197 110.86 142.545L110.68 142.646H111.54C114.259 141.054 116.863 139.302 119.508 137.618L119.742 137.466C121.435 136.39 123.146 135.337 124.913 134.375C127.27 133.053 129.732 131.925 132.273 131.003C133.541 130.55 134.838 130.18 136.155 129.895C137.479 129.64 138.828 129.533 140.175 129.577C142.211 129.648 144.233 129.94 146.206 130.447L146.192 130.235ZM147.83 141.119C147.71 141.169 147.591 141.211 147.471 141.252C146.2 141.703 144.902 142.073 143.584 142.361C142.899 142.495 142.206 142.586 141.509 142.632C140.861 142.678 140.217 142.692 139.568 142.678C139.255 142.678 138.943 142.655 138.648 142.632C136.264 142.44 133.907 141.989 131.619 141.289C129.016 140.544 126.467 139.615 123.901 138.731C122.521 138.271 121.168 137.811 119.761 137.453L119.19 137.301C118.142 137.03 117.081 136.812 116.012 136.648C114.662 136.439 113.296 136.359 111.931 136.408C110.561 136.472 109.204 136.709 107.893 137.112C106.596 137.555 105.351 138.138 104.18 138.851C103.01 139.554 101.88 140.322 100.795 141.151C100.142 141.639 99.4976 142.138 98.8628 142.651H99.4102C99.9346 142.24 100.467 141.836 101.006 141.441C103.191 139.863 105.455 138.322 108.003 137.462C109.281 137.052 110.605 136.803 111.945 136.721C113.291 136.649 114.641 136.711 115.975 136.905C116.973 137.048 117.962 137.241 118.946 137.476L119.526 137.623C120.975 137.986 122.41 138.432 123.832 138.902C126.408 139.739 128.951 140.696 131.555 141.468C133.228 141.98 134.934 142.375 136.661 142.651C137.621 142.8 138.588 142.892 139.559 142.927C140.924 142.984 142.29 142.892 143.635 142.651C144.97 142.376 146.287 142.017 147.577 141.574L147.876 141.468L147.83 141.119Z" fill="#37474F"/>
<path d="M125.019 107.87C127.783 108.141 130.523 108.616 133.217 109.291C134.551 109.646 135.857 110.06 137.163 110.506C137.817 110.727 138.47 110.924 139.128 111.118C139.813 111.344 140.524 111.485 141.244 111.536C141.254 111.539 141.263 111.546 141.269 111.555C141.276 111.563 141.279 111.574 141.279 111.584C141.279 111.595 141.276 111.606 141.269 111.614C141.263 111.623 141.254 111.63 141.244 111.633C140.564 111.66 139.883 111.642 139.206 111.578C138.552 111.494 137.905 111.367 137.269 111.196C135.912 110.851 134.574 110.441 133.221 110.078C130.489 109.351 127.761 108.624 124.987 108.1C124.962 108.09 124.942 108.072 124.928 108.049C124.915 108.026 124.91 107.999 124.913 107.972C124.917 107.946 124.929 107.921 124.949 107.903C124.968 107.884 124.993 107.873 125.019 107.87Z" fill="#263238"/>
<path d="M118.16 110.262C120.441 110.043 122.733 109.952 125.024 109.991C126.169 109.991 127.324 110.106 128.446 110.225C128.989 110.28 129.532 110.349 130.074 110.423C130.617 110.497 131.257 110.667 131.855 110.74C131.919 110.74 131.915 110.842 131.855 110.837C131.289 110.786 130.709 110.837 130.144 110.809L128.432 110.75C127.292 110.713 126.132 110.685 125.005 110.639C122.705 110.538 120.442 110.464 118.156 110.446C118.032 110.446 118.045 110.271 118.16 110.262Z" fill="#263238"/>
<path d="M177.892 125.267C175.532 131.841 165.306 135.755 140.485 148.037C137.048 149.735 118.538 128.717 122.112 126.716C126.616 124.191 144.652 115.377 146.032 114.899C157.836 110.86 179.488 120.805 177.892 125.267Z" fill="#F7A9A0"/>
<path d="M97.0914 154.583C99.5708 156.75 104.392 150.185 104.392 150.185C104.208 151.593 104.522 153.019 105.279 154.22C106.715 156.271 110.56 154.923 110.56 154.923C110.674 156.423 111.235 157.854 112.17 159.031C113.743 160.871 117.814 160.048 117.814 160.048C118.696 161.346 119.994 162.305 121.494 162.766C128.275 164.551 140.226 150.848 142.806 146.206L127.7 123.988C127.7 123.988 110.303 129.048 105.247 134.435C102.455 137.434 93.301 151.271 97.0914 154.583Z" fill="#F7A9A0"/>
<path d="M104.369 150.07C106.237 145.999 109.08 142.384 111.858 138.92C111.918 138.846 112.037 138.943 111.978 139.021C109.172 142.43 107.212 146.671 104.549 150.185C104.475 150.282 104.319 150.181 104.369 150.07Z" fill="#263238"/>
<path d="M110.4 154.615C110.914 153.731 111.542 152.917 112.267 152.196C112.985 151.386 113.721 150.59 114.466 149.808C115.957 148.235 117.49 146.702 119.066 145.208C119.135 145.144 119.255 145.208 119.186 145.305C117.7 146.873 116.242 148.465 114.825 150.098C114.112 150.912 113.413 151.736 112.714 152.564C112.108 153.385 111.412 154.137 110.639 154.804C110.614 154.835 110.577 154.856 110.537 154.861C110.497 154.865 110.457 154.854 110.425 154.829C110.393 154.804 110.373 154.767 110.368 154.727C110.363 154.687 110.375 154.647 110.4 154.615Z" fill="#263238"/>
<path d="M117.879 159.979C118.238 159.174 119.062 158.511 119.673 157.89C120.373 157.191 121.053 156.483 121.748 155.774C123.128 154.358 124.508 152.936 125.819 151.469C125.883 151.395 126.003 151.492 125.939 151.565C124.6 153.065 123.284 154.578 121.932 156.064C121.27 156.791 120.603 157.516 119.931 158.24C119.361 158.852 118.717 159.684 117.948 160.052C117.938 160.056 117.927 160.056 117.917 160.054C117.907 160.051 117.897 160.046 117.89 160.038C117.883 160.03 117.878 160.021 117.876 160.01C117.874 159.999 117.875 159.989 117.879 159.979Z" fill="#263238"/>
<path d="M158.438 114.48C156.377 113.882 150.696 112.723 146.059 114.848C146.05 114.853 146.042 114.861 146.037 114.87C146.033 114.88 146.032 114.891 146.035 114.901C146.037 114.912 146.044 114.921 146.052 114.927C146.061 114.933 146.072 114.936 146.082 114.936C150.075 113.753 156.373 114.149 158.42 114.563C158.431 114.565 158.442 114.563 158.452 114.557C158.461 114.551 158.468 114.542 158.47 114.531C158.473 114.52 158.471 114.508 158.465 114.499C158.459 114.489 158.449 114.483 158.438 114.48Z" fill="#263238"/>
<path d="M114.08 77.1374C113.224 86.9032 100.078 131.086 79.4787 137.821C72.4867 140.121 62.1367 112.613 64.6713 80.3988C64.7449 79.4466 86.4247 74.5568 88.2187 79.5386C88.4119 80.0722 90.0587 94.4104 89.4469 94.2586C88.6695 94.0746 95.2567 86.8296 106.062 74.9018C111.182 69.2668 114.604 71.3 114.08 77.1374Z" fill="#F7A9A0"/>
<path d="M89.0884 93.1316C89.9394 100.469 90.6432 107.852 91.1446 115.212C91.2826 117.268 91.4436 119.319 91.6046 121.376C91.6046 121.449 91.7288 121.435 91.7288 121.376C91.8637 117.68 91.8054 113.979 91.554 110.29C91.3102 106.637 90.9882 102.93 90.3856 99.3324C90.0406 97.2532 89.6634 95.1924 89.2402 93.1224C89.208 93.012 89.0792 93.0442 89.0884 93.1316Z" fill="#263238"/>
<path d="M64.6346 86.7652C62.8866 84.4652 55.798 73.209 54.5146 69.6348C53.2312 66.0606 50.3286 55.5128 52.969 54.2616C55.6094 53.0104 56.7042 56.028 56.7042 56.028C56.7042 56.028 56.1798 51.382 58.949 50.3608C61.7182 49.3396 63.2776 54.1006 63.2776 54.1006C63.2776 54.1006 63.0844 49.2844 65.918 48.4702C68.7516 47.656 69.5198 52.693 69.5198 52.693C69.5198 52.693 69.138 48.3 71.76 48.6082C74.911 48.9808 74.6948 57.1596 76.3968 61.0006C76.7786 61.87 85.4772 78.1126 85.4772 78.1126L64.6346 86.7652Z" fill="#F7A9A0"/>
<path d="M69.4598 52.2606C69.3172 58.2774 70.2924 60.9316 73.333 66.0146C73.3928 66.1112 73.2594 66.2262 73.1858 66.125C69.7588 61.4192 68.0522 58.2682 69.17 52.2422C69.2206 51.9432 69.4598 51.98 69.4598 52.2606Z" fill="#263238"/>
<path d="M63.3094 53.6222C63.705 59.8828 64.74 62.7716 67.5322 68.3422C67.5736 68.4204 67.4448 68.494 67.3988 68.4204C64.1788 63.1994 62.5688 60.0116 62.9966 53.7004C63.0196 53.406 63.291 53.36 63.3094 53.6222Z" fill="#263238"/>
<path d="M56.8701 56.3086C57.6889 62.3392 58.7101 65.5592 62.0911 70.6054C62.1058 70.6287 62.1112 70.6567 62.1063 70.6838C62.1014 70.7109 62.0865 70.7352 62.0646 70.7519C62.0427 70.7686 62.0154 70.7765 61.9879 70.7741C61.9605 70.7717 61.935 70.7591 61.9163 70.7388C57.9419 65.9318 56.6677 61.9252 56.6907 56.3546C56.6907 55.9728 56.8195 55.9268 56.8701 56.3086Z" fill="#263238"/>
<path d="M77.74 36.9885H61.1478C60.6984 36.9934 60.2693 37.1763 59.9546 37.497C59.6398 37.8178 59.4651 38.2503 59.4688 38.6997V72.8409C59.4651 73.2903 59.6398 73.7228 59.9546 74.0436C60.2693 74.3644 60.6984 74.5473 61.1478 74.5521H77.74C78.1894 74.5473 78.6185 74.3644 78.9333 74.0436C79.248 73.7228 79.4227 73.2903 79.419 72.8409V38.6997C79.4227 38.2503 79.248 37.8178 78.9333 37.497C78.6185 37.1763 78.1894 36.9934 77.74 36.9885ZM78.3702 71.7875C78.3782 71.9929 78.3456 72.1979 78.2744 72.3908C78.2031 72.5836 78.0945 72.7605 77.9548 72.9113C77.815 73.0621 77.647 73.1839 77.4602 73.2697C77.2733 73.3555 77.0714 73.4036 76.866 73.4113H62.0218C61.6073 73.3946 61.2164 73.2143 60.9345 72.91C60.6526 72.6057 60.5027 72.2021 60.5176 71.7875V39.9923C60.5176 38.1523 61.1938 38.0741 62.0218 38.0741H64.998C65.1682 38.0741 65.3108 38.2719 65.3108 38.5341V38.6399C65.3108 39.2103 65.6236 39.2149 66.0054 39.2149H72.8778C73.2642 39.2149 73.577 39.2149 73.577 38.6399V38.5341C73.577 38.2949 73.715 38.0741 73.8898 38.0741H76.8614C77.694 38.0741 78.3656 38.3179 78.3656 39.9923L78.3702 71.7875Z" fill="#37474F"/>
<path d="M78.3656 40.02V71.8152C78.3736 72.0206 78.341 72.2256 78.2698 72.4185C78.1985 72.6113 78.0899 72.7882 77.9502 72.939C77.8105 73.0898 77.6424 73.2116 77.4556 73.2974C77.2688 73.3832 77.0668 73.4313 76.8614 73.439H62.0264C61.6111 73.4234 61.219 73.2437 60.9361 72.9393C60.6532 72.6348 60.5027 72.2305 60.5176 71.8152V40.02C60.5176 38.18 61.1938 38.1018 62.0264 38.1018H64.998C65.1682 38.1018 65.3108 38.2996 65.3108 38.5618V38.64C65.3108 39.2104 65.6236 39.215 66.0054 39.215H72.8778C73.2642 39.215 73.577 39.215 73.577 38.64V38.5342C73.577 38.295 73.715 38.0742 73.8898 38.0742H76.8614C77.694 38.1018 78.3656 38.3456 78.3656 40.02Z" fill="#219EBC"/>
<path opacity="0.2" d="M78.3661 44.0771V71.8151C78.3741 72.0206 78.3415 72.2256 78.2702 72.4184C78.1989 72.6112 78.0903 72.7881 77.9506 72.9389C77.8109 73.0897 77.6428 73.2115 77.456 73.2973C77.2692 73.3831 77.0673 73.4312 76.8619 73.4389H62.0269C61.8214 73.4312 61.6195 73.3831 61.4327 73.2973C61.2459 73.2115 61.0778 73.0897 60.9381 72.9389C60.7984 72.7881 60.6898 72.6112 60.6185 72.4184C60.5472 72.2256 60.5147 72.0206 60.5227 71.8151V51.0047C64.4281 50.5033 68.3427 56.2074 71.9859 54.5283C75.3117 52.9873 75.1599 48.1159 76.3973 45.8941C76.8397 45.0915 77.5305 44.4539 78.3661 44.0771Z" fill="white"/>
<path opacity="0.2" d="M78.3661 62.3392V71.8152C78.3741 72.0206 78.3415 72.2256 78.2702 72.4184C78.1989 72.6112 78.0903 72.7881 77.9506 72.9389C77.8109 73.0897 77.6428 73.2115 77.456 73.2973C77.2692 73.3831 77.0673 73.4313 76.8619 73.439H62.0269C61.8214 73.4313 61.6195 73.3831 61.4327 73.2973C61.2459 73.2115 61.0778 73.0897 60.9381 72.9389C60.7984 72.7881 60.6898 72.6112 60.6185 72.4184C60.5472 72.2256 60.5147 72.0206 60.5227 71.8152V59.4274C62.6387 63.1304 65.0123 64.1976 67.1697 63.6502C69.6353 63.0246 73.1497 59.8322 76.4801 60.9454C77.2382 61.2028 77.8974 61.69 78.3661 62.3392Z" fill="white"/>
<path d="M70.3805 38.479H68.5037C68.4732 38.479 68.4439 38.4669 68.4224 38.4453C68.4008 38.4237 68.3887 38.3945 68.3887 38.364C68.3886 38.333 68.4006 38.3033 68.4221 38.281C68.4435 38.2587 68.4728 38.2456 68.5037 38.2444H70.3805C70.4114 38.2456 70.4406 38.2587 70.4621 38.281C70.4835 38.3033 70.4955 38.333 70.4955 38.364C70.4955 38.3945 70.4834 38.4237 70.4618 38.4453C70.4402 38.4669 70.411 38.479 70.3805 38.479Z" fill="#263238"/>
<path d="M64.4829 38.7871L64.4553 38.8147C64.4196 38.7778 64.3766 38.7485 64.3292 38.7287C64.2817 38.7089 64.2307 38.6991 64.1793 38.6997C64.0758 38.7005 63.9767 38.7418 63.9033 38.8147L63.8711 38.7871C63.8811 38.7741 63.8936 38.7631 63.9079 38.7549C63.9317 38.7314 63.9598 38.7127 63.9907 38.6997C64.0251 38.6813 64.0625 38.6689 64.1011 38.6629H64.1563H64.2437C64.2771 38.656 64.3115 38.656 64.3449 38.6629L64.4139 38.6951C64.4371 38.7078 64.4588 38.7232 64.4783 38.7411L64.5105 38.7687L64.4829 38.7871Z" fill="#263238"/>
<path d="M63.9767 38.9206L63.9307 38.8792C63.9797 38.8283 64.0446 38.7958 64.1147 38.7872C64.1647 38.7777 64.2163 38.7812 64.2646 38.7973C64.3129 38.8134 64.3563 38.8416 64.3907 38.8792L64.3447 38.9206C64.2951 38.8733 64.2292 38.847 64.1607 38.847C64.0922 38.847 64.0263 38.8733 63.9767 38.9206Z" fill="#263238"/>
<path d="M64.3031 38.9666L64.2571 39.0126C64.2303 38.9893 64.196 38.9764 64.1605 38.9764C64.125 38.9764 64.0907 38.9893 64.0639 39.0126L64.0225 38.9666C64.0602 38.9303 64.1105 38.91 64.1628 38.91C64.2151 38.91 64.2654 38.9303 64.3031 38.9666Z" fill="#263238"/>
<path d="M64.2005 39.0532C64.2005 39.0613 64.1981 39.0691 64.1936 39.0758C64.1892 39.0825 64.1828 39.0877 64.1754 39.0908C64.1679 39.0939 64.1598 39.0947 64.1519 39.0931C64.144 39.0916 64.1367 39.0877 64.1311 39.082C64.1254 39.0763 64.1215 39.0691 64.1199 39.0612C64.1184 39.0533 64.1192 39.0451 64.1222 39.0377C64.1253 39.0302 64.1305 39.0239 64.1372 39.0194C64.1439 39.015 64.1518 39.0126 64.1598 39.0126C64.1706 39.0126 64.1809 39.0169 64.1886 39.0245C64.1962 39.0321 64.2005 39.0425 64.2005 39.0532Z" fill="#263238"/>
<path d="M61.6816 38.8746C61.6816 38.851 61.6887 38.8278 61.7018 38.8082C61.7149 38.7885 61.7336 38.7732 61.7555 38.7641C61.7773 38.7551 61.8014 38.7527 61.8246 38.7573C61.8478 38.7619 61.8691 38.7733 61.8858 38.79C61.9025 38.8068 61.9139 38.8281 61.9185 38.8513C61.9232 38.8745 61.9208 38.8985 61.9117 38.9204C61.9027 38.9422 61.8874 38.9609 61.8677 38.974C61.848 38.9872 61.8249 38.9942 61.8012 38.9942C61.7695 38.9942 61.7391 38.9816 61.7167 38.9592C61.6942 38.9367 61.6816 38.9063 61.6816 38.8746Z" fill="#263238"/>
<path d="M62.0537 38.8746C62.0537 38.851 62.0607 38.8278 62.0739 38.8082C62.087 38.7885 62.1057 38.7732 62.1275 38.7641C62.1494 38.7551 62.1734 38.7527 62.1966 38.7573C62.2198 38.7619 62.2412 38.7733 62.2579 38.79C62.2746 38.8068 62.286 38.8281 62.2906 38.8513C62.2952 38.8745 62.2929 38.8985 62.2838 38.9204C62.2748 38.9422 62.2594 38.9609 62.2398 38.974C62.2201 38.9872 62.197 38.9942 62.1733 38.9942C62.1416 38.9942 62.1112 38.9816 62.0887 38.9592C62.0663 38.9367 62.0537 38.9063 62.0537 38.8746Z" fill="#263238"/>
<path d="M62.5464 38.9942C62.6124 38.9942 62.666 38.9407 62.666 38.8746C62.666 38.8086 62.6124 38.755 62.5464 38.755C62.4803 38.755 62.4268 38.8086 62.4268 38.8746C62.4268 38.9407 62.4803 38.9942 62.5464 38.9942Z" fill="#263238"/>
<path d="M62.9184 38.9942C62.9845 38.9942 63.038 38.9407 63.038 38.8746C63.038 38.8086 62.9845 38.755 62.9184 38.755C62.8524 38.755 62.7988 38.8086 62.7988 38.8746C62.7988 38.9407 62.8524 38.9942 62.9184 38.9942Z" fill="#263238"/>
<path d="M63.2915 38.9942C63.3575 38.9942 63.4111 38.9407 63.4111 38.8746C63.4111 38.8086 63.3575 38.755 63.2915 38.755C63.2254 38.755 63.1719 38.8086 63.1719 38.8746C63.1719 38.9407 63.2254 38.9942 63.2915 38.9942Z" fill="#263238"/>
<path d="M77.0268 39.1322H76.0654V38.6722H77.0268V39.1322ZM76.1068 39.0816H76.9716V38.7366H76.1068V39.0816Z" fill="#263238"/>
<path d="M76.7646 38.7642H76.1436V39.0586H76.7646V38.7642Z" fill="#263238"/>
<path d="M77.1147 38.7917H77.0273V39.0309H77.1147V38.7917Z" fill="#263238"/>
<path d="M70.0354 54.7768C70.0363 54.8952 70.0017 55.011 69.9362 55.1096C69.8707 55.2081 69.7773 55.2849 69.6679 55.3299C69.5584 55.3749 69.438 55.3862 69.3221 55.3623C69.2063 55.3384 69.1002 55.2804 69.0175 55.1957C68.9348 55.1111 68.8793 55.0036 68.8582 54.8872C68.837 54.7708 68.8512 54.6507 68.8988 54.5424C68.9464 54.434 69.0253 54.3424 69.1254 54.2793C69.2255 54.2161 69.3421 54.1844 69.4604 54.188C69.6142 54.1916 69.7604 54.2553 69.8679 54.3653C69.9753 54.4753 70.0355 54.623 70.0354 54.7768Z" fill="white"/>
<path d="M72.0225 54.579H66.8613L66.9303 54.2156C66.9752 53.9907 67.0933 53.7869 67.2661 53.636L67.5375 53.3922L68.2183 50.761C68.2845 50.5007 68.438 50.271 68.6531 50.1102C68.8683 49.9495 69.1321 49.8674 69.4005 49.8778H69.4879C69.7557 49.8677 70.0189 49.9499 70.2333 50.1107C70.4477 50.2715 70.6003 50.5011 70.6655 50.761L71.3509 53.3922L71.6223 53.636C71.7954 53.786 71.9122 53.9904 71.9535 54.2156L72.0225 54.579Z" fill="white"/>
<path d="M69.3998 50.439C69.2886 50.4399 69.1796 50.4078 69.0868 50.3467C68.9939 50.2856 68.9212 50.1983 68.878 50.0958C68.8349 49.9933 68.8231 49.8804 68.8442 49.7712C68.8653 49.662 68.9184 49.5616 68.9967 49.4827C69.075 49.4037 69.175 49.3498 69.284 49.3278C69.393 49.3057 69.5061 49.3166 69.6089 49.3589C69.7117 49.4013 69.7996 49.4732 69.8615 49.5656C69.9233 49.658 69.9564 49.7666 69.9564 49.8778C69.9564 50.0259 69.8979 50.1679 69.7936 50.273C69.6894 50.3782 69.5478 50.4378 69.3998 50.439ZM69.3998 49.657C69.3548 49.6561 69.3106 49.6687 69.2729 49.6931C69.2351 49.7175 69.2055 49.7527 69.1879 49.794C69.1702 49.8354 69.1654 49.8811 69.1739 49.9252C69.1825 49.9694 69.204 50.01 69.2358 50.0418C69.2676 50.0736 69.3082 50.0951 69.3524 50.1037C69.3965 50.1122 69.4422 50.1074 69.4836 50.0897C69.525 50.0721 69.5601 50.0425 69.5845 50.0048C69.6089 49.967 69.6215 49.9228 69.6206 49.8778C69.6139 49.8237 69.5879 49.7739 69.5473 49.7375C69.5067 49.7012 69.4543 49.6807 69.3998 49.68V49.657Z" fill="white"/>
<path d="M69.4603 58.2313C68.2957 58.2313 67.1573 57.886 66.1891 57.239C65.2208 56.592 64.4661 55.6725 64.0205 54.5966C63.5748 53.5207 63.4582 52.3368 63.6854 51.1946C63.9126 50.0525 64.4734 49.0033 65.2968 48.1799C66.1203 47.3564 67.1694 46.7957 68.3116 46.5685C69.4537 46.3413 70.6376 46.4579 71.7135 46.9035C72.7894 47.3492 73.709 48.1039 74.356 49.0721C75.0029 50.0404 75.3483 51.1788 75.3483 52.3433C75.347 53.9045 74.7263 55.4015 73.6224 56.5054C72.5184 57.6094 71.0215 58.2301 69.4603 58.2313ZM69.4603 46.9153C68.3867 46.9153 67.3373 47.2337 66.4446 47.8301C65.552 48.4265 64.8563 49.2743 64.4454 50.2661C64.0346 51.258 63.9271 52.3493 64.1366 53.4023C64.346 54.4552 64.863 55.4224 65.6221 56.1815C66.3812 56.9406 67.3484 57.4576 68.4013 57.667C69.4542 57.8765 70.5456 57.769 71.5375 57.3581C72.5293 56.9473 73.377 56.2516 73.9735 55.359C74.5699 54.4663 74.8883 53.4169 74.8883 52.3433C74.8858 50.9049 74.313 49.5262 73.2955 48.5095C72.2779 47.4928 70.8987 46.9211 69.4603 46.9199V46.9153Z" fill="white"/>
<path d="M64.0041 61.7504C64.0213 61.7336 64.0444 61.7241 64.0685 61.7241C64.0926 61.7241 64.1157 61.7336 64.1329 61.7504C64.2267 61.8313 64.3449 61.8783 64.4687 61.8838C64.5473 61.8865 64.6247 61.8639 64.6895 61.8194C64.7112 61.8054 64.7292 61.7864 64.742 61.764C64.7548 61.7416 64.762 61.7164 64.7631 61.6906C64.7678 61.6725 64.7678 61.6535 64.7631 61.6354C64.748 61.6153 64.7293 61.5981 64.7079 61.5848C64.6346 61.5412 64.5532 61.513 64.4687 61.502C64.3911 61.488 64.3154 61.4648 64.2433 61.433C64.1758 61.4041 64.1183 61.3562 64.0777 61.295C64.0496 61.2512 64.0352 61.1999 64.0363 61.1478C64.0386 61.0974 64.0527 61.0483 64.0774 61.0043C64.1022 60.9604 64.137 60.9229 64.1789 60.8948C64.2675 60.8316 64.3737 60.7978 64.4825 60.7982C64.6228 60.8053 64.7576 60.8551 64.8689 60.9408C64.8878 60.9547 64.9008 60.9753 64.9051 60.9983C64.9093 61.0214 64.9046 61.0453 64.8919 61.065C64.8787 61.0847 64.8585 61.0986 64.8353 61.1038C64.8122 61.1089 64.788 61.1049 64.7677 61.0926C64.6861 61.0269 64.5868 60.9869 64.4825 60.9776C64.4121 60.9777 64.3433 60.9985 64.2847 61.0374C64.2663 61.0498 64.251 61.0662 64.2399 61.0853C64.2287 61.1044 64.222 61.1258 64.2203 61.1478C64.215 61.1643 64.215 61.182 64.2203 61.1984C64.2338 61.2171 64.251 61.2328 64.2709 61.2444C64.3374 61.2839 64.4107 61.3105 64.4871 61.3226C64.5709 61.3375 64.6528 61.3622 64.7309 61.3962C64.8024 61.427 64.8632 61.4782 64.9057 61.5434C64.9347 61.5871 64.9506 61.6382 64.9517 61.6906C64.9501 61.7454 64.9355 61.799 64.9091 61.847C64.8827 61.895 64.8453 61.936 64.7999 61.9666C64.7045 62.0341 64.5901 62.0695 64.4733 62.0678C64.3041 62.0617 64.142 61.9984 64.0133 61.8884C64.0022 61.881 63.993 61.8711 63.9863 61.8595C63.9796 61.848 63.9757 61.835 63.9748 61.8217C63.9739 61.8084 63.9761 61.795 63.9812 61.7826C63.9862 61.7703 63.9941 61.7593 64.0041 61.7504Z" fill="white"/>
<path d="M65.7248 62.0586C65.5901 62.0574 65.4614 62.0031 65.3667 61.9074C65.2719 61.8118 65.2187 61.6826 65.2188 61.548V60.9224C65.2188 60.9097 65.2213 60.8971 65.2261 60.8854C65.231 60.8737 65.2381 60.8631 65.247 60.8541C65.256 60.8451 65.2667 60.838 65.2784 60.8331C65.2901 60.8283 65.3027 60.8258 65.3154 60.8258C65.341 60.8258 65.3655 60.836 65.3837 60.8541C65.4018 60.8722 65.4119 60.8968 65.4119 60.9224V61.548C65.4119 61.631 65.4449 61.7105 65.5036 61.7692C65.5622 61.8278 65.6418 61.8608 65.7248 61.8608C65.8077 61.8608 65.8873 61.8278 65.9459 61.7692C66.0046 61.7105 66.0375 61.631 66.0375 61.548V60.9224C66.0375 60.9093 66.0402 60.8964 66.0453 60.8843C66.0505 60.8723 66.058 60.8614 66.0675 60.8524C66.0769 60.8434 66.0881 60.8364 66.1004 60.8318C66.1126 60.8272 66.1257 60.8252 66.1388 60.8258C66.1644 60.8258 66.1889 60.836 66.2071 60.8541C66.2252 60.8722 66.2354 60.8968 66.2354 60.9224V61.548C66.2354 61.615 66.2221 61.6814 66.1965 61.7434C66.1708 61.8053 66.1332 61.8616 66.0858 61.909C66.0384 61.9565 65.9821 61.9941 65.9201 62.0197C65.8582 62.0454 65.7918 62.0586 65.7248 62.0586Z" fill="white"/>
<path d="M66.6445 61.962V60.9224C66.6445 60.9093 66.6472 60.8964 66.6523 60.8843C66.6574 60.8723 66.665 60.8614 66.6744 60.8524C66.6839 60.8434 66.6951 60.8364 66.7073 60.8318C66.7196 60.8272 66.7327 60.8252 66.7457 60.8258H66.9941C67.0832 60.8258 67.1686 60.8612 67.2316 60.9242C67.2946 60.9871 67.3299 61.0725 67.3299 61.1616C67.3289 61.2333 67.3047 61.3027 67.2609 61.3594C67.315 61.3942 67.3597 61.4418 67.391 61.4979C67.4222 61.5541 67.4392 61.6171 67.4403 61.6814C67.4403 61.7814 67.4006 61.8774 67.3298 61.9481C67.2591 62.0189 67.1632 62.0586 67.0631 62.0586H66.7457C66.7197 62.0586 66.6946 62.0486 66.6757 62.0306C66.6569 62.0126 66.6457 61.988 66.6445 61.962ZM66.8423 61.3042H66.9941C67.0319 61.3042 67.0682 61.2892 67.095 61.2624C67.1217 61.2357 67.1367 61.1994 67.1367 61.1616C67.1367 61.1238 67.1217 61.0875 67.095 61.0608C67.0682 61.034 67.0319 61.019 66.9941 61.019H66.8423V61.3042ZM66.8423 61.8654H67.0631C67.1119 61.8654 67.1587 61.846 67.1932 61.8115C67.2277 61.777 67.2471 61.7302 67.2471 61.6814C67.2471 61.6326 67.2277 61.5858 67.1932 61.5513C67.1587 61.5168 67.1119 61.4974 67.0631 61.4974H66.8423V61.8654Z" fill="white"/>
<path d="M67.6526 61.7504C67.6698 61.7336 67.693 61.7241 67.717 61.7241C67.7411 61.7241 67.7642 61.7336 67.7814 61.7504C67.8752 61.8313 67.9935 61.8783 68.1172 61.8838C68.1959 61.8872 68.2735 61.8645 68.338 61.8194C68.3611 61.8066 68.3805 61.788 68.3942 61.7654C68.408 61.7428 68.4155 61.717 68.4162 61.6906C68.4229 61.6728 68.4229 61.6532 68.4162 61.6354C68.403 61.6152 68.3858 61.598 68.3656 61.5848C68.291 61.5406 68.208 61.5124 68.1218 61.502C68.0446 61.4867 67.969 61.4636 67.8964 61.433C67.8311 61.4008 67.7743 61.3535 67.7308 61.295C67.7063 61.2499 67.6936 61.1992 67.694 61.1478C67.6965 61.098 67.7102 61.0493 67.7341 61.0055C67.758 60.9617 67.7915 60.9239 67.832 60.8948C67.9223 60.8316 68.03 60.7978 68.1402 60.7982C68.2792 60.8051 68.4126 60.8549 68.522 60.9408C68.5325 60.9468 68.5415 60.955 68.5484 60.9648C68.5554 60.9746 68.5601 60.9858 68.5623 60.9976C68.5645 61.0094 68.5641 61.0216 68.5611 61.0332C68.5581 61.0449 68.5526 61.0557 68.545 61.065C68.5389 61.0753 68.5308 61.0841 68.5212 61.0911C68.5115 61.0981 68.5005 61.103 68.4889 61.1056C68.4773 61.1082 68.4652 61.1084 68.4535 61.1062C68.4418 61.1039 68.4307 61.0993 68.4208 61.0926C68.3414 61.0262 68.2434 60.9861 68.1402 60.9776C68.0698 60.9772 68.0008 60.998 67.9424 61.0374C67.923 61.049 67.9066 61.0651 67.8946 61.0843C67.8826 61.1035 67.8753 61.1253 67.8734 61.1478C67.8682 61.1643 67.8682 61.182 67.8734 61.1984C67.885 61.2171 67.9008 61.2328 67.9194 61.2444C67.9873 61.2846 68.0623 61.3111 68.1402 61.3226C68.2238 61.3389 68.3055 61.3635 68.384 61.3962C68.4538 61.4298 68.5139 61.4804 68.5588 61.5434C68.5864 61.5875 68.6008 61.6386 68.6002 61.6906C68.5987 61.7454 68.5841 61.799 68.5577 61.847C68.5313 61.895 68.4938 61.936 68.4484 61.9666C68.3533 62.0347 68.2388 62.0702 68.1218 62.0678C67.9529 62.0606 67.7911 61.9975 67.6618 61.8884C67.652 61.8801 67.644 61.8698 67.6382 61.8583C67.6324 61.8468 67.629 61.8342 67.6281 61.8214C67.6273 61.8085 67.629 61.7956 67.6332 61.7834C67.6374 61.7712 67.644 61.76 67.6526 61.7504Z" fill="white"/>
<path d="M68.8115 61.4238C68.8151 61.2549 68.8844 61.0942 69.0047 60.9756C69.1249 60.8571 69.2867 60.7901 69.4555 60.789C69.6036 60.7876 69.7479 60.8362 69.8649 60.927C69.8863 60.9434 69.9002 60.9677 69.9037 60.9945C69.9071 61.0212 69.8998 61.0482 69.8833 61.0696C69.8669 61.0909 69.8426 61.1049 69.8158 61.1083C69.7891 61.1118 69.7621 61.1044 69.7407 61.088C69.6592 61.0247 69.5587 60.9907 69.4555 60.9914C69.3371 60.9918 69.2234 61.038 69.1381 61.1202C69.0983 61.16 69.0667 61.2073 69.0454 61.2594C69.0241 61.3116 69.0134 61.3674 69.0139 61.4238C69.0133 61.4808 69.0239 61.5374 69.0452 61.5903C69.0666 61.6432 69.0981 61.6913 69.1381 61.732C69.2241 61.8125 69.3377 61.8569 69.4555 61.8562C69.5587 61.8569 69.6592 61.8229 69.7407 61.7596C69.7633 61.7456 69.7901 61.7403 69.8163 61.7445C69.8425 61.7487 69.8663 61.7622 69.8833 61.7826C69.9008 61.8013 69.9105 61.826 69.9105 61.8516C69.9105 61.8772 69.9008 61.9018 69.8833 61.9206C69.7663 62.0114 69.622 62.06 69.4739 62.0586C69.3886 62.061 69.3036 62.0465 69.2239 62.0158C69.1443 61.9851 69.0715 61.9389 69.0099 61.8798C68.9482 61.8207 68.899 61.75 68.8649 61.6717C68.8309 61.5934 68.8127 61.5091 68.8115 61.4238Z" fill="white"/>
<path d="M71.0382 61.9114C71.0425 61.9238 71.0442 61.9369 71.0432 61.9499C71.0422 61.963 71.0387 61.9757 71.0326 61.9873C71.0266 61.9989 71.0183 62.0092 71.0082 62.0175C70.9981 62.0258 70.9864 62.032 70.9738 62.0356H70.937C70.9144 62.0413 70.8907 62.0413 70.868 62.0356C70.845 62.0204 70.8261 61.9999 70.8128 61.9758C70.7814 61.9099 70.7671 61.8371 70.7714 61.7642C70.7798 61.7388 70.7798 61.7114 70.7714 61.686C70.7577 61.6647 70.7387 61.6472 70.7162 61.6354C70.6857 61.618 70.6533 61.6041 70.6196 61.594H70.3804V61.9758C70.3792 62.0018 70.368 62.0264 70.3492 62.0444C70.3303 62.0624 70.3053 62.0724 70.2792 62.0724C70.2536 62.0724 70.229 62.0622 70.2109 62.0441C70.1928 62.026 70.1826 62.0014 70.1826 61.9758V60.9362C70.1826 60.9235 70.1851 60.911 70.19 60.8992C70.1948 60.8875 70.2019 60.8769 70.2109 60.8679C70.2199 60.8589 70.2305 60.8518 70.2422 60.847C70.254 60.8421 70.2665 60.8396 70.2792 60.8396H70.5966C70.6967 60.8396 70.7926 60.8793 70.8633 60.9501C70.9341 61.0208 70.9738 61.1168 70.9738 61.2168C70.9739 61.2723 70.9615 61.3272 70.9376 61.3773C70.9137 61.4275 70.879 61.4716 70.8358 61.5066C70.8581 61.5258 70.8781 61.5474 70.8956 61.571C70.9352 61.6276 70.9561 61.6951 70.9554 61.7642C70.9554 61.8148 70.9554 61.847 70.9554 61.8654C70.9721 61.8648 70.9886 61.8688 71.0032 61.8769C71.0178 61.885 71.0299 61.8969 71.0382 61.9114ZM70.7898 61.203C70.7904 61.1791 70.7862 61.1552 70.7775 61.1329C70.7688 61.1106 70.7556 61.0903 70.7389 61.0732C70.7222 61.056 70.7022 61.0424 70.6801 61.0331C70.6581 61.0238 70.6344 61.019 70.6104 61.019H70.3804V61.3824H70.5966C70.6215 61.385 70.6466 61.3823 70.6703 61.3744C70.694 61.3666 70.7157 61.3537 70.734 61.3367C70.7524 61.3197 70.7668 61.2989 70.7764 61.2759C70.786 61.2528 70.7906 61.228 70.7898 61.203Z" fill="white"/>
<path d="M71.332 60.9224C71.332 60.8968 71.3422 60.8722 71.3603 60.8541C71.3784 60.836 71.403 60.8258 71.4286 60.8258C71.4417 60.8252 71.4548 60.8272 71.467 60.8318C71.4793 60.8364 71.4905 60.8434 71.4999 60.8524C71.5094 60.8614 71.5169 60.8723 71.5221 60.8843C71.5272 60.8964 71.5298 60.9093 71.5298 60.9224V61.962C71.5298 61.9751 71.5272 61.988 71.5221 62.0001C71.5169 62.0121 71.5094 62.0229 71.4999 62.032C71.4905 62.041 71.4793 62.048 71.467 62.0526C71.4548 62.0572 71.4417 62.0592 71.4286 62.0586C71.403 62.0586 71.3784 62.0484 71.3603 62.0303C71.3422 62.0122 71.332 61.9876 71.332 61.962V60.9224Z" fill="white"/>
<path d="M71.8564 61.962V60.9224C71.8564 60.8968 71.8666 60.8722 71.8847 60.8541C71.9029 60.836 71.9274 60.8258 71.953 60.8258H72.2198C72.3081 60.827 72.3923 60.8629 72.4543 60.9258C72.5163 60.9886 72.5511 61.0733 72.551 61.1616C72.5517 61.2328 72.5291 61.3023 72.4866 61.3594C72.5407 61.3942 72.5854 61.4418 72.6167 61.4979C72.648 61.5541 72.6649 61.6171 72.666 61.6814C72.666 61.7814 72.6263 61.8774 72.5556 61.9481C72.4848 62.0189 72.3889 62.0586 72.2888 62.0586H71.9668C71.9532 62.0599 71.9394 62.0583 71.9263 62.0541C71.9133 62.0499 71.9012 62.043 71.8909 62.034C71.8806 62.025 71.8722 62.0139 71.8663 62.0015C71.8604 61.9892 71.857 61.9757 71.8564 61.962ZM72.0542 61.3042H72.2198C72.2577 61.3042 72.2939 61.2892 72.3207 61.2624C72.3474 61.2357 72.3624 61.1994 72.3624 61.1616C72.3624 61.1238 72.3474 61.0875 72.3207 61.0608C72.2939 61.034 72.2577 61.019 72.2198 61.019H72.068L72.0542 61.3042ZM72.0542 61.8654H72.275C72.3238 61.8654 72.3706 61.846 72.4052 61.8115C72.4397 61.777 72.459 61.7302 72.459 61.6814C72.459 61.6326 72.4397 61.5858 72.4052 61.5513C72.3706 61.5168 72.3238 61.4974 72.275 61.4974H72.0542V61.8654Z" fill="white"/>
<path d="M72.9004 61.962V60.9224C72.9004 60.8968 72.9106 60.8722 72.9287 60.8541C72.9468 60.836 72.9714 60.8258 72.997 60.8258H73.5996C73.6252 60.8258 73.6498 60.836 73.6679 60.8541C73.686 60.8722 73.6962 60.8968 73.6962 60.9224C73.6962 60.948 73.686 60.9726 73.6679 60.9907C73.6498 61.0088 73.6252 61.019 73.5996 61.019H73.1396V61.3456H73.549C73.5746 61.3456 73.5992 61.3558 73.6173 61.3739C73.6354 61.392 73.6456 61.4166 73.6456 61.4422C73.6456 61.4678 73.6354 61.4924 73.6173 61.5105C73.5992 61.5286 73.5746 61.5388 73.549 61.5388H73.1396V61.8654H73.5996C73.6252 61.8654 73.6498 61.8756 73.6679 61.8937C73.686 61.9118 73.6962 61.9364 73.6962 61.962C73.6951 61.9873 73.6845 62.0112 73.6667 62.0291C73.6488 62.0469 73.6249 62.0575 73.5996 62.0586H73.02C73.0056 62.0613 72.9909 62.0608 72.9767 62.0572C72.9625 62.0536 72.9493 62.047 72.938 62.0378C72.9266 62.0287 72.9174 62.0171 72.9109 62.004C72.9044 61.9909 72.9008 61.9766 72.9004 61.962Z" fill="white"/>
<path d="M73.9453 61.962V60.9224C73.9453 60.8968 73.9555 60.8722 73.9736 60.8541C73.9917 60.836 74.0163 60.8258 74.0419 60.8258H74.2489C74.4124 60.8258 74.5692 60.8908 74.6848 61.0063C74.8004 61.1219 74.8653 61.2787 74.8653 61.4422C74.8653 61.6057 74.8004 61.7625 74.6848 61.8781C74.5692 61.9937 74.4124 62.0586 74.2489 62.0586H74.0603C74.0462 62.0614 74.0316 62.0609 74.0177 62.0573C74.0038 62.0537 73.9908 62.047 73.9798 62.0377C73.9688 62.0285 73.9599 62.0169 73.954 62.0038C73.948 61.9907 73.9451 61.9764 73.9453 61.962ZM74.1431 61.8654H74.2489C74.3612 61.8654 74.4688 61.8208 74.5482 61.7415C74.6275 61.6621 74.6721 61.5545 74.6721 61.4422C74.6721 61.33 74.6275 61.2223 74.5482 61.143C74.4688 61.0636 74.3612 61.019 74.2489 61.019H74.1431V61.8654Z" fill="white"/>
<path d="M88.3843 79.741C88.3843 79.741 88.5545 72.2062 87.9243 68.8758C87.2941 65.5454 80.2699 54.0454 77.6985 55.4208C74.3773 57.1872 77.1143 64.6208 78.9267 68.0938C78.9267 68.0938 71.2493 72.1832 72.0543 77.9424C72.8593 83.7016 88.3843 79.741 88.3843 79.741Z" fill="#F7A9A0"/>
<path d="M76.9216 56.2028C75.0816 60.0024 77.7358 64.4 79.2492 67.896C79.273 67.9466 79.2843 68.0021 79.2823 68.0579C79.2802 68.1138 79.2648 68.1683 79.2373 68.217C79.2098 68.2656 79.1711 68.307 79.1243 68.3376C79.0776 68.3682 79.0241 68.3871 78.9686 68.3928C75.8636 70.3248 72.0686 73.945 71.8432 77.7998C71.8432 77.823 71.8339 77.8452 71.8176 77.8616C71.8012 77.878 71.7789 77.8872 71.7558 77.8872C71.7326 77.8872 71.7103 77.878 71.694 77.8616C71.6776 77.8452 71.6684 77.823 71.6684 77.7998C71.3234 73.6598 74.7826 69.7728 78.32 67.8776C76.7146 64.3172 74.226 59.7908 76.8894 56.1798C76.9032 56.166 76.9354 56.1798 76.9216 56.2028Z" fill="#263238"/>
<path d="M89.2402 93.104L109.94 101.577C109.94 101.577 115.75 83.6372 116.739 73.738C117.291 68.1904 114.034 68.0432 110.018 71.0884C95.9792 81.7466 89.2402 93.104 89.2402 93.104Z" fill="#455A64"/>
<path d="M116.6 74.98C116.6 75.1272 116.564 75.2744 116.541 75.44C114.659 75.7114 112.769 75.9414 110.864 76.0978C108.527 76.304 106.178 76.3424 103.835 76.2128L104.19 75.8954C106.406 75.9645 108.624 75.9 110.832 75.7022C112.764 75.5412 114.682 75.2882 116.6 74.98ZM113.67 71.99C112.957 71.3506 112.253 70.702 111.55 70.0488L111.425 70.1224C112.138 70.7802 112.847 71.4472 113.56 72.1096C114.558 73.0296 115.57 73.9496 116.623 74.8006C116.623 74.7178 116.646 74.6396 116.656 74.5614C115.634 73.761 114.645 72.8916 113.67 72.0084V71.99ZM106.904 88.9916C105.539 88.9348 104.173 89.0258 102.828 89.263C101.493 89.5407 100.177 89.9002 98.8859 90.3394C96.3148 91.2361 93.8249 92.3502 91.4431 93.6698C91.3235 93.7342 91.2039 93.7986 91.0889 93.8676L91.5489 94.0608L91.6179 94.0194C93.9762 92.6988 96.4376 91.5712 98.9779 90.6476C100.248 90.1949 101.547 89.8246 102.865 89.539C104.189 89.2839 105.537 89.1775 106.885 89.2216C109.049 89.2995 111.198 89.6236 113.288 90.1876C113.288 90.1278 113.316 90.0726 113.334 90.0128C111.236 89.43 109.079 89.0874 106.904 88.9916Z" fill="#37474F"/>
<path d="M110.533 96.8024C107.23 95.22 98.1359 91.2088 91.8615 89.4424C91.8247 89.4424 91.7603 89.5804 91.7971 89.5942C96.7651 91.8942 107 95.7582 110.436 97.0278C110.501 97.06 110.593 96.83 110.533 96.8024Z" fill="#263238"/>
<path d="M115.608 83.168C115.189 84.226 114.789 85.2932 114.393 86.3604C114.421 86.2316 114.458 86.0982 114.485 85.9648C114.826 84.4468 115.157 82.9288 115.451 81.397C115.451 81.3602 115.396 81.3464 115.387 81.397C114.007 86.687 110.258 100.022 109.959 101.499C109.844 101.467 107.824 100.657 107.553 100.611C107.498 100.611 107.447 100.712 107.502 100.726C107.64 100.758 110.262 101.867 110.262 101.83C111.33 99.2956 113.648 89.5298 114.154 87.3632C114.715 85.9985 115.207 84.6078 115.631 83.191C115.631 83.191 115.617 83.145 115.608 83.168Z" fill="#263238"/>
<path d="M116.03 70.5686C116.398 71.5898 122.203 77.7998 126.969 77.0086C128.523 76.7464 127.479 68.2134 127.479 68.2134L127.548 67.5648L128.468 58.5028L117.299 53.0748L115.699 52.371C115.699 52.371 115.607 54.8688 115.524 57.9784C115.524 58.1256 115.524 58.2682 115.524 58.4384C115.524 58.6086 115.524 58.7834 115.524 58.949C115.524 59.409 115.487 59.869 115.482 60.3566C115.482 60.72 115.482 61.0696 115.482 61.4468C115.482 61.824 115.482 62.192 115.482 62.5738C115.51 66.2952 115.878 70.1362 116.03 70.5686Z" fill="#F7A9A0"/>
<path d="M115.543 57.96C116.727 60.3348 118.415 62.423 120.488 64.0794C122.562 65.7357 124.971 66.9204 127.549 67.551L128.469 58.489L117.3 53.0748L115.699 52.371C115.699 52.371 115.626 54.8688 115.543 57.96Z" fill="#263238"/>
<path d="M138.755 43.562C142.66 59.0686 133.814 63.1626 130.475 63.9998C127.439 64.7634 117.001 66.9668 111.514 51.9478C106.026 36.9288 112.001 30.2082 118.874 28.1014C125.746 25.9946 134.845 28.06 138.755 43.562Z" fill="#F7A9A0"/>
<path d="M133.801 40.6593C133.433 40.6777 133.064 40.6777 132.697 40.6593C132.306 40.7051 131.911 40.6245 131.57 40.4293C131.476 40.3463 131.412 40.2346 131.388 40.1115C131.363 39.9885 131.381 39.8609 131.436 39.7485C131.581 39.5427 131.778 39.3791 132.006 39.2748C132.235 39.1705 132.488 39.1292 132.738 39.1551C133.251 39.1265 133.757 39.2905 134.155 39.6151C134.241 39.6941 134.302 39.7965 134.331 39.9097C134.36 40.0228 134.356 40.142 134.318 40.2527C134.281 40.3633 134.212 40.4607 134.12 40.5329C134.028 40.6051 133.917 40.649 133.801 40.6593Z" fill="#263238"/>
<path d="M123.777 42.9318C124.123 42.8059 124.463 42.6615 124.794 42.4994C125.174 42.396 125.508 42.1695 125.746 41.8554C125.802 41.7427 125.819 41.6146 125.794 41.4913C125.769 41.3681 125.703 41.2566 125.608 41.1746C125.396 41.0403 125.152 40.9649 124.902 40.956C124.651 40.9471 124.403 41.0051 124.182 41.124C123.697 41.2979 123.293 41.6431 123.046 42.0946C122.996 42.2013 122.978 42.3203 122.994 42.437C123.011 42.5537 123.061 42.6631 123.138 42.7519C123.216 42.8407 123.317 42.9049 123.431 42.9369C123.544 42.9688 123.665 42.9671 123.777 42.9318Z" fill="#263238"/>
<path d="M126.652 46.46C126.652 46.4232 126.578 46.529 126.592 46.575C126.864 47.6284 126.992 48.875 126.109 49.45C126.082 49.45 126.109 49.519 126.132 49.5052C127.268 49.0958 127.08 47.4306 126.652 46.46Z" fill="#263238"/>
<path d="M125.456 45.5768C123.717 45.8252 124.348 49.2844 125.958 49.0544C127.568 48.8244 126.914 45.3652 125.456 45.5768Z" fill="#263238"/>
<path d="M124.812 45.8804C124.546 46.1334 124.311 46.5336 123.952 46.6348C123.593 46.736 123.156 46.4508 122.816 46.1748C122.784 46.1426 122.756 46.1748 122.765 46.2254C122.876 46.8878 123.253 47.5226 123.984 47.4904C124.716 47.4582 125.006 46.7912 125.052 46.1104C125.056 45.9448 124.918 45.7792 124.812 45.8804Z" fill="#263238"/>
<path d="M132.683 44.6981C132.683 44.6567 132.775 44.7349 132.779 44.7763C132.931 45.8573 133.29 47.0763 134.32 47.2511C134.353 47.2511 134.362 47.3155 134.32 47.3155C133.111 47.3523 132.655 45.7423 132.683 44.6981Z" fill="#263238"/>
<path d="M133.446 43.4102C135.148 42.9778 135.884 46.414 134.306 46.8142C132.729 47.2144 132.02 43.7736 133.446 43.4102Z" fill="#263238"/>
<path d="M134.209 43.4838C134.517 43.608 134.857 43.8794 135.189 43.8334C135.52 43.7874 135.768 43.3458 135.929 42.9134C135.929 42.872 135.98 42.9134 135.994 42.941C136.15 43.5942 136.081 44.321 135.478 44.5832C134.876 44.8454 134.384 44.3486 134.098 43.7276C134.029 43.6356 134.085 43.4332 134.209 43.4838Z" fill="#263238"/>
<path d="M128.276 54.9516C128.57 55.1678 128.874 55.4806 129.27 55.4622C129.67 55.4007 130.052 55.2548 130.392 55.0344C130.399 55.0271 130.408 55.0228 130.418 55.0223C130.428 55.0219 130.438 55.0254 130.445 55.0321C130.452 55.0388 130.457 55.0482 130.457 55.0581C130.457 55.068 130.454 55.0777 130.447 55.085C130.321 55.3181 130.135 55.5126 129.907 55.6479C129.679 55.7832 129.419 55.8542 129.155 55.8532C128.928 55.8254 128.714 55.7311 128.54 55.5822C128.367 55.4332 128.241 55.2362 128.179 55.016C128.152 54.9562 128.235 54.9194 128.276 54.9516Z" fill="#263238"/>
<path d="M132.447 49.9514C132.447 49.9514 132.981 51.5108 133.128 52.2514C132.451 52.5588 131.704 52.6784 130.965 52.5974C130.226 52.5165 129.523 52.238 128.928 51.7914C128.855 51.7362 128.928 51.635 129.02 51.6672C130.11 52.1387 131.323 52.2483 132.48 51.98C132.48 51.7592 131.472 49.335 131.592 49.3028C132.19 49.2421 132.793 49.2607 133.386 49.358C132.369 46.0736 130.833 42.9824 129.871 39.698C129.865 39.6741 129.868 39.6488 129.879 39.6266C129.889 39.6044 129.907 39.5866 129.93 39.5762C129.952 39.5659 129.977 39.5636 130.001 39.5699C130.025 39.5762 130.046 39.5905 130.06 39.6106C131.9 42.7386 133.151 46.5106 134.287 49.8548C134.444 50.2872 132.774 50.0204 132.447 49.9514Z" fill="#263238"/>
<path d="M132.08 52.3894C131.764 52.995 131.297 53.5085 130.723 53.8798C130.406 54.0729 130.036 54.1629 129.665 54.1374C128.851 54.0684 128.709 53.36 128.745 52.7252C128.767 52.3894 128.829 52.0574 128.929 51.7362C129.883 52.2851 130.987 52.514 132.08 52.3894Z" fill="#263238"/>
<path d="M130.723 53.8798C130.406 54.073 130.036 54.163 129.665 54.1374C128.851 54.0684 128.709 53.36 128.745 52.7252C129.592 52.6654 130.512 53.084 130.723 53.8798Z" fill="#FF9ABB"/>
<path d="M127.686 30.2312C127.686 30.2312 128.353 32.6048 127.553 34.339C125.92 37.904 121.637 37.0438 120.193 38.479C118.849 39.813 119.369 42.5224 118.15 43.8564C116.462 45.6964 114.121 45.034 113.858 46.2622C113.596 47.4904 112.842 51.4004 111.287 51.9202C109.732 52.44 101.167 31.027 122.58 27.1308C122.58 27.1308 125.363 25.9394 129.738 28.0508C134.112 30.1622 137.13 38.3134 137.13 38.3134C136.703 38.1088 136.31 37.8421 135.961 37.5222C134.963 36.6712 134.581 35.8754 133.841 35.3234C132.695 34.4586 132.079 34.8036 130.888 33.9434C129.075 32.66 127.686 30.2312 127.686 30.2312Z" fill="#263238"/>
<path d="M127.361 29.1088C127.693 30.1158 127.909 31.1576 128.005 32.2138C128.154 33.244 128.019 34.2955 127.614 35.2544C127.092 36.123 126.276 36.7759 125.314 37.0944C124.348 37.4624 123.28 37.582 122.245 38.0144C121.697 38.2392 121.225 38.6158 120.884 39.1C120.59 39.5829 120.395 40.1191 120.309 40.6778C120.106 41.7266 119.904 42.7616 119.223 43.5206C118.883 43.9036 118.464 44.2082 117.995 44.4131C117.525 44.6181 117.017 44.7185 116.505 44.7074C115.479 44.7074 114.338 44.4544 113.34 44.9236C114.37 44.5372 115.428 44.8914 116.5 44.9558C117.056 44.989 117.612 44.9014 118.131 44.6989C118.649 44.4964 119.118 44.1838 119.504 43.7828C120.327 42.964 120.539 41.7818 120.755 40.7744C120.837 40.2843 121.016 39.8154 121.279 39.3944C121.579 39.0064 121.98 38.7087 122.439 38.5342C123.359 38.1248 124.444 37.9822 125.47 37.5728C125.988 37.3752 126.474 37.1007 126.91 36.7586C127.367 36.4208 127.731 35.973 127.968 35.4568C128.355 34.4295 128.452 33.3155 128.248 32.2368C128.076 31.1629 127.778 30.1131 127.361 29.1088Z" fill="#263238"/>
<path d="M127.766 30.0288C127.981 31.0041 128.329 31.9452 128.801 32.8256C129.26 33.7524 129.983 34.5223 130.88 35.0382C131.335 35.2609 131.811 35.4381 132.301 35.5672C132.727 35.7003 133.107 35.9487 133.401 36.2848C133.667 36.7113 133.975 37.1104 134.321 37.4762C134.695 37.8169 135.142 38.0685 135.627 38.2122C135.193 37.9844 134.81 37.6715 134.5 37.2922C134.205 36.9039 133.947 36.488 133.732 36.0502C133.42 35.6191 132.983 35.2947 132.481 35.121C132.006 34.99 131.544 34.816 131.101 34.6012C130.284 34.1199 129.605 33.4373 129.127 32.6186C128.616 31.7869 128.161 30.9217 127.766 30.0288Z" fill="#263238"/>
<path d="M114.227 51.98C114.227 51.98 109.986 47.61 107.948 49.22C105.91 50.83 109.655 57.5322 112.438 58.0842C112.79 58.1794 113.157 58.2027 113.519 58.1524C113.88 58.1022 114.227 57.9796 114.54 57.7919C114.853 57.6042 115.124 57.3552 115.338 57.0601C115.553 56.7649 115.705 56.4295 115.786 56.074L114.227 51.98Z" fill="#F7A9A0"/>
<path d="M109.07 51.1059C109.06 51.1059 109.051 51.1098 109.044 51.1167C109.037 51.1236 109.033 51.133 109.033 51.1428C109.033 51.1525 109.037 51.1619 109.044 51.1688C109.051 51.1757 109.06 51.1796 109.07 51.1796C111.034 51.6396 112.29 53.176 113.242 54.8366C112.584 54.2432 111.779 53.9902 110.97 54.7906C110.928 54.832 110.97 54.901 111.039 54.878C111.346 54.7234 111.694 54.6679 112.034 54.719C112.374 54.77 112.69 54.9252 112.939 55.1632C113.352 55.5624 113.72 56.005 114.038 56.4834C114.153 56.6352 114.434 56.4834 114.342 56.3178L114.319 56.2763C113.983 53.9257 111.628 50.9357 109.07 51.1059Z" fill="#263238"/>
<path d="M113.864 57.1228C113.876 57.2517 113.849 57.381 113.786 57.4945C113.724 57.6079 113.63 57.7004 113.515 57.76C113.4 57.8197 113.27 57.8439 113.142 57.8296C113.013 57.8154 112.892 57.7632 112.793 57.6798C112.694 57.5964 112.622 57.4855 112.586 57.3612C112.55 57.2369 112.552 57.1047 112.592 56.9815C112.631 56.8582 112.706 56.7495 112.807 56.669C112.909 56.5885 113.032 56.5399 113.161 56.5294C113.246 56.5218 113.332 56.5312 113.413 56.557C113.495 56.5828 113.571 56.6244 113.636 56.6796C113.701 56.7347 113.755 56.8023 113.795 56.8784C113.834 56.9544 113.857 57.0375 113.864 57.1228Z" fill="white"/>
<path d="M112.181 56.1981C112.187 56.2882 112.166 56.378 112.121 56.4563C112.076 56.5347 112.009 56.5981 111.929 56.6387C111.848 56.6793 111.757 56.6954 111.668 56.6848C111.578 56.6742 111.494 56.6375 111.425 56.5792C111.356 56.521 111.306 56.4437 111.28 56.3571C111.255 56.2705 111.256 56.1783 111.282 56.0921C111.309 56.0059 111.36 55.9294 111.43 55.8722C111.5 55.815 111.585 55.7796 111.675 55.7703C111.736 55.764 111.798 55.7702 111.858 55.7885C111.917 55.8067 111.971 55.8367 112.019 55.8767C112.066 55.9166 112.105 55.9657 112.132 56.0209C112.16 56.0761 112.177 56.1364 112.181 56.1981Z" fill="white"/>
<path d="M108.058 51.0185H107.092C107.047 51.0185 107.003 51.0096 106.961 50.9922C106.919 50.9748 106.882 50.9493 106.85 50.9172C106.818 50.8851 106.793 50.847 106.777 50.8052C106.76 50.7634 106.751 50.7186 106.752 50.6735C106.753 50.5828 106.79 50.4963 106.855 50.4325C106.919 50.3688 107.006 50.3331 107.097 50.3331H108.058C108.15 50.3343 108.237 50.3711 108.301 50.4355C108.365 50.4999 108.402 50.587 108.403 50.6781C108.402 50.7688 108.365 50.8554 108.301 50.9191C108.236 50.9828 108.149 51.0185 108.058 51.0185Z" fill="#219EBC"/>
<path d="M108.182 52.0122L107.235 52.2146C107.191 52.2241 107.146 52.2248 107.102 52.2167C107.058 52.2086 107.016 52.1919 106.978 52.1676C106.94 52.1432 106.908 52.1117 106.883 52.0748C106.857 52.0378 106.839 51.9963 106.83 51.9524C106.811 51.8634 106.828 51.7704 106.877 51.6937C106.926 51.617 107.003 51.5628 107.092 51.543L108.035 51.3406C108.124 51.3214 108.217 51.3382 108.294 51.3874C108.371 51.4365 108.425 51.5139 108.445 51.6028C108.463 51.6917 108.445 51.7842 108.396 51.8606C108.347 51.937 108.271 51.9913 108.182 52.0122Z" fill="#219EBC"/>
<path d="M109.396 71.576C109.856 71.116 114.121 67.3578 120.119 67.7212C126.403 68.1076 132.171 72.5834 132.171 72.5834C132.171 72.5834 134.043 79.0234 128.427 79.5938C120.593 80.3804 109.396 71.576 109.396 71.576Z" fill="#F7A9A0"/>
</svg>
