<svg width="338" height="338" viewBox="0 0 338 338" fill="none" xmlns="http://www.w3.org/2000/svg">
<path d="M177.328 81.5729H142.643V37.0448H168.398L177.328 45.5286V81.5729Z" fill="#EBEBEB"/>
<path d="M168.398 37.0448L177.328 45.5286H168.398V37.0448Z" fill="#DBDBDB"/>
<path d="M146.029 45.6638H165.315V44.5214H146.029V45.6638Z" fill="#DBDBDB"/>
<path d="M146.029 48.5503H165.315V47.4079H146.029V48.5503Z" fill="#DBDBDB"/>
<path d="M146.029 51.4369H165.315V50.2944H146.029V51.4369Z" fill="#DBDBDB"/>
<path d="M146.029 54.3234H174.286V53.1809H146.029V54.3234Z" fill="#DBDBDB"/>
<path d="M146.029 57.2098H174.286V56.0674H146.029V57.2098Z" fill="#DBDBDB"/>
<path d="M146.029 60.0896H174.286V58.9472H146.029V60.0896Z" fill="#DBDBDB"/>
<path d="M146.029 62.9762H174.286V61.8338H146.029V62.9762Z" fill="#DBDBDB"/>
<path d="M146.029 65.8627H174.286V64.7202H146.029V65.8627Z" fill="#DBDBDB"/>
<path d="M146.029 68.7491H174.286V67.6067H146.029V68.7491Z" fill="#DBDBDB"/>
<path d="M146.029 71.6357H174.286V70.4933H146.029V71.6357Z" fill="#DBDBDB"/>
<path d="M146.029 74.5222H174.286V73.3798H146.029V74.5222Z" fill="#DBDBDB"/>
<path d="M146.029 77.4088H174.286V76.2664H146.029V77.4088Z" fill="#DBDBDB"/>
<path d="M179.674 85.6285C182.775 84.3356 184.241 80.7733 182.948 77.6719C181.655 74.5705 178.093 73.1044 174.992 74.3973C171.89 75.6902 170.424 79.2525 171.717 82.3539C173.01 85.4553 176.572 86.9214 179.674 85.6285Z" fill="#C7C7C7"/>
<path d="M180.343 78.4701H174.313V83.9457H180.343V78.4701Z" fill="white"/>
<path d="M179.742 80.1601H179.14V77.74C179.155 77.4941 179.12 77.2478 179.036 77.0161C178.952 76.7844 178.822 76.5724 178.653 76.393C178.485 76.2135 178.281 76.0705 178.055 75.9728C177.829 75.8751 177.585 75.8247 177.339 75.8247C177.092 75.8247 176.849 75.8751 176.622 75.9728C176.396 76.0705 176.193 76.2135 176.024 76.393C175.855 76.5724 175.725 76.7844 175.641 77.0161C175.557 77.2478 175.522 77.4941 175.537 77.74V80.1803H174.922V77.74C174.922 77.0999 175.176 76.4861 175.629 76.0335C176.081 75.5809 176.695 75.3267 177.335 75.3267C177.975 75.3267 178.589 75.5809 179.042 76.0335C179.494 76.4861 179.749 77.0999 179.749 77.74L179.742 80.1601Z" fill="white"/>
<path d="M177.586 81.2755L177.836 82.4721H176.768L177.018 81.2755C176.941 81.227 176.879 81.16 176.835 81.0809C176.791 81.0018 176.768 80.913 176.768 80.8226C176.768 80.681 176.824 80.5451 176.924 80.445C177.024 80.3448 177.16 80.2886 177.302 80.2886C177.443 80.2886 177.579 80.3448 177.679 80.445C177.779 80.5451 177.836 80.681 177.836 80.8226C177.835 80.913 177.812 81.0018 177.768 81.0809C177.725 81.16 177.662 81.227 177.586 81.2755Z" fill="#C7C7C7"/>
<path d="M222.471 99.6964L222.559 134.341C222.561 134.802 222.472 135.259 222.297 135.685C222.122 136.111 221.865 136.499 221.541 136.826C221.216 137.153 220.831 137.413 220.406 137.591C219.981 137.769 219.525 137.862 219.064 137.863L164.119 138.005C163.658 138.006 163.202 137.916 162.776 137.741C162.35 137.565 161.962 137.308 161.636 136.983C161.309 136.657 161.05 136.271 160.873 135.846C160.696 135.42 160.604 134.964 160.604 134.504L160.516 99.8587C160.514 99.4302 160.597 99.0056 160.759 98.6092C160.922 98.2127 161.161 97.8522 161.463 97.5483C161.765 97.2444 162.124 97.0031 162.519 96.8381C162.915 96.6731 163.339 96.5877 163.767 96.5868L219.199 96.4449C219.628 96.4431 220.052 96.5258 220.449 96.6883C220.845 96.8509 221.206 97.09 221.51 97.392C221.813 97.694 222.055 98.053 222.22 98.4485C222.385 98.8439 222.47 99.268 222.471 99.6964Z" fill="#EBEBEB"/>
<path d="M213.616 129.488C213.617 130.126 213.43 130.749 213.076 131.28C212.723 131.811 212.22 132.226 211.632 132.471C211.043 132.716 210.395 132.782 209.769 132.658C209.143 132.535 208.568 132.229 208.116 131.779C207.664 131.329 207.356 130.755 207.23 130.13C207.105 129.505 207.167 128.857 207.41 128.267C207.653 127.677 208.065 127.173 208.594 126.817C209.124 126.462 209.747 126.271 210.385 126.27C210.808 126.269 211.228 126.352 211.619 126.513C212.011 126.674 212.367 126.911 212.667 127.21C212.967 127.508 213.205 127.863 213.368 128.254C213.531 128.645 213.615 129.064 213.616 129.488Z" fill="#DBDBDB"/>
<path d="M217.591 129.474C217.592 130.112 217.404 130.735 217.051 131.266C216.699 131.797 216.196 132.211 215.608 132.457C215.02 132.702 214.372 132.768 213.746 132.645C213.121 132.523 212.545 132.218 212.093 131.768C211.641 131.319 211.332 130.746 211.206 130.121C211.079 129.496 211.141 128.848 211.383 128.258C211.624 127.668 212.036 127.163 212.564 126.807C213.093 126.451 213.715 126.259 214.353 126.256C214.777 126.255 215.197 126.337 215.589 126.497C215.981 126.658 216.338 126.895 216.639 127.194C216.94 127.493 217.179 127.848 217.342 128.239C217.505 128.631 217.59 129.05 217.591 129.474Z" fill="#219EBC"/>
<path d="M174.514 102.504L168.565 102.52C166.997 102.524 165.729 103.799 165.733 105.367L165.739 107.726C165.743 109.294 167.018 110.562 168.586 110.558L174.535 110.542C176.103 110.538 177.37 109.263 177.366 107.695L177.36 105.336C177.356 103.768 176.082 102.5 174.514 102.504Z" fill="#219EBC"/>
<path d="M215.326 106.808H210.067C209.777 106.809 209.49 106.753 209.222 106.642C208.953 106.532 208.71 106.37 208.504 106.165C208.299 105.96 208.136 105.717 208.025 105.449C207.914 105.181 207.856 104.894 207.856 104.604C207.856 104.315 207.912 104.029 208.022 103.761C208.132 103.494 208.293 103.251 208.498 103.046C208.702 102.842 208.944 102.679 209.211 102.568C209.478 102.457 209.764 102.4 210.053 102.4H215.313C215.602 102.399 215.89 102.454 216.158 102.564C216.426 102.673 216.67 102.835 216.875 103.039C217.08 103.243 217.243 103.486 217.355 103.754C217.466 104.021 217.523 104.308 217.523 104.597C217.524 104.887 217.468 105.174 217.358 105.441C217.248 105.709 217.087 105.952 216.883 106.158C216.679 106.363 216.436 106.526 216.169 106.638C215.902 106.749 215.616 106.807 215.326 106.808Z" fill="white"/>
<path d="M195.208 126.631L165.789 126.708L165.793 128.154L195.212 128.077L195.208 126.631Z" fill="#DBDBDB"/>
<path d="M186.631 129.871L165.804 129.925L165.807 131.372L186.635 131.317L186.631 129.871Z" fill="#DBDBDB"/>
<path d="M205.832 102.422L191.156 102.461L191.16 103.907L205.836 103.869L205.832 102.422Z" fill="#DBDBDB"/>
<path d="M167.093 118.935H166.891V121.132H167.093V118.935Z" fill="#C7C7C7"/>
<path d="M168.088 119.936H165.891V120.139H168.088V119.936Z" fill="#C7C7C7"/>
<path d="M167.698 119.183L166.14 120.741L166.283 120.884L167.841 119.326L167.698 119.183Z" fill="#C7C7C7"/>
<path d="M166.29 119.189L166.146 119.333L167.705 120.891L167.848 120.748L166.29 119.189Z" fill="#C7C7C7"/>
<path d="M169.737 118.935H169.534V121.132H169.737V118.935Z" fill="#C7C7C7"/>
<path d="M170.737 119.936H168.54V120.139H170.737V119.936Z" fill="#C7C7C7"/>
<path d="M170.345 119.186L168.791 120.74L168.934 120.883L170.488 119.33L170.345 119.186Z" fill="#C7C7C7"/>
<path d="M168.929 119.181L168.785 119.325L170.338 120.878L170.482 120.735L168.929 119.181Z" fill="#C7C7C7"/>
<path d="M172.386 118.935H172.184V121.132H172.386V118.935Z" fill="#C7C7C7"/>
<path d="M173.381 119.936H171.184V120.139H173.381V119.936Z" fill="#C7C7C7"/>
<path d="M171.576 120.882L171.434 120.74L172.988 119.186L173.137 119.328L171.576 120.882Z" fill="#C7C7C7"/>
<path d="M172.988 120.882L171.434 119.328L171.576 119.186L173.137 120.74L172.988 120.882Z" fill="#C7C7C7"/>
<path d="M175.03 118.935H174.827V121.132H175.03V118.935Z" fill="#C7C7C7"/>
<path d="M176.03 119.936H173.833V120.139H176.03V119.936Z" fill="#C7C7C7"/>
<path d="M174.225 120.882L174.083 120.74L175.638 119.186L175.78 119.328L174.225 120.882Z" fill="#C7C7C7"/>
<path d="M175.638 120.882L174.083 119.328L174.225 119.186L175.78 120.74L175.638 120.882Z" fill="#C7C7C7"/>
<path d="M180.809 118.935H180.606V121.132H180.809V118.935Z" fill="#C7C7C7"/>
<path d="M181.803 119.936H179.606V120.139H181.803V119.936Z" fill="#C7C7C7"/>
<path d="M180.005 120.882L179.856 120.74L181.411 119.186L181.56 119.328L180.005 120.882Z" fill="#C7C7C7"/>
<path d="M181.411 120.882L179.856 119.328L180.005 119.186L181.56 120.74L181.411 120.882Z" fill="#C7C7C7"/>
<path d="M183.453 118.935H183.25V121.132H183.453V118.935Z" fill="#C7C7C7"/>
<path d="M184.453 119.936H182.256V120.139H184.453V119.936Z" fill="#C7C7C7"/>
<path d="M182.649 120.882L182.507 120.74L184.062 119.186L184.204 119.328L182.649 120.882Z" fill="#C7C7C7"/>
<path d="M184.062 120.882L182.507 119.328L182.649 119.186L184.204 120.74L184.062 120.882Z" fill="#C7C7C7"/>
<path d="M186.103 118.935H185.9V121.132H186.103V118.935Z" fill="#C7C7C7"/>
<path d="M187.096 119.936H184.899V120.139H187.096V119.936Z" fill="#C7C7C7"/>
<path d="M185.298 120.882L185.149 120.74L186.704 119.186L186.853 119.328L185.298 120.882Z" fill="#C7C7C7"/>
<path d="M186.704 120.882L185.149 119.328L185.298 119.186L186.853 120.74L186.704 120.882Z" fill="#C7C7C7"/>
<path d="M188.753 118.935H188.55V121.132H188.753V118.935Z" fill="#C7C7C7"/>
<path d="M189.747 119.936H187.55V120.139H189.747V119.936Z" fill="#C7C7C7"/>
<path d="M187.942 120.882L187.8 120.74L189.355 119.186L189.497 119.328L187.942 120.882Z" fill="#C7C7C7"/>
<path d="M189.355 120.882L187.8 119.328L187.942 119.186L189.497 120.74L189.355 120.882Z" fill="#C7C7C7"/>
<path d="M194.526 118.935H194.323V121.132H194.526V118.935Z" fill="#C7C7C7"/>
<path d="M195.526 119.936H193.329V120.139H195.526V119.936Z" fill="#C7C7C7"/>
<path d="M193.721 120.882L193.579 120.74L195.134 119.186L195.276 119.328L193.721 120.882Z" fill="#C7C7C7"/>
<path d="M195.134 120.882L193.579 119.328L193.721 119.186L195.276 120.74L195.134 120.882Z" fill="#C7C7C7"/>
<path d="M197.175 118.935H196.973V121.132H197.175V118.935Z" fill="#C7C7C7"/>
<path d="M198.17 119.936H195.973V120.139H198.17V119.936Z" fill="#C7C7C7"/>
<path d="M196.365 120.882L196.223 120.74L197.777 119.186L197.926 119.328L196.365 120.882Z" fill="#C7C7C7"/>
<path d="M197.777 120.882L196.223 119.328L196.365 119.186L197.926 120.74L197.777 120.882Z" fill="#C7C7C7"/>
<path d="M199.819 118.935H199.616V121.132H199.819V118.935Z" fill="#C7C7C7"/>
<path d="M200.819 119.936H198.622V120.139H200.819V119.936Z" fill="#C7C7C7"/>
<path d="M199.014 120.882L198.872 120.74L200.427 119.186L200.569 119.328L199.014 120.882Z" fill="#C7C7C7"/>
<path d="M200.427 120.882L198.872 119.328L199.014 119.186L200.569 120.74L200.427 120.882Z" fill="#C7C7C7"/>
<path d="M202.468 118.935H202.266V121.132H202.468V118.935Z" fill="#C7C7C7"/>
<path d="M203.463 119.936H201.266V120.139H203.463V119.936Z" fill="#C7C7C7"/>
<path d="M201.658 120.882L201.516 120.74L203.07 119.186L203.219 119.328L201.658 120.882Z" fill="#C7C7C7"/>
<path d="M203.07 120.882L201.516 119.328L201.658 119.186L203.219 120.74L203.07 120.882Z" fill="#C7C7C7"/>
<path d="M208.242 118.935H208.039V121.132H208.242V118.935Z" fill="#C7C7C7"/>
<path d="M209.242 119.936H207.045V120.139H209.242V119.936Z" fill="#C7C7C7"/>
<path d="M207.437 120.882L207.295 120.74L208.85 119.186L208.992 119.328L207.437 120.882Z" fill="#C7C7C7"/>
<path d="M208.85 120.882L207.295 119.328L207.437 119.186L208.992 120.74L208.85 120.882Z" fill="#C7C7C7"/>
<path d="M210.891 118.935H210.688V121.132H210.891V118.935Z" fill="#C7C7C7"/>
<path d="M211.885 119.936H209.688V120.139H211.885V119.936Z" fill="#C7C7C7"/>
<path d="M210.087 120.882L209.938 120.74L211.5 119.186L211.642 119.328L210.087 120.882Z" fill="#C7C7C7"/>
<path d="M211.5 120.882L209.938 119.328L210.087 119.186L211.642 120.74L211.5 120.882Z" fill="#C7C7C7"/>
<path d="M213.542 118.935H213.339V121.132H213.542V118.935Z" fill="#C7C7C7"/>
<path d="M214.535 119.936H212.338V120.139H214.535V119.936Z" fill="#C7C7C7"/>
<path d="M212.731 120.882L212.589 120.74L214.144 119.186L214.286 119.328L212.731 120.882Z" fill="#C7C7C7"/>
<path d="M214.144 120.882L212.589 119.328L212.731 119.186L214.286 120.74L214.144 120.882Z" fill="#C7C7C7"/>
<path d="M216.185 118.935H215.982V121.132H216.185V118.935Z" fill="#C7C7C7"/>
<path d="M217.178 119.936H214.981V120.139H217.178V119.936Z" fill="#C7C7C7"/>
<path d="M215.38 120.882L215.231 120.74L216.786 119.186L216.935 119.328L215.38 120.882Z" fill="#C7C7C7"/>
<path d="M216.786 120.882L215.231 119.328L215.38 119.186L216.935 120.74L216.786 120.882Z" fill="#C7C7C7"/>
<path d="M228.55 138.8C229.09 135.484 226.839 132.358 223.522 131.818C220.206 131.279 217.08 133.53 216.54 136.846C216.001 140.163 218.252 143.289 221.569 143.828C224.885 144.368 228.011 142.117 228.55 138.8Z" fill="#C7C7C7"/>
<path d="M225.575 136.295H219.545V141.771H225.575V136.295Z" fill="white"/>
<path d="M224.973 137.985H224.365V135.538C224.337 135.079 224.135 134.649 223.8 134.334C223.465 134.019 223.023 133.843 222.563 133.843C222.104 133.843 221.661 134.019 221.327 134.334C220.992 134.649 220.79 135.079 220.762 135.538V137.985H220.146V135.538C220.146 134.898 220.401 134.284 220.853 133.831C221.306 133.379 221.92 133.125 222.56 133.125C223.2 133.125 223.814 133.379 224.266 133.831C224.719 134.284 224.973 134.898 224.973 135.538V137.985Z" fill="white"/>
<path d="M222.816 139.1L223.066 140.297H221.998L222.248 139.1C222.172 139.052 222.109 138.985 222.065 138.906C222.022 138.827 221.999 138.738 221.998 138.648C221.998 138.506 222.054 138.37 222.154 138.27C222.255 138.17 222.39 138.114 222.532 138.114C222.674 138.114 222.81 138.17 222.91 138.27C223.01 138.37 223.066 138.506 223.066 138.648C223.066 138.738 223.042 138.827 222.999 138.906C222.955 138.985 222.892 139.052 222.816 139.1Z" fill="#C7C7C7"/>
<path d="M78.9785 79.4657L120.016 86.333L124.997 56.5636L83.9602 49.6963L78.9785 79.4657Z" fill="#EBEBEB"/>
<path d="M80.9645 78.0433L118.595 84.3405L123.005 57.9847L85.375 51.6875L80.9645 78.0433Z" fill="white"/>
<path d="M88.5564 59.9139C88.4541 60.5296 88.5366 61.1619 88.7934 61.7307C89.0503 62.2995 89.4701 62.7795 89.9996 63.1098C90.5292 63.4402 91.1448 63.6062 91.7686 63.5868C92.3925 63.5674 92.9966 63.3636 93.5046 63.001C94.0126 62.6384 94.4018 62.1333 94.6229 61.5496C94.8439 60.9659 94.887 60.3298 94.7467 59.7216C94.6063 59.1134 94.2889 58.5605 93.8344 58.1327C93.3799 57.7049 92.8088 57.4214 92.1933 57.3181C91.3669 57.1812 90.52 57.3775 89.8382 57.8642C89.1564 58.3508 88.6955 59.0879 88.5564 59.9139Z" fill="#DBDBDB"/>
<path d="M98.6279 75.1644L119.557 78.6729L111.465 62.7328L98.6279 75.1644Z" fill="#DBDBDB"/>
<path d="M90.4287 73.7989L107.701 76.6921L100.609 66.0114L90.4287 73.7989Z" fill="#EBEBEB"/>
<path d="M119.558 78.6569L81.9277 72.3597L80.9771 78.0403L118.607 84.3374L119.558 78.6569Z" fill="#EBEBEB"/>
<path d="M67.194 88.8738H108.802V58.6904H67.194V88.8738Z" fill="#EBEBEB"/>
<path d="M68.9178 87.1364H107.071V60.4141H68.9178V87.1364Z" fill="white"/>
<path d="M73.3731 68.0124C73.3717 68.6384 73.5561 69.2507 73.9029 69.7719C74.2498 70.293 74.7434 70.6996 75.3214 70.9401C75.8993 71.1806 76.5356 71.2442 77.1498 71.1229C77.7639 71.0016 78.3283 70.7008 78.7714 70.2586C79.2145 69.8164 79.5165 69.2527 79.6391 68.6388C79.7617 68.025 79.6995 67.3885 79.4602 66.81C79.221 66.2315 78.8155 65.737 78.2951 65.3891C77.7747 65.0412 77.1627 64.8555 76.5367 64.8555C75.6988 64.8555 74.8952 65.1879 74.3021 65.7797C73.7089 66.3715 73.3748 67.1745 73.3731 68.0124Z" fill="#DBDBDB"/>
<path d="M85.8584 81.3904H107.078L96.4648 67.0051L85.8584 81.3904Z" fill="#DBDBDB"/>
<path d="M77.5371 81.3972H95.059L86.2981 72.0278L77.5371 81.3972Z" fill="#EBEBEB"/>
<path d="M107.071 81.3837H68.918V87.1432H107.071V81.3837Z" fill="#EBEBEB"/>
<path d="M131.651 201.86H72.001V284.407H131.651V201.86Z" fill="#EBEBEB"/>
<path d="M134.544 198.798H69.1143V201.86H134.544V198.798Z" fill="#DBDBDB"/>
<path d="M155.115 198.798H134.537V201.86H155.115V198.798Z" fill="#EBEBEB"/>
<path d="M151.864 201.86H131.651V284.407H151.864V201.86Z" fill="#DBDBDB"/>
<path d="M125.236 240.075H78.416V213.616H125.236V240.075ZM78.5918 239.906H125.06V213.771H78.585L78.5918 239.906Z" fill="#C7C7C7"/>
<path d="M104.408 221.343H95.2959V226.582H104.408V221.343Z" fill="#C7C7C7"/>
<path d="M107.187 226.271H97.9053V221.654H107.187V226.271ZM98.0743 226.102H107.018V221.823H98.0743V226.102Z" fill="#C7C7C7"/>
<path d="M125.236 273.307H78.416V246.835H125.236V273.307ZM78.5918 273.138H125.06V247.004H78.585L78.5918 273.138Z" fill="#C7C7C7"/>
<path d="M104.408 254.575H95.2959V259.814H104.408V254.575Z" fill="#C7C7C7"/>
<path d="M107.187 259.503H97.9053V254.886H107.187V259.503ZM98.0743 259.334H107.018V255.055H98.0743V259.334Z" fill="#C7C7C7"/>
<path d="M34.8408 284.434L68.3839 284.265L101.92 284.211L169 284.096L236.079 284.204L269.616 284.265L303.159 284.434L269.616 284.596L236.079 284.657L169 284.772L101.92 284.657L68.3839 284.596L34.8408 284.434Z" fill="#263238"/>
<path d="M69.8307 314.097C86.3624 314.097 99.764 311.524 99.764 308.351C99.764 305.177 86.3624 302.605 69.8307 302.605C53.2991 302.605 39.8975 305.177 39.8975 308.351C39.8975 311.524 53.2991 314.097 69.8307 314.097Z" fill="#EBEBEB"/>
<path d="M181.148 319.369C245.744 319.369 298.11 314.233 298.11 307.898C298.11 301.562 245.744 296.426 181.148 296.426C116.552 296.426 64.1865 301.562 64.1865 307.898C64.1865 314.233 116.552 319.369 181.148 319.369Z" fill="#EBEBEB"/>
<path d="M213.366 207.836L211.399 219.653L198.048 291.735H195.898L205.606 219.653L207.039 207.836H213.366Z" fill="#C7C7C7"/>
<path d="M207.039 207.836H213.366L211.399 219.653H205.605L207.039 207.836Z" fill="#A6A6A6"/>
<path d="M255.285 291.735H253.136L239.785 219.653L237.817 207.836H244.145L245.578 219.653L255.285 291.735Z" fill="#C7C7C7"/>
<path d="M244.145 207.836L245.578 219.653H239.785L237.817 207.836H244.145Z" fill="#A6A6A6"/>
<path d="M295.324 291.735H293.168L279.824 219.653L277.85 207.836H284.177L285.617 219.653L295.324 291.735Z" fill="#C7C7C7"/>
<path d="M285.617 219.653H279.824L277.85 207.836H284.177L285.617 219.653Z" fill="#A6A6A6"/>
<path d="M291.911 213.386H194.101V203.084H230.713L249.783 96.2625H301.699L291.911 213.386Z" fill="#C7C7C7"/>
<path d="M291.492 203.084H194.101V213.386H291.857L291.492 203.084Z" fill="#DBDBDB"/>
<path d="M291.911 213.386H286.577L296.623 96.2625H301.699L291.911 213.386Z" fill="#DBDBDB"/>
<path d="M293.121 81.3093C291.614 79.6531 285.442 75.0225 280.108 72.5213C277.526 71.2842 269.725 68.5329 268.616 70.446C267.507 72.3591 269.731 73.3663 269.731 73.3663C269.731 73.3663 266.257 72.6903 265.331 74.7183C264.405 76.7463 267.886 78.1997 267.886 78.1997C267.886 78.1997 264.276 77.7738 263.492 79.8559C262.708 81.938 266.46 82.8168 266.46 82.8168C266.46 82.8168 263.174 82.276 263.255 84.2634C263.35 86.6565 269.515 86.9674 272.307 88.4884C272.942 88.8264 284.664 96.3368 284.664 96.3368L293.121 81.3093Z" fill="#EB9481"/>
<path d="M266.507 82.8371C271.043 83.0804 272.99 83.9795 276.647 86.5686C276.721 86.6159 276.809 86.5213 276.741 86.4604C273.402 83.6009 271.124 82.1273 266.52 82.614C266.284 82.641 266.291 82.8235 266.507 82.8371Z" fill="#263238"/>
<path d="M267.697 78.0982C272.388 78.7742 274.504 79.7139 278.513 82.1542C278.573 82.1542 278.634 82.0934 278.58 82.0528C274.835 79.3488 272.537 77.9225 267.764 77.8752C267.568 77.8616 267.501 78.0644 267.697 78.0982Z" fill="#263238"/>
<path d="M270.117 73.4068C274.612 74.3802 276.978 75.3199 280.575 78.1794C280.662 78.247 280.771 78.132 280.69 78.0577C277.31 74.7791 274.362 73.5826 270.164 73.2716C269.874 73.2513 269.833 73.346 270.117 73.4068Z" fill="#263238"/>
<path d="M286.624 98.8785C286.624 98.8785 280.973 98.1552 278.559 97.2899C276.146 96.4246 268.372 89.908 269.677 88.1369C271.374 85.8588 276.619 88.7385 279.006 90.4826C279.006 90.4826 282.926 85.2098 287.118 86.4604C291.309 87.711 286.624 98.8785 286.624 98.8785Z" fill="#EB9481"/>
<path d="M270.346 87.6637C273.395 86.7038 276.376 89.1982 278.817 90.7192C278.852 90.7434 278.892 90.7587 278.935 90.7637C278.977 90.7688 279.02 90.7634 279.06 90.7481C279.1 90.7328 279.136 90.708 279.164 90.6759C279.192 90.6438 279.212 90.6053 279.222 90.5637C281.014 88.4614 284.15 86.021 287.05 86.3049C287.068 86.3049 287.085 86.2978 287.098 86.2851C287.111 86.2724 287.118 86.2553 287.118 86.2373C287.118 86.2194 287.111 86.2022 287.098 86.1895C287.085 86.1768 287.068 86.1697 287.05 86.1697C283.981 85.4464 280.703 87.5961 278.884 90.0229C276.41 88.4208 273.307 86.0548 270.312 87.6366C270.319 87.6434 270.333 87.6704 270.346 87.6637Z" fill="#263238"/>
<path d="M238.852 75.5904C240.88 74.6913 248.755 72.2983 254.656 72.1428C257.516 72.0684 265.763 72.7241 265.993 74.9211C266.223 77.1181 263.789 77.1384 263.789 77.1384C263.789 77.1384 267.23 77.9361 267.257 80.1601C267.284 82.3842 263.505 82.3031 263.505 82.3031C263.505 82.3031 266.98 83.3779 266.851 85.6019C266.723 87.826 262.931 87.1027 262.931 87.1027C262.931 87.1027 266.155 87.9409 265.276 89.7255C264.215 91.8752 258.449 89.6579 255.285 89.9013C254.569 89.9554 240.812 92.051 240.812 92.051L238.852 75.5904Z" fill="#EB9481"/>
<path d="M262.876 87.1296C258.631 85.514 256.488 85.541 252.108 86.4536C252.02 86.4536 251.973 86.3522 252.06 86.3252C256.279 85.0678 258.956 84.6487 262.964 86.9674C263.16 87.0417 263.079 87.204 262.876 87.1296Z" fill="#263238"/>
<path d="M263.695 82.3098C259.138 81.0119 256.82 81.0186 252.162 81.6338C252.094 81.6338 252.074 81.5324 252.162 81.5189C256.685 80.5589 259.361 80.1669 263.749 82.1002C263.924 82.1543 263.904 82.3706 263.695 82.3098Z" fill="#263238"/>
<path d="M263.411 77.064C258.909 76.1244 256.367 76.023 251.919 77.1722C251.909 77.1757 251.898 77.1772 251.887 77.1766C251.876 77.176 251.866 77.1733 251.856 77.1685C251.846 77.1638 251.838 77.1573 251.83 77.1492C251.823 77.1411 251.818 77.1317 251.814 77.1215C251.811 77.1113 251.809 77.1005 251.81 77.0897C251.81 77.0789 251.813 77.0683 251.818 77.0586C251.823 77.0489 251.829 77.0402 251.837 77.033C251.845 77.0258 251.855 77.0203 251.865 77.0167C256.293 75.4011 259.463 75.5025 263.431 76.9221C263.695 77.0032 263.695 77.1046 263.411 77.064Z" fill="#263238"/>
<path d="M237.952 93.6058C237.952 93.6058 243.407 95.2417 245.956 95.431C248.505 95.6202 258.293 92.8351 257.813 90.699C257.184 87.9274 251.222 88.4276 248.349 89.0563C248.349 89.0563 246.909 82.6411 242.556 82.0732C238.202 81.5054 237.952 93.6058 237.952 93.6058Z" fill="#EB9481"/>
<path d="M257.401 89.9824C255.008 87.8598 251.269 88.9278 248.423 89.3064C248.381 89.3147 248.338 89.3127 248.297 89.3005C248.256 89.2883 248.218 89.2662 248.188 89.2363C248.157 89.2063 248.134 89.1693 248.121 89.1285C248.108 89.0878 248.105 89.0444 248.113 89.0022C247.335 86.359 245.463 82.8506 242.705 81.9312C242.623 81.9312 242.65 81.7825 242.705 81.8028C245.807 82.3842 247.93 85.6763 248.599 88.6372C251.513 88.1775 255.312 87.2852 257.387 89.9351C257.435 89.9756 257.421 89.9959 257.401 89.9824Z" fill="#263238"/>
<path d="M254.399 117.09C238.933 112.912 214.576 98.9259 216.814 92.1929C218.984 85.6492 228.117 78.8081 239.798 75.1712C241.501 74.6372 241.15 78.2132 241.941 84.4459C242.326 87.3933 247.498 95.3363 245.003 95.316C243.699 95.3556 242.414 95.6424 241.217 96.161C240.305 96.5125 251.276 103.84 257.408 108.437C265.668 114.602 261.004 118.868 254.399 117.09Z" fill="#EB9481"/>
<path d="M232.071 112.345L249.215 101.61C249.215 101.61 259.51 107.869 262.059 111.337C264.607 114.805 262.599 118.557 254.623 118.564C245.449 118.57 232.071 112.345 232.071 112.345Z" fill="#219EBC"/>
<g opacity="0.1">
<path d="M253.601 104.435H244.712L246.294 103.448H252.121L253.601 104.435Z" fill="black"/>
<path d="M258.124 107.68H239.521L241.096 106.693H256.819L258.124 107.68Z" fill="black"/>
<path d="M261.714 110.918H234.35L235.925 109.931H260.774C261.133 110.276 261.45 110.607 261.714 110.918Z" fill="black"/>
<path d="M263.086 114.163H236.397C235.458 113.798 234.633 113.487 233.964 113.176H262.964C263.053 113.497 263.094 113.83 263.086 114.163Z" fill="black"/>
<path d="M262.113 116.421C261.719 116.819 261.262 117.151 260.761 117.401H246.403C245.199 117.103 244.009 116.772 242.854 116.421H262.113Z" fill="black"/>
</g>
<path d="M236.6 113.663C243.502 109.444 250.336 104.685 251.472 103.759C251.519 103.719 251.472 103.644 251.404 103.671C246.253 106.672 241.287 109.979 236.532 113.575C236.521 113.584 236.513 113.597 236.511 113.612C236.509 113.626 236.513 113.641 236.522 113.653C236.531 113.664 236.544 113.672 236.559 113.674C236.574 113.676 236.588 113.672 236.6 113.663Z" fill="#263238"/>
<path d="M254.609 118.564C251.241 118.456 247.901 117.913 244.672 116.948C249.154 113.94 254.481 110.391 258.381 107.883C259.74 108.882 260.972 110.042 262.052 111.337C264.594 114.798 262.593 118.557 254.609 118.564Z" fill="#263238"/>
<path d="M197.886 305.471C199.792 305.653 251.581 293.303 253.21 291.64C253.413 291.451 252.392 286.746 250.898 280.324V280.195C249.958 276.139 234.877 243.218 234.877 243.218L201.307 252.574L216.557 283.109C216.557 283.109 210.237 287.672 204.829 292.032C201.482 294.695 198.596 297.082 197.988 297.859C196.358 299.867 195.993 305.302 197.886 305.471Z" fill="#EB9481"/>
<path d="M197.893 305.464C199.785 305.647 251.574 293.296 253.216 291.64C253.412 291.451 252.392 286.746 250.898 280.324V280.202C250.56 278.688 248.234 273.151 245.49 266.817C239.967 268.298 220.16 273.652 212.967 275.876L216.584 283.116C216.584 283.116 210.236 287.679 204.828 292.032C201.482 294.689 198.596 297.082 197.987 297.852C196.358 299.867 195.986 305.309 197.893 305.464Z" fill="#EBEBEB"/>
<path d="M197.717 305.714C199.678 305.883 251.5 293.411 253.149 291.687C253.785 291.011 252.642 282.859 249.803 274.192L216.402 282.304C216.402 282.304 199.346 295.824 197.71 297.893C196.074 299.962 195.763 305.552 197.717 305.714Z" fill="#219EBC"/>
<path d="M197.96 303.463C206.6 301.158 241.65 292.647 250.357 291.059C250.431 291.059 250.445 291.092 250.357 291.113C241.853 293.58 206.735 301.78 197.981 303.605C197.812 303.646 197.778 303.524 197.96 303.463Z" fill="#263238"/>
<path d="M200.617 295.202C201.577 294.944 202.58 294.887 203.563 295.036C204.547 295.185 205.488 295.536 206.329 296.068C207.844 297.015 208.938 298.508 209.384 300.239C209.384 300.293 209.303 300.32 209.283 300.239C208.573 298.589 207.347 297.215 205.789 296.322C204.231 295.428 202.426 295.064 200.644 295.284C200.636 295.281 200.629 295.276 200.623 295.27C200.617 295.265 200.613 295.257 200.61 295.25C200.608 295.242 200.607 295.233 200.608 295.225C200.609 295.217 200.612 295.209 200.617 295.202Z" fill="#263238"/>
<path d="M213.914 283.798C217.382 282.913 221.708 283.17 224.554 285.495C224.663 285.59 224.554 285.738 224.419 285.711C220.993 284.851 217.485 284.36 213.955 284.244C213.903 284.237 213.856 284.213 213.82 284.176C213.784 284.138 213.762 284.089 213.757 284.038C213.752 283.986 213.765 283.934 213.794 283.89C213.822 283.847 213.865 283.815 213.914 283.798Z" fill="#263238"/>
<path d="M211.48 285.495C214.948 284.61 219.275 284.866 222.121 287.192C222.229 287.28 222.121 287.435 221.985 287.408C218.561 286.551 215.056 286.061 211.528 285.948C211.498 285.951 211.468 285.948 211.439 285.94C211.411 285.931 211.384 285.917 211.361 285.898C211.337 285.88 211.318 285.856 211.304 285.83C211.29 285.804 211.281 285.775 211.278 285.745C211.274 285.715 211.277 285.685 211.286 285.657C211.294 285.628 211.308 285.601 211.327 285.578C211.346 285.555 211.369 285.536 211.396 285.521C211.422 285.507 211.451 285.498 211.48 285.495Z" fill="#263238"/>
<path d="M209.047 287.185C212.515 286.3 216.841 286.556 219.687 288.882C219.795 288.97 219.687 289.125 219.552 289.098C216.129 288.235 212.623 287.743 209.094 287.631C209.042 287.625 208.994 287.602 208.957 287.565C208.92 287.528 208.897 287.479 208.892 287.427C208.886 287.375 208.899 287.323 208.927 287.279C208.955 287.235 208.998 287.202 209.047 287.185Z" fill="#263238"/>
<path d="M206.62 288.882C210.081 287.996 214.407 288.253 217.253 290.572C217.361 290.666 217.253 290.822 217.118 290.795C213.694 289.935 210.188 289.444 206.66 289.328C206.601 289.333 206.542 289.315 206.497 289.277C206.451 289.239 206.422 289.184 206.417 289.125C206.412 289.066 206.43 289.007 206.468 288.962C206.506 288.916 206.561 288.887 206.62 288.882Z" fill="#263238"/>
<path d="M246.159 283.339C250.066 282.413 251.513 288.476 247.606 289.423C243.698 290.369 242.252 284.265 246.159 283.339Z" fill="#263238"/>
<path d="M209.425 280.459C211.886 282.426 215.111 283.264 217.997 284.38C218.063 284.399 218.133 284.402 218.201 284.389C218.269 284.376 218.333 284.348 218.387 284.305C218.442 284.263 218.486 284.209 218.516 284.147C218.545 284.084 218.56 284.016 218.558 283.947C218.573 283.947 218.587 283.943 218.6 283.937C218.612 283.93 218.623 283.92 218.631 283.908C218.639 283.896 218.644 283.882 218.646 283.868C218.647 283.853 218.645 283.839 218.639 283.825C217.618 280.702 215.789 277.904 213.339 275.713C211.893 274.456 209.331 273.564 207.931 275.45C206.593 277.207 207.992 279.31 209.425 280.459ZM208.574 277.613C208.006 273.746 212.123 275.835 213.15 276.802C213.808 277.436 214.422 278.113 214.989 278.83C216.132 280.335 217.199 281.896 218.186 283.508C216.801 282.872 215.374 282.358 213.968 281.777C212.265 281.094 208.885 279.749 208.574 277.613Z" fill="#263238"/>
<path d="M230.456 278.634C229.638 276.43 226.927 276.558 225.183 277.356C222.211 278.771 219.665 280.944 217.801 283.656C217.793 283.668 217.788 283.682 217.786 283.696C217.784 283.711 217.785 283.725 217.79 283.739C217.795 283.753 217.802 283.765 217.812 283.775C217.822 283.786 217.835 283.793 217.848 283.798C217.827 283.864 217.822 283.933 217.832 284.001C217.843 284.069 217.869 284.134 217.91 284.19C217.95 284.246 218.002 284.291 218.063 284.323C218.124 284.355 218.192 284.372 218.261 284.373C221.343 284.116 224.676 284.224 227.59 283.021C229.293 282.331 231.233 280.716 230.456 278.634ZM222.858 283.028C221.343 283.19 219.829 283.278 218.322 283.494C219.725 282.226 221.191 281.03 222.716 279.911C223.458 279.374 224.24 278.892 225.055 278.471C226.312 277.836 230.848 276.998 229.212 280.547C228.313 282.5 224.663 282.832 222.858 283.028Z" fill="#263238"/>
<path d="M213.563 279.134L249.208 269.589C249.208 269.589 217.882 204.632 220.411 201.056C221.675 199.271 255.083 197.764 265.446 188.428C278.905 176.308 269.11 158.684 269.11 158.684H231.754C231.754 158.684 232.43 166.478 231.01 167.695C230.077 168.506 185.718 173.57 181.277 188.726C175.835 207.309 213.563 279.134 213.563 279.134Z" fill="#263238"/>
<path d="M212.94 273.908C213.886 273.469 214.862 273.099 215.861 272.8C216.895 272.441 217.936 272.083 218.97 271.738C220.998 271.062 223.08 270.427 225.149 269.832C229.32 268.629 233.491 267.453 237.696 266.357C239.886 265.79 244.571 264.553 244.868 264.593C245.003 264.593 245.037 264.85 244.915 264.897C240.859 266.371 236.736 267.635 232.619 268.92C228.502 270.204 224.385 271.455 220.214 272.529C219.058 272.827 217.896 273.097 216.74 273.381C215.53 273.739 214.297 274.01 213.049 274.192C212.94 274.199 212.805 273.969 212.94 273.908Z" fill="#455A64"/>
<path d="M213.934 198.149C214.671 197.473 215.793 197.379 216.726 197.189L232.808 194.012C237.824 193.018 242.874 192.112 247.862 190.99C251.993 190.064 256.184 188.861 259.713 186.495C263.166 184.17 265.668 180.682 266.763 176.666C267.906 172.671 267.865 168.412 267.351 164.322C267.223 163.322 267.007 162.328 266.79 161.341C266.79 161.267 266.899 161.24 266.912 161.341C268.507 168.953 268.893 177.835 263.343 184.102C260.639 187.157 256.846 189.023 252.966 190.267C248.579 191.68 243.982 192.423 239.446 193.316L223.364 196.493C220.782 197 218.159 197.419 215.604 198.034C215.085 198.116 214.602 198.352 214.218 198.71C214.04 198.986 213.931 199.302 213.902 199.629C213.872 199.956 213.923 200.286 214.049 200.59C214.346 201.847 214.725 203.097 215.124 204.328C218.369 214.292 241.096 261.47 241.711 262.558C241.778 262.673 241.596 262.768 241.528 262.653C236.323 253.987 219.383 217.564 215.84 208.154C214.909 205.746 214.135 203.28 213.522 200.772C213.305 199.866 213.17 198.852 213.934 198.149Z" fill="#455A64"/>
<path d="M106.666 306.769C108.438 307.479 161.605 310.196 163.646 309.04C163.89 308.918 164.235 304.112 164.6 297.548L164.87 291.342C164.965 289.247 192.336 258.739 192.336 258.739L154.176 256.434L130.84 290.565C130.84 290.565 123.492 293.168 117.077 295.804C113.102 297.44 109.668 298.893 108.836 299.468C106.808 300.962 104.889 306.079 106.666 306.769Z" fill="#EB9481"/>
<path d="M171.846 282.169C167.871 286.901 164.904 290.64 164.877 291.329L164.6 297.535C164.235 304.112 163.89 308.919 163.646 309.027C161.618 310.183 108.438 307.465 106.66 306.762C104.882 306.059 106.768 300.949 108.863 299.455C109.668 298.887 113.109 297.427 117.063 295.784C123.472 293.154 130.82 290.552 130.82 290.552L137.58 280.696L171.846 282.169Z" fill="#EBEBEB"/>
<path d="M106.43 306.958C108.262 307.675 161.504 310.257 163.599 309.074C164.397 308.628 165.627 300.462 165.303 291.349L130.975 289.72C130.975 289.72 110.81 297.886 108.667 299.427C106.524 300.969 104.605 306.228 106.43 306.958Z" fill="#219EBC"/>
<path d="M107.302 304.876C116.238 305.086 152.256 306.796 161.071 307.688C161.145 307.688 161.145 307.742 161.071 307.742C152.208 307.742 116.205 305.714 107.295 305.038C107.106 304.998 107.112 304.876 107.302 304.876Z" fill="#263238"/>
<path d="M112.169 297.683C113.164 297.704 114.143 297.932 115.045 298.352C115.947 298.773 116.752 299.376 117.408 300.124C118.598 301.457 119.228 303.198 119.165 304.984C119.165 305.038 119.064 305.031 119.057 304.984C118.84 303.203 118.051 301.54 116.81 300.244C115.568 298.949 113.939 298.091 112.169 297.798C112.154 297.798 112.139 297.792 112.128 297.781C112.117 297.771 112.111 297.756 112.111 297.741C112.111 297.726 112.117 297.711 112.128 297.7C112.139 297.689 112.154 297.683 112.169 297.683Z" fill="#263238"/>
<path d="M128.137 290.477C131.706 290.599 135.789 292.066 137.864 295.094C137.945 295.209 137.776 295.324 137.675 295.263C134.63 293.475 131.403 292.018 128.049 290.917C128.001 290.895 127.962 290.859 127.939 290.812C127.915 290.766 127.907 290.713 127.918 290.662C127.928 290.611 127.955 290.565 127.995 290.531C128.035 290.498 128.085 290.479 128.137 290.477Z" fill="#263238"/>
<path d="M125.325 291.417C128.901 291.545 132.977 293.005 135.059 296.034C135.133 296.149 134.971 296.264 134.863 296.203C131.821 294.415 128.596 292.958 125.243 291.856C125.185 291.845 125.134 291.812 125.1 291.763C125.066 291.714 125.054 291.654 125.064 291.596C125.075 291.538 125.108 291.486 125.157 291.452C125.206 291.419 125.266 291.406 125.325 291.417Z" fill="#263238"/>
<path d="M122.512 292.363C126.088 292.485 130.171 293.945 132.246 296.974C132.328 297.095 132.159 297.204 132.057 297.149C129.014 295.357 125.787 293.897 122.431 292.796C122.381 292.778 122.34 292.743 122.313 292.697C122.287 292.651 122.278 292.597 122.288 292.545C122.298 292.493 122.326 292.447 122.367 292.413C122.408 292.38 122.459 292.362 122.512 292.363Z" fill="#263238"/>
<path d="M119.7 293.303C123.276 293.425 127.359 294.885 129.434 297.92C129.515 298.035 129.346 298.15 129.245 298.089C126.211 296.301 122.996 294.842 119.653 293.735C119.605 293.719 119.564 293.687 119.537 293.644C119.51 293.601 119.498 293.551 119.503 293.5C119.509 293.45 119.531 293.403 119.567 293.367C119.603 293.331 119.65 293.309 119.7 293.303Z" fill="#263238"/>
<path d="M159.212 299.096C163.221 299.299 162.903 305.532 158.887 305.322C154.872 305.113 155.196 298.887 159.212 299.096Z" fill="#263238"/>
<path d="M124.763 286.009C126.575 288.591 129.435 290.295 131.895 292.181C131.954 292.221 132.021 292.247 132.092 292.255C132.162 292.264 132.234 292.255 132.301 292.23C132.367 292.204 132.426 292.163 132.474 292.11C132.521 292.057 132.554 291.993 132.571 291.924C132.585 291.927 132.6 291.927 132.614 291.923C132.628 291.92 132.641 291.914 132.652 291.904C132.663 291.895 132.672 291.884 132.678 291.871C132.684 291.858 132.686 291.844 132.686 291.829C132.571 288.548 131.597 285.354 129.86 282.568C128.826 280.959 126.616 279.377 124.736 280.79C122.857 282.203 123.709 284.501 124.763 286.009ZM124.763 283.041C125.311 279.174 128.671 282.325 129.387 283.548C129.841 284.342 130.238 285.167 130.577 286.016C131.253 287.788 131.84 289.593 132.335 291.424C131.185 290.423 129.955 289.531 128.772 288.578C127.339 287.422 124.446 285.171 124.743 283.041H124.763Z" fill="#263238"/>
<path d="M145.462 290.166C145.293 287.82 142.656 287.185 140.73 287.462C137.481 287.989 134.427 289.359 131.874 291.437C131.863 291.446 131.854 291.457 131.848 291.47C131.841 291.483 131.838 291.497 131.838 291.511C131.838 291.526 131.841 291.54 131.848 291.553C131.854 291.566 131.863 291.577 131.874 291.586C131.832 291.643 131.805 291.709 131.794 291.779C131.783 291.848 131.79 291.92 131.813 291.987C131.837 292.053 131.876 292.113 131.928 292.161C131.98 292.209 132.043 292.244 132.111 292.262C135.146 292.89 138.31 293.932 141.44 293.614C143.312 293.384 145.617 292.383 145.462 290.166ZM136.938 292.248C135.437 291.978 133.956 291.633 132.449 291.424C134.152 290.599 135.896 289.862 137.674 289.213C138.538 288.911 139.421 288.67 140.318 288.49C141.71 288.233 146.3 288.706 143.731 291.653C142.318 293.276 138.722 292.573 136.938 292.248Z" fill="#263238"/>
<path d="M129.211 283.413L171.846 288.652C171.846 288.652 214.008 238.209 217.415 234.849C227.975 224.439 265.831 206.457 277.127 189.76C287.267 174.746 276.998 158.705 276.998 158.705H235.37C236.437 163.139 237.857 167.482 239.615 171.691C239.615 171.691 205.038 197.723 186.61 216.307C174.733 228.292 129.211 283.413 129.211 283.413Z" fill="#263238"/>
<path d="M232.213 169C233.43 169.234 234.622 169.578 235.776 170.028C236.979 170.447 238.169 170.933 239.338 171.454C241.629 172.508 243.861 173.686 246.024 174.983C246.092 175.023 246.024 175.118 245.963 175.084C243.678 173.982 241.326 173.002 238.967 172.062L235.587 170.71C234.416 170.304 233.268 169.837 232.146 169.311C231.977 169.27 232.051 169 232.213 169Z" fill="#455A64"/>
<path d="M234.403 158.691C234.937 160.577 235.411 162.477 236.005 164.342C236.283 165.194 236.553 166.066 236.905 166.898C237.202 167.574 237.641 168.385 238.466 168.52C239.412 168.676 239.663 167.844 239.561 167.087C239.418 166.217 239.231 165.355 239 164.505C238.777 163.524 237.648 158.765 237.648 158.738C237.648 158.711 237.648 158.65 237.695 158.596C237.707 158.586 237.721 158.581 237.736 158.581C237.751 158.581 237.765 158.586 237.777 158.596C237.959 158.691 239.129 162.348 239.372 163.254C239.615 164.16 239.879 165.072 240.129 165.958C240.386 166.627 240.472 167.35 240.379 168.06C240.302 168.398 240.119 168.703 239.856 168.929C239.593 169.156 239.265 169.292 238.919 169.318C238.953 169.379 238.993 169.433 239.027 169.5C239.115 169.683 239.183 169.879 239.257 170.068C239.331 170.257 239.406 170.46 239.473 170.656C239.5 170.752 239.52 170.849 239.534 170.947C239.534 171.062 239.534 171.17 239.534 171.278C239.549 171.317 239.549 171.36 239.532 171.398C239.516 171.436 239.485 171.466 239.446 171.481C239.408 171.496 239.365 171.495 239.327 171.479C239.289 171.463 239.259 171.432 239.243 171.393C239.189 171.298 239.115 171.224 239.054 171.129C238.996 171.031 238.948 170.927 238.912 170.818C238.845 170.629 238.784 170.44 238.73 170.251C238.676 170.061 238.608 169.865 238.567 169.676C238.545 169.56 238.529 169.442 238.52 169.324C238.122 169.3 237.739 169.167 237.412 168.939C236.864 168.497 236.454 167.909 236.229 167.242C235.918 166.458 235.674 165.647 235.424 164.843C234.784 162.859 234.32 160.823 234.038 158.759C234.029 158.71 234.04 158.66 234.068 158.62C234.096 158.579 234.139 158.551 234.187 158.542C234.235 158.533 234.285 158.544 234.326 158.572C234.367 158.6 234.394 158.643 234.403 158.691Z" fill="#455A64"/>
<path d="M259.274 162.605C259.477 163.538 259.612 164.484 259.855 165.417C260.099 166.35 260.369 167.229 260.7 168.121C260.993 168.98 261.407 169.793 261.931 170.534C262.471 171.233 263.111 171.848 263.83 172.36C265.202 173.383 266.732 174.176 268.359 174.705C269.178 174.985 270.013 175.21 270.861 175.381C271.3 175.463 271.739 175.53 272.213 175.571C272.579 175.574 272.942 175.647 273.281 175.787C273.313 175.806 273.34 175.833 273.358 175.866C273.377 175.899 273.386 175.935 273.386 175.973C273.386 176.01 273.377 176.047 273.358 176.08C273.34 176.112 273.313 176.14 273.281 176.159C272.646 176.368 271.969 176.41 271.314 176.28C269.148 176.126 267.046 175.486 265.162 174.408C263.892 173.736 262.748 172.848 261.782 171.785C260.863 170.665 260.213 169.349 259.882 167.939C259.395 166.221 259.147 164.444 259.146 162.659C259.15 162.647 259.157 162.635 259.166 162.626C259.175 162.616 259.186 162.609 259.198 162.604C259.21 162.599 259.223 162.596 259.236 162.596C259.249 162.597 259.262 162.6 259.274 162.605Z" fill="#455A64"/>
<path d="M138.58 277.16C139.731 277.13 140.883 277.176 142.028 277.295C143.238 277.376 144.441 277.451 145.645 277.545C148.017 277.741 150.377 277.958 152.743 278.221C157.475 278.762 162.261 279.323 166.999 279.979C169.474 280.324 174.78 281.033 175.064 281.189C175.093 281.208 175.114 281.235 175.127 281.267C175.139 281.299 175.14 281.334 175.131 281.367C175.122 281.4 175.103 281.429 175.076 281.451C175.05 281.472 175.017 281.485 174.983 281.486C170.251 281.236 165.519 280.777 160.787 280.33C156.055 279.884 151.323 279.418 146.591 278.762C145.293 278.58 143.995 278.363 142.69 278.167C141.306 278.022 139.933 277.785 138.58 277.457C138.452 277.403 138.425 277.16 138.58 277.16Z" fill="#455A64"/>
<path d="M230.361 225.108C228.151 226.528 226.014 228.055 223.872 229.57C221.826 230.902 219.862 232.355 217.99 233.923C217.068 234.791 216.199 235.715 215.388 236.688L212.846 239.629C211.149 241.582 209.466 243.556 207.796 245.537C206.85 246.65 205.91 247.777 204.977 248.917C204.004 250.086 203.098 251.317 202.118 252.486C202.106 252.501 202.1 252.519 202.102 252.538C202.103 252.556 202.111 252.574 202.125 252.587C202.139 252.6 202.157 252.607 202.175 252.607C202.194 252.607 202.212 252.6 202.226 252.587C203.957 250.634 205.795 248.761 207.526 246.801C209.256 244.84 210.987 242.88 212.697 240.893C214.408 238.905 215.935 236.992 217.693 235.174C219.49 233.474 221.441 231.945 223.52 230.604C225.886 228.914 228.252 227.224 230.571 225.46C230.767 225.311 230.584 224.986 230.361 225.108Z" fill="#455A64"/>
<path d="M238.946 171.981C231.834 176.97 224.479 182.547 217.794 188.084C211.108 193.62 204.49 199.271 198.028 205.085C196.225 206.707 194.422 208.352 192.62 210.02C190.821 211.696 189.064 213.799 187.266 215.475C187.171 215.563 187.32 215.705 187.414 215.617C190.666 212.703 194.026 209.533 197.318 206.667C200.61 203.801 203.875 200.988 207.167 198.169C213.783 192.505 220.482 186.937 227.265 181.465C231.023 178.417 235.377 175.334 239.095 172.191C239.237 172.089 239.068 171.887 238.946 171.981Z" fill="#455A64"/>
<path d="M275.734 163.592C275.328 162.396 274.895 161.206 274.449 160.016C274.449 159.948 274.314 160.016 274.341 160.05C276.018 164.998 277.721 170.068 277.91 175.341C278.028 177.866 277.661 180.39 276.829 182.777C275.96 185.058 274.671 187.156 273.03 188.962C269.717 192.701 265.506 195.648 261.538 198.629C257.211 201.869 252.815 205.024 248.349 208.093C243.901 211.149 239.338 214.062 234.728 216.881C230.117 219.7 225.453 222.242 220.87 224.993C218.647 226.306 216.568 227.847 214.664 229.59C212.744 231.388 211.027 233.382 209.296 235.363C205.592 239.595 201.924 243.858 198.291 248.153C190.995 256.716 183.845 265.407 176.842 274.226C175.985 275.299 175.129 276.378 174.273 277.464C174.232 277.518 174.273 277.593 174.347 277.539C181.558 268.71 188.847 259.945 196.216 251.242C199.875 246.916 203.555 242.612 207.255 238.331C210.804 234.234 214.218 229.887 218.747 226.839C220.93 225.351 223.263 224.087 225.554 222.783C227.956 221.431 230.336 220.038 232.693 218.605C237.393 215.779 242.017 212.85 246.564 209.817C251.087 206.788 255.548 203.686 259.929 200.448C262.11 198.834 264.278 197.189 266.432 195.513C268.295 194.104 270.08 192.594 271.779 190.99C273.459 189.402 274.903 187.581 276.065 185.582C277.234 183.469 277.959 181.138 278.194 178.734C278.708 173.577 277.363 168.419 275.734 163.592Z" fill="#455A64"/>
<path d="M228.637 166.019C229.381 167.438 281.365 179.458 281.73 179.221C282.636 178.545 285.617 130.941 271.901 109.647C269.488 105.895 263.62 105.199 260.598 105.983C259.091 106.375 252.892 111.655 250.053 116.934C247.214 122.214 228.177 165.113 228.637 166.019Z" fill="#219EBC"/>
<g opacity="0.1">
<path d="M269.974 107.68H258.002C258.475 107.288 258.915 106.957 259.3 106.693H268.189C268.821 106.951 269.42 107.282 269.974 107.68Z" fill="black"/>
<path d="M272.678 110.918H254.555C254.872 110.573 255.197 110.242 255.515 109.931H272.077C272.286 110.256 272.482 110.58 272.678 110.918Z" fill="black"/>
<path d="M274.395 114.163H251.83C252.073 113.825 252.33 113.487 252.587 113.176H273.908C274.077 113.5 274.233 113.832 274.395 114.163Z" fill="black"/>
<path d="M275.809 117.401H249.816L250.053 116.935C250.148 116.766 250.242 116.59 250.344 116.421H275.396C275.531 116.745 275.667 117.07 275.809 117.401Z" fill="black"/>
<path d="M276.971 120.646H248.241C248.41 120.294 248.566 119.97 248.708 119.659H276.633C276.748 119.983 276.863 120.328 276.971 120.646Z" fill="black"/>
<path d="M277.971 123.891H246.74L247.193 122.904H277.681C277.782 123.228 277.877 123.559 277.971 123.891Z" fill="black"/>
<path d="M278.823 127.129H245.26C245.408 126.791 245.557 126.453 245.706 126.142H278.58L278.823 127.129Z" fill="black"/>
<path d="M279.56 130.373H243.786C243.935 130.042 244.09 129.697 244.232 129.386H279.344C279.418 129.711 279.492 130.042 279.56 130.373Z" fill="black"/>
<path d="M280.182 133.618H242.326C242.475 133.287 242.617 132.942 242.766 132.631H280C280.067 132.956 280.128 133.287 280.182 133.618Z" fill="black"/>
<path d="M280.729 136.856H240.886C241.034 136.525 241.176 136.18 241.325 135.869H280.54L280.729 136.856Z" fill="black"/>
<path d="M281.216 140.101H239.446C239.588 139.776 239.737 139.425 239.879 139.114H281.054C281.101 139.445 281.142 139.77 281.216 140.101Z" fill="black"/>
<path d="M281.574 143.312H238.02C238.161 142.981 238.303 142.636 238.452 142.325H281.459C281.5 142.683 281.534 143.008 281.574 143.312Z" fill="black"/>
<path d="M281.893 146.584H236.601C236.736 146.259 236.885 145.908 237.026 145.597H281.798C281.832 145.928 281.893 146.253 281.893 146.584Z" fill="black"/>
<path d="M282.149 149.829H235.188C235.323 149.504 235.471 149.153 235.613 148.842H282.075C282.102 149.173 282.129 149.497 282.149 149.829Z" fill="black"/>
<path d="M282.352 153.067H233.788L234.207 152.08H282.298C282.318 152.411 282.332 152.776 282.352 153.067Z" fill="black"/>
<path d="M282.494 156.312H232.402L232.821 155.325H282.46C282.474 155.656 282.487 155.987 282.494 156.312Z" fill="black"/>
<path d="M282.568 159.536H231.043L231.455 158.549H282.568V159.536Z" fill="black"/>
<path d="M282.636 162.794H229.732C229.847 162.483 229.983 162.152 230.118 161.807H282.629C282.636 162.139 282.636 162.47 282.636 162.794Z" fill="black"/>
<path d="M282.636 165.052C282.636 165.383 282.636 165.728 282.636 166.039H228.65C228.671 165.705 228.753 165.377 228.894 165.073L282.636 165.052Z" fill="black"/>
<path d="M282.568 168.324C282.568 168.662 282.568 169 282.568 169.311H239.304C237.952 168.966 236.728 168.635 235.586 168.324H282.568Z" fill="black"/>
<path d="M282.487 171.535C282.487 171.873 282.487 172.211 282.446 172.522H252.351C250.999 172.191 249.647 171.846 248.295 171.535H282.487Z" fill="black"/>
<path d="M282.311 174.773C282.311 175.118 282.264 175.449 282.237 175.76H266.013L261.788 174.773H282.311Z" fill="black"/>
<path d="M282 178.018C281.967 178.351 281.908 178.681 281.824 179.005H280.472C279.458 178.802 277.883 178.457 275.902 178.018H282Z" fill="black"/>
</g>
<path d="M269.555 120.598C278.904 119.841 294.398 116.488 302.828 111.81C307.884 108.985 308.648 105.192 308.912 102.542C309.588 95.6878 298.163 84.5608 292.16 80.4102C291.369 79.8626 290.22 83.8916 286.583 88.414C283.508 92.2469 277.708 96.5733 278.58 97.3102C279.864 98.3918 285.82 102.495 285.536 102.989C285.049 103.834 279.526 106.179 271.252 110.188C260.152 115.542 262.964 121.139 269.555 120.598Z" fill="#EB9481"/>
<path d="M294.148 117.955L278.113 105.625C278.113 105.625 267.263 110.871 264.404 114.075C261.544 117.279 263.174 121.207 271.123 121.984C280.236 122.87 294.148 117.955 294.148 117.955Z" fill="#219EBC"/>
<path d="M290.113 118.341C284.029 112.98 277.506 107.842 276.282 107.018C276.228 106.984 276.174 107.065 276.214 107.105C280.595 111.155 285.216 114.936 290.052 118.428C290.099 118.462 290.16 118.381 290.113 118.341Z" fill="#263238"/>
<path d="M280.398 120.734C279.189 120.94 278.037 121.401 277.018 122.086C276.535 122.446 276.101 122.869 275.727 123.343C275.534 123.57 275.362 123.815 275.213 124.073C275.062 124.318 274.933 124.576 274.828 124.844C274.828 124.905 274.896 124.938 274.93 124.898C275.126 124.702 275.288 124.472 275.491 124.276C275.693 124.08 275.876 123.87 276.085 123.681C276.511 123.28 276.963 122.907 277.437 122.566C278.332 121.832 279.351 121.264 280.446 120.889C280.456 120.886 280.465 120.881 280.474 120.874C280.482 120.867 280.489 120.859 280.494 120.85C280.499 120.84 280.502 120.83 280.503 120.819C280.504 120.809 280.503 120.798 280.5 120.788C280.497 120.777 280.492 120.768 280.485 120.76C280.478 120.752 280.47 120.745 280.46 120.74C280.451 120.735 280.441 120.732 280.43 120.73C280.419 120.729 280.409 120.731 280.398 120.734Z" fill="#263238"/>
<g opacity="0.1">
<path d="M280.783 107.68H274.104C274.78 107.315 275.456 107.004 275.984 106.693H279.499L280.783 107.68Z" fill="black"/>
<path d="M284.995 110.918H268.508C269.022 110.587 269.562 110.242 270.103 109.931H283.711L284.995 110.918Z" fill="black"/>
<path d="M289.213 114.163H264.316L264.391 114.075C264.685 113.754 265.002 113.454 265.337 113.176H287.922L289.213 114.163Z" fill="black"/>
<path d="M293.425 117.401H263.113C263.076 117.074 263.09 116.743 263.154 116.421H292.154L293.425 117.401Z" fill="black"/>
<path d="M288.558 119.652C287.355 119.976 286.01 120.328 284.583 120.639H265.831C265.296 120.377 264.798 120.045 264.351 119.652H288.558Z" fill="black"/>
</g>
<path d="M259.206 114.778C261.91 115.9 267.379 112.439 269.846 109.302C270.009 109.086 270.61 99.4599 270.928 97.5603C270.989 97.175 258.55 98.4662 258.55 98.4662C258.834 100.949 258.811 103.458 258.483 105.936C258.435 106.213 256.617 113.69 259.206 114.778Z" fill="#EB9481"/>
<path d="M258.273 106.7C258.273 106.74 258.273 106.781 258.232 106.828H258.293C258.67 106.948 259.057 107.034 259.449 107.085C265.939 108.018 269.441 100.433 270.556 97.4793C268.528 97.4184 258.55 98.4527 258.55 98.4527C258.834 100.936 258.811 103.445 258.483 105.923C258.483 106.017 258.449 106.105 258.435 106.186C258.397 106.362 258.343 106.534 258.273 106.7Z" fill="#263238"/>
<path d="M256.921 76.3002C256.921 76.3002 252.865 77.9361 252.081 82.0326C251.297 86.1292 252.189 90.4421 252.541 90.6584C252.892 90.8747 256.921 76.3002 256.921 76.3002Z" fill="#263238"/>
<path d="M272.556 82.4247C273.848 86.7037 271.569 99.0475 268.5 101.799C264.086 105.78 256.873 106.145 253.493 100.839C250.215 95.7013 253.493 79.6666 256.873 77.1789C261.903 73.4947 270.637 76.1108 272.556 82.4247Z" fill="#EB9481"/>
<path d="M252.635 87.1296C252.376 88.2627 252.218 89.4163 252.162 90.5772C252.081 91.7737 252.067 92.9703 252.074 94.1668C252.074 94.2344 252.182 94.2276 252.182 94.1668C252.182 92.9905 252.263 91.8143 252.364 90.6448C252.466 89.4753 252.655 88.3126 252.716 87.1431C252.723 87.0891 252.648 87.0891 252.635 87.1296Z" fill="#263238"/>
<path d="M260.261 89.908C260.261 89.8742 260.322 89.9553 260.315 89.9891C260.139 90.8206 260.078 91.794 260.781 92.2064C260.781 92.2064 260.781 92.2605 260.781 92.2537C259.882 91.936 259.977 90.6381 260.261 89.908Z" fill="#263238"/>
<path d="M261.18 89.1441C262.532 89.286 262.153 91.9833 260.896 91.8481C259.639 91.7129 260.037 89.0292 261.18 89.1441Z" fill="#263238"/>
<path d="M255.637 89.3604C255.637 89.3266 255.562 89.3604 255.562 89.4213C255.468 90.2663 255.224 91.2127 254.427 91.3884V91.4358C255.373 91.429 255.684 90.1716 255.637 89.3604Z" fill="#263238"/>
<path d="M255.008 88.3803C253.656 88.0896 253.196 90.7733 254.426 91.0437C255.657 91.3141 256.123 88.6236 255.008 88.3803Z" fill="#263238"/>
<path d="M262.416 88.0558C262.076 87.9035 261.744 87.732 261.423 87.542C261.047 87.4092 260.724 87.1577 260.503 86.8255C260.457 86.7076 260.45 86.5777 260.484 86.4557C260.519 86.3336 260.592 86.2261 260.693 86.1495C260.918 86.0287 261.171 85.97 261.427 85.9795C261.682 85.989 261.93 86.0663 262.146 86.2035C262.623 86.4133 263.004 86.7945 263.214 87.2716C263.254 87.3824 263.262 87.5024 263.236 87.6173C263.209 87.7321 263.151 87.8371 263.067 87.9197C262.983 88.0023 262.877 88.059 262.762 88.0832C262.646 88.1073 262.526 88.0978 262.416 88.0558Z" fill="#263238"/>
<path d="M254.177 86.8728C254.548 86.85 254.918 86.8072 255.285 86.7444C255.685 86.7537 256.076 86.6326 256.401 86.3996C256.479 86.307 256.528 86.1923 256.538 86.0713C256.549 85.9502 256.522 85.8288 256.461 85.7236C256.297 85.5343 256.085 85.3915 255.848 85.3097C255.611 85.2278 255.356 85.2097 255.109 85.2572C254.586 85.2845 254.092 85.5063 253.724 85.8791C253.654 85.9678 253.61 86.0739 253.597 86.1858C253.584 86.2977 253.601 86.411 253.648 86.5136C253.695 86.6161 253.769 86.7038 253.862 86.7672C253.955 86.8305 254.064 86.8671 254.177 86.8728Z" fill="#263238"/>
<path d="M260.193 97.7767C259.963 97.9457 259.727 98.1891 259.416 98.1756C259.105 98.1226 258.809 98.0076 258.544 97.8376C258.544 97.8376 258.49 97.8376 258.503 97.8714C258.599 98.0541 258.743 98.2072 258.919 98.3144C259.095 98.4216 259.297 98.4788 259.504 98.4797C259.684 98.4559 259.853 98.3789 259.989 98.2584C260.125 98.138 260.222 97.9797 260.268 97.8037C260.261 97.7835 260.22 97.7564 260.193 97.7767Z" fill="#263238"/>
<path d="M259.658 95.147C259.4 95.45 259.082 95.696 258.723 95.8694C258.365 96.0428 257.974 96.1398 257.576 96.1543C257.231 96.1698 256.885 96.1379 256.549 96.0596L256.353 96.0056C256.293 95.9938 256.234 95.9756 256.177 95.9515C256.132 95.939 256.094 95.911 256.068 95.8727C256.042 95.8343 256.03 95.788 256.035 95.7419C256.032 95.715 256.032 95.6877 256.035 95.6608V95.5864C256.103 94.9104 256.306 93.964 256.306 93.964C256.055 94.0519 254.778 94.4237 254.845 94.0925C255.324 91.1959 256.097 88.3556 257.151 85.6154C257.184 85.5276 257.326 85.5681 257.306 85.656C256.873 88.36 255.954 90.922 255.501 93.6058C255.957 93.4643 256.43 93.3891 256.907 93.3827C256.995 93.4232 256.488 95.2552 256.475 95.5526C256.994 95.6807 257.535 95.7025 258.063 95.6165C258.592 95.5305 259.098 95.3387 259.55 95.0524C259.658 95.0254 259.719 95.093 259.658 95.147Z" fill="#263238"/>
<path d="M256.975 95.7824C257.262 96.292 257.677 96.7182 258.178 97.0195C258.457 97.178 258.778 97.2442 259.097 97.2088C259.773 97.1277 259.895 96.5328 259.841 95.9717C259.815 95.6836 259.754 95.3997 259.658 95.1267C258.856 95.625 257.916 95.8547 256.975 95.7824Z" fill="#263238"/>
<path d="M258.179 97.0195C258.458 97.178 258.779 97.2442 259.098 97.2088C259.774 97.1277 259.896 96.5328 259.842 95.9717C259.487 95.9344 259.13 96.0175 258.829 96.2076C258.527 96.3976 258.298 96.6836 258.179 97.0195Z" fill="#FF98B9"/>
<path d="M271.556 92.4363C270.143 92.6391 269.224 88.3397 269.028 86.7038C268.852 85.2707 269.089 80.8361 269.068 80.5252C269.048 80.2142 262.579 83.4725 259.327 81.9448C256.076 80.417 254.284 77.0032 254.46 75.5701C254.636 74.137 259.429 71.1828 263.113 71.5682C266.797 71.9535 271.022 77.375 271.022 77.375C270.531 76.6011 270.101 75.7896 269.738 74.9482C269.826 74.7927 272.036 76.1041 272.212 77.855C272.212 77.855 272.07 75.6715 272.259 75.658C272.448 75.6444 273.996 77.7468 273.368 79.038C273.368 79.038 275.2 81.2079 275.085 83.2562C274.97 85.3045 273.219 92.1997 271.556 92.4363Z" fill="#263238"/>
<path d="M257.022 80.8564C257.946 81.5546 258.969 82.1106 260.058 82.5058C261.293 82.8169 262.587 82.8169 263.823 82.5058C265.062 82.2313 266.249 81.7588 267.338 81.1065C268.298 80.5387 269.184 79.8086 270.191 79.3286C270.441 79.207 270.657 79.572 270.481 79.7613C268.63 81.665 266.215 82.9214 263.593 83.3441C262.377 83.5423 261.13 83.4203 259.976 82.99C258.821 82.5597 257.799 81.836 257.009 80.8902C257.009 80.8902 257.009 80.8429 257.022 80.8564Z" fill="#263238"/>
<path d="M260.787 93.8964C259.862 93.6446 259.074 93.0369 258.595 92.2061C258.116 91.3752 257.986 90.3886 258.232 89.4618C258.408 88.8083 258.764 88.2173 259.259 87.7559C259.754 87.2945 260.368 86.9813 261.033 86.8519C261.697 86.7225 262.384 86.782 263.016 87.0238C263.648 87.2656 264.2 87.6798 264.608 88.2195C265.017 88.7592 265.265 89.4026 265.326 90.0766C265.387 90.7506 265.258 91.4282 264.953 92.0322C264.647 92.6363 264.179 93.1427 263.6 93.4937C263.022 93.8448 262.356 94.0265 261.68 94.0181C261.378 94.0175 261.078 93.9766 260.787 93.8964ZM258.698 89.5835C258.537 90.1824 258.556 90.8158 258.755 91.4036C258.953 91.9914 259.321 92.5072 259.812 92.8858C260.304 93.2644 260.896 93.4888 261.515 93.5306C262.134 93.5723 262.752 93.4297 263.29 93.1206C263.827 92.8115 264.262 92.3498 264.537 91.794C264.813 91.2382 264.917 90.6132 264.837 89.998C264.758 89.3828 264.497 88.8051 264.089 88.3378C263.681 87.8706 263.144 87.5348 262.545 87.373C262.291 87.3077 262.03 87.2714 261.767 87.2648C261.071 87.2569 260.392 87.4803 259.837 87.9C259.281 88.3196 258.881 88.9118 258.698 89.5835Z" fill="#219EBC"/>
<path d="M253.216 92.8824C251.742 92.6864 250.755 90.922 251.012 88.9413C251.111 88.0442 251.492 87.2016 252.101 86.5348C252.342 86.2306 252.658 85.9941 253.018 85.8483C253.378 85.7025 253.77 85.6524 254.155 85.7027C254.54 85.7531 254.906 85.9022 255.216 86.1357C255.527 86.3691 255.772 86.679 255.927 87.035C256.339 87.8386 256.488 88.7514 256.353 89.6444C256.109 91.5169 254.838 92.9162 253.453 92.8959L253.216 92.8824ZM252.452 86.866C251.916 87.462 251.58 88.2117 251.492 89.0089C251.269 90.7192 252.067 92.2402 253.277 92.3889C254.487 92.5376 255.65 91.2803 255.88 89.5632C255.995 88.772 255.863 87.9643 255.501 87.2513C255.37 86.9707 255.173 86.7259 254.927 86.5376C254.681 86.3494 254.393 86.2232 254.088 86.1697H253.906C253.628 86.1778 253.356 86.244 253.105 86.3639C252.855 86.4839 252.632 86.6549 252.452 86.866Z" fill="#219EBC"/>
<path d="M258.3 89.908L258.659 89.5767C258.172 89.0495 256.996 88.2721 255.995 89.0968L256.299 89.4686C257.198 88.7115 258.233 89.8472 258.3 89.908Z" fill="#219EBC"/>
<path d="M274.166 92.9095L274.626 92.7472C274.544 92.5309 273.841 90.6652 272.794 90.3474C271.746 90.0297 265.304 89.8202 265.026 89.8066V90.2934C266.892 90.361 271.915 90.584 272.665 90.8139C273.416 91.0437 273.983 92.3957 274.166 92.9095Z" fill="#219EBC"/>
<path d="M269.894 92.4835C269.894 92.4835 272.773 88.556 274.565 89.5903C276.356 90.6245 274.125 96.3503 271.982 97.1141C271.714 97.2286 271.425 97.2874 271.133 97.2871C270.841 97.2868 270.552 97.2274 270.283 97.1125C270.015 96.9975 269.772 96.8294 269.571 96.6182C269.369 96.4071 269.212 96.1572 269.109 95.8838L269.894 92.4835Z" fill="#EB9481"/>
<path d="M273.888 91.2195V91.2736C272.387 91.8482 271.569 93.2137 270.988 94.6536C271.078 94.5062 271.199 94.3801 271.342 94.284C271.485 94.1879 271.648 94.1242 271.818 94.0971C271.989 94.0701 272.163 94.0805 272.329 94.1276C272.495 94.1746 272.649 94.2572 272.779 94.3696C272.82 94.3696 272.779 94.4575 272.739 94.444C272.478 94.3581 272.198 94.3535 271.935 94.4307C271.671 94.508 271.438 94.6635 271.265 94.8766C270.985 95.2422 270.741 95.6339 270.535 96.0461C270.468 96.1813 270.224 96.1002 270.278 95.9515C270.305 93.964 271.84 91.3682 273.888 91.2195Z" fill="#263238"/>
<path d="M274.882 89.6377C274.678 89.488 274.441 89.3912 274.191 89.3558C273.941 89.3204 273.686 89.3476 273.449 89.4349C273.381 89.4349 273.374 89.4957 273.449 89.4754C273.733 89.3911 274.036 89.3911 274.321 89.4754C274.557 89.5498 275.227 89.8269 275.22 91.2262C275.117 92.3314 274.812 93.4083 274.321 94.4034C274.321 94.4372 274.361 94.471 274.382 94.4372C274.709 93.8144 274.971 93.1598 275.166 92.4836C275.355 91.7265 275.605 90.2528 274.882 89.6377Z" fill="#263238"/>
<path d="M270.853 110.235C270.373 110.769 269.947 111.33 269.44 111.837C268.93 112.352 268.393 112.84 267.832 113.298C266.745 114.187 265.567 114.957 264.316 115.596C263.024 116.365 261.52 116.701 260.024 116.556C259.345 116.44 258.711 116.142 258.189 115.693C257.667 115.244 257.278 114.661 257.063 114.007C256.434 112.317 256.86 110.519 257.272 108.748C257.272 108.687 257.191 108.66 257.171 108.748C256.705 110.567 256.353 112.061 256.671 113.771C256.775 114.438 257.044 115.069 257.453 115.606C257.863 116.143 258.4 116.57 259.016 116.847C262.011 118.09 265.202 115.934 267.419 114.089C268.068 113.547 268.684 112.966 269.265 112.351C269.886 111.725 270.451 111.047 270.955 110.323C270.975 110.242 270.894 110.188 270.853 110.235Z" fill="#263238"/>
<path d="M295.595 175.895H53.2217V184.514H295.595V175.895Z" fill="#37474F"/>
<path d="M295.595 181.148H53.2217V184.514H295.595V181.148Z" fill="#455A64"/>
<path d="M61.915 305.451H58.4336L68.5736 184.514H77.463L61.915 305.451Z" fill="#455A64"/>
<path d="M77.4629 184.514L76.4218 192.606H67.8975L68.5735 184.514H77.4629Z" fill="#263238"/>
<path d="M286.902 305.451H290.383L280.243 184.514H271.354L286.902 305.451Z" fill="#455A64"/>
<path d="M271.354 184.514L272.395 192.606H280.919L280.243 184.514H271.354Z" fill="#263238"/>
<path d="M203.022 175.888H240.466V172.975L203.022 171.765V175.888Z" fill="#455A64"/>
<path d="M173.589 175.834H198.297C200.406 175.834 197.351 169.831 189.658 167.533C181.965 165.235 171.169 173.583 173.589 175.834Z" fill="#37474F"/>
<path d="M183.284 175.834C182.882 174.571 182.342 173.356 181.675 172.211C181.345 171.651 180.96 171.126 180.526 170.643C180.077 170.155 179.591 169.703 179.072 169.291C179.741 169.487 180.361 169.824 180.891 170.278C181.428 170.732 181.885 171.274 182.243 171.88C182.604 172.481 182.879 173.129 183.061 173.806C183.25 174.465 183.326 175.151 183.284 175.834Z" fill="#263238"/>
<path d="M180.357 170.122C179.059 170.967 177.761 171.724 176.544 172.596C175.935 173.018 175.361 173.489 174.827 174.002C174.279 174.51 173.856 175.137 173.59 175.834C173.607 175.032 173.906 174.261 174.435 173.658C174.926 173.04 175.504 172.498 176.152 172.049C176.792 171.601 177.47 171.212 178.18 170.886C178.876 170.555 179.606 170.299 180.357 170.122Z" fill="#263238"/>
<path d="M155.864 164.214H215.913L206.368 119.51H146.312L155.864 164.214Z" fill="#455A64"/>
<path d="M153.648 164.214H213.697L204.145 119.51H144.096L153.648 164.214Z" fill="#37474F"/>
<path d="M186.035 148.186H187.441L185.305 138.161H183.898L186.035 148.186Z" fill="#263238"/>
<path d="M183.256 148.186H184.662L182.526 138.161H181.113L183.256 148.186Z" fill="#263238"/>
<path d="M180.478 148.186H181.884L179.748 138.161H178.335L180.478 148.186Z" fill="#263238"/>
<path d="M177.7 148.186H179.106L176.969 138.161H175.557L177.7 148.186Z" fill="#263238"/>
<path d="M174.914 148.186H176.327L174.191 138.161H172.778L174.914 148.186Z" fill="#263238"/>
<path d="M172.136 148.186H173.549L171.406 138.161H170L172.136 148.186Z" fill="#263238"/>
<path d="M169.358 148.186H170.771L168.628 138.161H167.222L169.358 148.186Z" fill="#263238"/>
<path d="M170.629 175.895H200.163V173.597L170.629 172.644V175.895Z" fill="#455A64"/>
<path d="M162.598 175.888H178.457L188.008 150.836H172.15L162.598 175.888Z" fill="#455A64"/>
<path d="M159.988 175.888H175.847L185.392 150.836H169.54L159.988 175.888Z" fill="#263238"/>
<path d="M157.102 83.5942C157.102 83.5942 153.452 113.061 147.368 119.693C140.107 127.642 134.841 126.453 131.907 130.583C128.98 126.473 123.708 127.642 116.441 119.686C110.357 113.054 106.72 83.5874 106.72 83.5874C122.66 75.854 131.907 67.1809 131.907 67.1809C132.191 67.4581 141.405 75.9824 157.102 83.5942Z" fill="#219EBC"/>
<path opacity="0.2" d="M131.907 67.1944V130.583C128.98 126.473 123.708 127.642 116.441 119.686C110.357 113.054 106.72 83.5874 106.72 83.5874C122.66 75.854 131.907 67.1809 131.907 67.1809V67.1944Z" fill="black"/>
<path opacity="0.1" d="M157.102 83.5942C157.102 83.5942 153.451 113.061 147.367 119.693C140.107 127.642 134.841 126.453 131.907 130.583V67.1945C132.191 67.4581 141.405 75.9825 157.102 83.5942Z" fill="black"/>
<path d="M153.188 85.967C153.188 85.967 150.071 110.864 144.974 116.461C138.836 123.221 134.382 122.201 131.901 125.668C129.426 122.201 124.972 123.194 118.834 116.461C113.723 110.857 110.62 85.967 110.62 85.967C124.086 79.4301 131.901 72.109 131.901 72.109C131.901 72.109 139.729 79.4301 153.188 85.967Z" fill="#219EBC"/>
<path fill-rule="evenodd" clip-rule="evenodd" d="M130.021 104.611C129.692 104.378 129.407 104.04 128.967 104.09C128.799 104.111 128.835 103.952 128.835 103.849C128.827 101.974 128.822 100.1 128.814 98.2279C128.814 98.0925 128.822 97.9807 128.952 97.9042C130.21 97.1773 130.751 95.756 131.517 94.5376C132.338 93.2399 132.617 91.8332 132.418 90.2823C132.363 89.8615 132.537 89.6702 132.871 89.5849C133.272 89.4789 133.673 89.6055 133.813 89.9174C134.155 90.6943 134.447 91.5036 134.541 92.3717C134.616 93.0809 134.393 93.7754 134.318 94.4788C134.261 94.9938 134.157 95.5029 134.075 96.0238C134.186 96.115 134.313 96.0679 134.432 96.0679C135.825 96.0679 137.217 96.0591 138.61 96.0532C139.198 96.0532 139.485 96.2415 139.568 96.6829C139.669 97.2332 139.415 97.7953 138.965 98.0572C138.861 98.1161 138.672 98.0631 138.659 98.2485C138.649 98.4369 138.84 98.4163 138.939 98.4928C139.443 98.8842 139.353 99.6964 138.77 100.167C138.631 100.279 138.359 100.229 138.351 100.464C138.348 100.65 138.602 100.647 138.719 100.779C139.128 101.235 138.928 102.089 138.32 102.436C138.242 102.48 138.147 102.489 138.077 102.545C138.007 102.598 137.939 102.657 138.077 102.766C138.682 103.254 138.669 103.934 138.064 104.434C138.004 104.484 137.945 104.534 137.882 104.584C137.662 104.77 137.401 104.767 137.15 104.77C134.965 104.784 132.783 104.79 130.598 104.796C130.394 104.796 130.186 104.79 130.023 104.617L130.021 104.611Z" fill="white"/>
<path fill-rule="evenodd" clip-rule="evenodd" d="M123.8 101.33C123.797 100.141 123.8 98.9489 123.787 97.7571C123.787 97.5158 123.805 97.3951 124.067 97.3981C125.345 97.4099 126.622 97.4069 127.898 97.3834C128.149 97.3804 128.188 97.4775 128.188 97.7306C128.188 100.126 128.193 102.524 128.211 104.92C128.211 105.226 128.141 105.311 127.872 105.308C126.632 105.297 125.392 105.3 124.155 105.326C123.847 105.332 123.803 105.211 123.805 104.902C123.818 103.71 123.805 102.522 123.8 101.33Z" fill="white"/>
<path d="M90.1989 164.87H53.2217V133.598L71.7035 121.856L90.1989 133.598V164.87Z" fill="#219EBC"/>
<path opacity="0.2" d="M90.1989 164.87H53.2217V133.598L71.7035 121.856L90.1989 133.598V164.87Z" fill="black"/>
<path d="M88.11 159.894H55.3037V117.786H79.66L88.11 125.81V159.894Z" fill="#EBEBEB"/>
<path d="M79.6602 117.786L88.1102 125.81H79.6602V117.786Z" fill="#DBDBDB"/>
<path d="M58.5076 125.932H76.7461V124.85H58.5076V125.932Z" fill="#DBDBDB"/>
<path d="M58.5076 128.663H76.7461V127.581H58.5076V128.663Z" fill="#DBDBDB"/>
<path d="M58.5076 131.387H76.7461V130.306H58.5076V131.387Z" fill="#DBDBDB"/>
<path d="M58.5082 134.125H85.2305V133.044H58.5082V134.125Z" fill="#DBDBDB"/>
<path d="M58.5082 136.849H85.2305V135.768H58.5082V136.849Z" fill="#DBDBDB"/>
<path d="M58.5082 139.58H85.2305V138.499H58.5082V139.58Z" fill="#DBDBDB"/>
<path d="M58.5082 142.305H85.2305V141.223H58.5082V142.305Z" fill="#DBDBDB"/>
<path d="M58.5082 145.043H85.2305V143.961H58.5082V145.043Z" fill="#DBDBDB"/>
<path d="M58.5082 147.767H85.2305V146.685H58.5082V147.767Z" fill="#DBDBDB"/>
<path d="M58.5082 150.498H85.2305V149.416H58.5082V150.498Z" fill="#DBDBDB"/>
<path d="M58.5082 153.222H85.2305V152.141H58.5082V153.222Z" fill="#DBDBDB"/>
<path d="M58.5082 155.953H85.2305V154.872H58.5082V155.953Z" fill="#DBDBDB"/>
<path d="M90.1989 141.426V164.87H53.2217V141.426C54.8103 142.325 56.3718 143.265 57.9537 144.191C59.5355 145.117 61.0836 146.063 62.6384 147.023C64.3734 148.078 66.104 149.146 67.83 150.228H67.8909L67.8436 150.268L71.7238 152.695C73.015 151.884 74.3061 151.066 75.604 150.268L75.5567 150.228H75.6108C77.3414 149.153 79.0652 148.085 80.8025 147.023C82.3573 146.072 83.9188 145.13 85.4872 144.198C87.0487 143.265 88.6103 142.325 90.1989 141.426Z" fill="#219EBC"/>
<path d="M90.1989 141.426C88.7049 142.474 87.1839 143.454 85.6764 144.509C84.169 145.563 82.6412 146.537 81.1134 147.53C79.5857 148.524 77.916 149.606 76.3206 150.633L76.1786 150.735L71.9198 153.439L71.7035 153.567L71.5007 153.439C70.0811 152.537 68.6638 151.636 67.2487 150.735C67.1967 150.707 67.1469 150.675 67.1 150.64C65.4911 149.612 63.8957 148.612 62.3004 147.53C60.705 146.449 59.2584 145.502 57.7441 144.515C56.2299 143.528 54.7156 142.487 53.2217 141.433C54.8103 142.332 56.3718 143.271 57.9537 144.198C59.5355 145.124 61.0836 146.07 62.6384 147.03C64.3734 148.085 66.104 149.153 67.83 150.234L71.7103 152.661C73.0014 151.85 74.2926 151.032 75.5905 150.234C77.3211 149.159 79.0449 148.091 80.7822 147.03C82.337 146.079 83.8986 145.137 85.4669 144.204C87.0487 143.265 88.6103 142.325 90.1989 141.426Z" fill="white"/>
<path d="M67.8774 150.194L67.83 150.234L67.2487 150.728C66.3226 151.512 65.3694 152.262 64.4027 152.992C63.2265 153.891 62.0232 154.75 60.8132 155.602C59.6031 156.453 58.3728 157.278 57.1222 158.076C55.8716 158.874 54.6143 159.658 53.3096 160.374C54.4317 159.394 55.6012 158.475 56.7774 157.582C57.9537 156.69 59.1637 155.818 60.367 154.966C61.5703 154.115 62.8141 153.29 64.058 152.492C65.0517 151.816 66.086 151.221 67.1 150.633L67.8165 150.228L67.8774 150.194Z" fill="white"/>
<path d="M90.104 160.374C88.7993 159.658 87.5352 158.874 86.2914 158.076C85.0475 157.278 83.824 156.44 82.6004 155.602C81.3769 154.763 80.1871 153.891 79.0041 152.992C78.0442 152.262 77.0978 151.519 76.1784 150.735C75.9756 150.566 75.7796 150.403 75.5903 150.234L75.543 150.194H75.597L76.3204 150.606C77.3546 151.194 78.3484 151.823 79.3556 152.465C80.6062 153.263 81.8298 154.094 83.0466 154.939C84.2634 155.784 85.4599 156.656 86.6361 157.555C87.8124 158.454 88.9818 159.394 90.104 160.374Z" fill="white"/>
<path d="M90.1045 170.866C93.4646 170.866 96.1885 168.142 96.1885 164.782C96.1885 161.422 93.4646 158.698 90.1045 158.698C86.7444 158.698 84.0205 161.422 84.0205 164.782C84.0205 168.142 86.7444 170.866 90.1045 170.866Z" fill="#37474F"/>
<path d="M93.1188 163.247H87.0889V168.723H93.1188V163.247Z" fill="white"/>
<path d="M92.5179 164.944H91.9365V162.497C91.9084 162.038 91.7064 161.607 91.3716 161.293C91.0369 160.978 90.5946 160.802 90.135 160.802C89.6754 160.802 89.2331 160.978 88.8984 161.293C88.5636 161.607 88.3616 162.038 88.3335 162.497V164.944H87.7251V162.497C87.7077 162.17 87.7572 161.842 87.8705 161.535C87.9838 161.227 88.1585 160.946 88.384 160.709C88.6094 160.471 88.881 160.281 89.182 160.152C89.4831 160.023 89.8073 159.956 90.135 159.956C90.4627 159.956 90.7869 160.023 91.088 160.152C91.389 160.281 91.6605 160.471 91.886 160.709C92.1115 160.946 92.2862 161.227 92.3995 161.535C92.5128 161.842 92.5623 162.17 92.5449 162.497L92.5179 164.944Z" fill="white"/>
<path d="M90.361 166.053L90.6179 167.249H89.5431L89.7932 166.053C89.7174 166.004 89.6549 165.937 89.6113 165.858C89.5676 165.779 89.5442 165.69 89.5431 165.6C89.5411 165.505 89.5642 165.411 89.61 165.327C89.6559 165.244 89.7229 165.174 89.8043 165.125C89.8857 165.076 89.9786 165.049 90.0737 165.048C90.1687 165.046 90.2626 165.069 90.3457 165.115C90.4289 165.161 90.4985 165.228 90.5474 165.31C90.5964 165.391 90.6229 165.484 90.6245 165.579C90.626 165.675 90.6025 165.768 90.5563 165.851C90.51 165.934 90.4427 166.004 90.361 166.053Z" fill="#37474F"/>
<path d="M117.732 103.245H55.6621V112.655H117.732V103.245Z" fill="white"/>
<path d="M118.064 112.993H55.3242V102.907H118.064V112.993ZM56.0002 112.317H117.388V103.583H56.0002V112.317Z" fill="#EBEBEB"/>
<path d="M54.0059 114.034C57.366 114.034 60.0899 111.311 60.0899 107.95C60.0899 104.59 57.366 101.866 54.0059 101.866C50.6458 101.866 47.9219 104.59 47.9219 107.95C47.9219 111.311 50.6458 114.034 54.0059 114.034Z" fill="#37474F"/>
<path d="M57.0211 106.409H50.9912V111.885H57.0211V106.409Z" fill="white"/>
<path d="M56.4194 108.099H55.8043V105.659C55.8043 105.182 55.6148 104.725 55.2776 104.387C54.9404 104.05 54.483 103.861 54.0061 103.861C53.5292 103.861 53.0718 104.05 52.7346 104.387C52.3974 104.725 52.2079 105.182 52.2079 105.659V108.099H51.5928V105.659C51.5928 105.019 51.847 104.405 52.2996 103.952C52.7522 103.5 53.366 103.245 54.0061 103.245C54.6461 103.245 55.26 103.5 55.7126 103.952C56.1652 104.405 56.4194 105.019 56.4194 105.659V108.099Z" fill="white"/>
<path d="M54.2632 109.215L54.5133 110.418H53.4385L53.6954 109.215C53.6166 109.168 53.5513 109.102 53.5062 109.023C53.4611 108.943 53.4378 108.853 53.4385 108.762C53.4533 108.63 53.5163 108.507 53.6155 108.419C53.7146 108.33 53.8429 108.281 53.9759 108.281C54.1089 108.281 54.2372 108.33 54.3363 108.419C54.4355 108.507 54.4985 108.63 54.5133 108.762C54.5134 108.852 54.4905 108.941 54.4468 109.02C54.403 109.1 54.3399 109.166 54.2632 109.215Z" fill="#37474F"/>
<path d="M66.424 105.949H65.748V110.256H66.424V105.949Z" fill="#37474F"/>
<path d="M68.2358 107.761H63.9297V108.437H68.2358V107.761Z" fill="#37474F"/>
<path d="M67.3672 106.338L64.3223 109.383L64.8003 109.861L67.8452 106.816L67.3672 106.338Z" fill="#37474F"/>
<path d="M64.8052 106.338L64.3271 106.816L67.372 109.861L67.85 109.383L64.8052 106.338Z" fill="#37474F"/>
<path d="M73.7317 105.949H73.0557V110.256H73.7317V105.949Z" fill="#37474F"/>
<path d="M75.5503 107.761H71.2441V108.437H75.5503V107.761Z" fill="#37474F"/>
<path d="M74.6826 106.337L71.6377 109.382L72.1157 109.86L75.1606 106.815L74.6826 106.337Z" fill="#37474F"/>
<path d="M72.1157 106.342L71.6377 106.82L74.6826 109.865L75.1606 109.387L72.1157 106.342Z" fill="#37474F"/>
<path d="M81.0461 105.949H80.3701V110.256H81.0461V105.949Z" fill="#37474F"/>
<path d="M82.8579 107.761H78.5518V108.437H82.8579V107.761Z" fill="#37474F"/>
<path d="M81.9853 106.341L78.9404 109.386L79.4184 109.864L82.4633 106.819L81.9853 106.341Z" fill="#37474F"/>
<path d="M79.4233 106.341L78.9453 106.819L81.9902 109.864L82.4682 109.386L79.4233 106.341Z" fill="#37474F"/>
<path d="M88.3606 105.949H87.6846V110.256H88.3606V105.949Z" fill="#37474F"/>
<path d="M90.1723 107.761H85.8662V108.437H90.1723V107.761Z" fill="#37474F"/>
<path d="M89.3007 106.341L86.2559 109.386L86.7339 109.864L89.7788 106.819L89.3007 106.341Z" fill="#37474F"/>
<path d="M86.7387 106.341L86.2607 106.819L89.3056 109.864L89.7836 109.386L86.7387 106.341Z" fill="#37474F"/>
<path d="M95.6682 105.949H94.9922V110.256H95.6682V105.949Z" fill="#37474F"/>
<path d="M97.4858 107.761H93.1797V108.437H97.4858V107.761Z" fill="#37474F"/>
<path d="M96.6152 106.34L93.5703 109.385L94.0483 109.863L97.0932 106.818L96.6152 106.34Z" fill="#37474F"/>
<path d="M94.0483 106.345L93.5703 106.823L96.6152 109.868L97.0932 109.39L94.0483 106.345Z" fill="#37474F"/>
<path d="M102.982 105.949H102.306V110.256H102.982V105.949Z" fill="#37474F"/>
<path d="M104.793 107.761H100.487V108.437H104.793V107.761Z" fill="#37474F"/>
<path d="M103.926 106.338L100.881 109.383L101.359 109.861L104.404 106.816L103.926 106.338Z" fill="#37474F"/>
<path d="M101.364 106.338L100.886 106.816L103.931 109.861L104.409 109.383L101.364 106.338Z" fill="#37474F"/>
<path d="M65.2675 252.763C65.2675 252.763 50.2806 249.383 42.0672 241.798C33.8538 234.214 29.2705 220.673 29.2705 220.673C34.9655 221.773 40.58 223.254 46.0759 225.108C47.4279 226.541 49.9696 229.495 51.1594 232.294C51.2991 230.585 51.3126 228.868 51.1999 227.156C53.1168 227.988 54.9112 229.078 56.5336 230.394C63.3409 236.336 65.2675 252.763 65.2675 252.763Z" fill="#219EBC"/>
<path d="M38.6262 227.264C36.5982 225.845 34.5026 224.486 32.4679 223.06C32.4485 223.04 32.436 223.015 32.4326 222.988C32.4292 222.961 32.4349 222.934 32.449 222.91C32.463 222.887 32.4845 222.869 32.51 222.859C32.5355 222.85 32.5635 222.849 32.5896 222.857C36.4495 225.162 40.2622 227.629 43.9396 230.212C45.224 231.111 46.4881 232.05 47.732 233.004L47.4751 232.557C47.0222 231.807 46.549 231.07 46.0758 230.333C45.1359 228.829 44.0708 227.407 42.8918 226.081C42.8512 226.034 42.8918 225.966 42.9662 226.014C44.1356 227.366 45.2984 228.718 46.3462 230.117C46.8532 230.793 47.3196 231.469 47.7658 232.219C48.0024 232.591 48.2255 232.97 48.4418 233.348L48.6648 233.734C50.605 235.255 52.491 236.843 54.2892 238.52C55.4046 239.561 56.4726 240.629 57.5069 241.738C56.9323 239.926 56.4253 238.094 55.7493 236.33C55.7493 236.269 55.8304 236.248 55.8507 236.33C56.5267 238.202 57.2027 240.081 57.7232 242.008C58.8724 243.243 59.9653 244.529 61.0018 245.868C61.0018 245.787 61.0019 245.706 60.9478 245.625C60.7788 244.949 60.603 244.212 60.4137 243.515C60.0487 242.163 59.6498 240.811 59.1902 239.459C58.3227 236.696 56.9471 234.12 55.1342 231.861C55.0936 231.807 55.1342 231.739 55.2085 231.787C58.1356 235.255 59.8527 239.412 60.9478 243.772C61.1033 244.414 61.2587 245.05 61.4007 245.692C61.4818 246.03 61.5697 246.368 61.6305 246.726C62.0834 247.342 62.5228 247.957 62.9825 248.592C65.5373 252.498 67.6632 256.668 69.3234 261.031C71.1991 265.927 72.8036 270.924 74.1298 275.997C74.1298 276.099 74.0081 276.132 73.9743 276.038C71.0404 267.25 68.0525 258.374 63.0298 250.539C61.9714 248.885 60.8297 247.285 59.6093 245.746C57.1271 245.587 54.6769 245.1 52.322 244.3C49.7506 243.433 47.2979 242.247 45.0212 240.771C43.7327 239.895 42.4895 238.954 41.2964 237.952C41.2893 237.948 41.283 237.943 41.2781 237.936C41.2732 237.93 41.2699 237.923 41.2682 237.915C41.2666 237.907 41.2668 237.898 41.2688 237.891C41.2708 237.883 41.2745 237.875 41.2797 237.869C41.2849 237.863 41.2914 237.858 41.2988 237.855C41.3061 237.851 41.3142 237.85 41.3223 237.85C41.3303 237.85 41.3383 237.852 41.3455 237.856C41.3528 237.859 41.3591 237.864 41.364 237.871C43.4562 239.554 45.7666 240.945 48.2322 242.008C50.6546 243.118 53.188 243.968 55.7899 244.543C56.8985 244.786 58.0207 244.962 59.1699 245.118C57.7833 243.405 56.3099 241.765 54.7556 240.203C54.2486 239.703 53.7281 239.216 53.2076 238.729C51.4599 237.507 49.6045 236.445 47.6644 235.559C45.2105 234.369 42.7972 233.112 40.3636 231.875C39.0116 231.199 37.6596 230.462 36.2467 229.793C36.1926 229.759 36.2467 229.678 36.3008 229.705C38.7682 230.894 41.2694 232.003 43.7368 233.146C46.0825 234.214 48.4688 235.288 50.6928 236.526L50.9768 236.695C48.9443 234.928 46.8509 233.236 44.6967 231.618C42.689 230.144 40.6745 228.677 38.6262 227.264Z" fill="#263238"/>
<path d="M39.478 234.984C40.6948 235.518 41.9386 235.992 43.1419 236.559C44.3452 237.127 45.5552 237.817 46.7382 238.513C46.7855 238.547 46.7382 238.614 46.6841 238.594C45.4944 238.02 44.2843 237.485 43.1013 236.891C41.9183 236.296 40.688 235.626 39.4442 235.086C39.3901 235.059 39.4171 234.957 39.478 234.984Z" fill="#263238"/>
<path d="M113.946 177.247C111.177 180.819 109.611 185.175 109.471 189.692C109.417 191.044 109.633 192.903 109.789 195.1C104.198 198.068 100.007 203.476 100.007 203.476C103.184 201.57 107.538 200.772 109.89 201.11C109.813 202.614 109.621 204.11 109.315 205.585C108.281 205.524 106.273 205.666 102.961 206.842C104.93 206.822 106.881 207.209 108.693 207.978C106.023 216.482 98.0803 225.209 76.1576 228.934C73.8284 218.507 75.2003 207.594 80.0378 198.068C86.6085 185.136 113.946 177.247 113.946 177.247Z" fill="#219EBC"/>
<path d="M68.5663 265.276C68.9448 261.644 69.418 258.022 69.9859 254.413C71.097 247.191 72.5726 240.029 74.4069 232.956C75.2664 229.636 76.3229 226.37 77.5706 223.175C77.5086 222.591 77.4837 222.004 77.4962 221.417C77.4962 220.741 77.4962 220.011 77.4962 219.315C77.4962 217.909 77.5638 216.505 77.699 215.103C77.923 212.331 78.3752 209.581 79.051 206.883C79.4499 205.321 79.9163 203.787 80.403 202.239C80.403 202.178 80.518 202.205 80.4977 202.239C79.7738 204.935 79.234 207.677 78.882 210.446C78.4909 213.175 78.245 215.924 78.1452 218.679C78.1452 219.43 78.1046 220.18 78.1046 220.937C78.1046 221.255 78.1046 221.579 78.1046 221.904C79.1783 219.294 80.411 216.751 81.7956 214.292C84.0239 210.374 86.5316 206.621 89.2992 203.064C89.3062 202.65 89.3676 202.238 89.4817 201.84C89.5831 201.347 89.6913 200.86 89.7994 200.373C90.0225 199.373 90.2726 198.345 90.5498 197.385C91.0906 195.398 91.8139 193.478 92.4358 191.518C92.4358 191.45 92.5508 191.484 92.5305 191.518C91.9491 193.458 91.5638 195.472 91.1244 197.446C90.9013 198.426 90.6918 199.406 90.4484 200.387C90.3402 200.873 90.2321 201.36 90.1307 201.854V201.962C91.0162 200.846 91.9221 199.738 92.8347 198.656C97.0191 193.748 101.623 189.192 106.233 184.724C106.801 184.169 107.382 183.629 107.957 183.081C107.967 183.075 107.979 183.072 107.991 183.073C108.003 183.075 108.015 183.08 108.023 183.089C108.032 183.098 108.037 183.109 108.039 183.121C108.04 183.133 108.038 183.145 108.031 183.155C103.617 187.766 99.2432 192.423 95.1466 197.297C94.1732 198.46 93.2065 199.63 92.2601 200.819C92.7603 200.481 93.2606 200.143 93.754 199.832C95.0317 198.994 96.3228 198.183 97.6546 197.439C98.9863 196.696 100.325 195.966 101.711 195.283C103.096 194.6 104.624 194.019 105.976 193.255C106.037 193.221 106.084 193.316 106.03 193.343C104.644 193.983 103.306 194.724 102.028 195.56C100.676 196.351 99.3243 197.149 98.0466 197.98C96.769 198.812 95.4643 199.603 94.1867 200.434C93.1186 201.11 92.0708 201.881 90.9622 202.523C88.4199 205.787 86.0745 209.2 83.9385 212.744C82.6105 214.976 81.3988 217.275 80.3084 219.632L81.0926 219.294L83.1206 218.402C84.4117 217.827 85.7096 217.266 87.0008 216.705C89.4614 215.637 91.9559 214.677 94.3692 213.481C95.7284 212.842 97.0428 212.113 98.3035 211.297C98.3576 211.257 98.4049 211.345 98.3576 211.385C93.8622 214.481 88.8192 216.665 83.8439 218.869L81.6874 219.822C81.0926 220.085 80.4977 220.376 79.8893 220.606C78.4183 223.896 77.1782 227.284 76.178 230.746C74.2306 237.729 72.6511 244.81 71.446 251.959C70.1887 259.118 69.3369 266.33 68.6812 273.591C68.5933 274.497 68.5122 275.396 68.4108 276.295C68.4108 276.37 68.3809 276.442 68.3276 276.495C68.2744 276.549 68.2022 276.579 68.1269 276.579C68.0516 276.579 67.9794 276.549 67.9261 276.495C67.8729 276.442 67.843 276.37 67.843 276.295C67.8092 272.611 68.181 268.926 68.5663 265.276Z" fill="#263238"/>
<path d="M81.9041 204.727C82.3097 202.496 82.9045 200.319 83.5062 198.136C83.5062 198.068 83.6143 198.102 83.6008 198.136C83.0465 200.279 82.6476 202.462 82.2488 204.639C81.85 206.815 81.4714 209.08 81.1604 211.311C81.1604 211.345 81.0996 211.351 81.0996 211.311C81.2462 209.103 81.5148 206.905 81.9041 204.727Z" fill="#263238"/>
<path d="M91.3543 210.77C92.8795 209.757 94.4743 208.854 96.1268 208.066C96.9245 207.654 97.7357 207.262 98.5402 206.87C99.3446 206.477 100.244 206.126 101.068 205.714C101.08 205.711 101.091 205.712 101.102 205.716C101.113 205.72 101.122 205.728 101.128 205.738C101.134 205.747 101.136 205.759 101.136 205.77C101.135 205.782 101.13 205.793 101.122 205.801C100.318 206.2 99.5609 206.687 98.77 207.12C97.9791 207.552 97.1543 208.012 96.3364 208.472C94.7343 209.33 93.1592 210.283 91.476 210.986C91.4473 211.002 91.4133 211.007 91.3816 210.998C91.35 210.989 91.3231 210.968 91.307 210.939C91.2908 210.91 91.2867 210.876 91.2956 210.845C91.3045 210.813 91.3256 210.786 91.3543 210.77Z" fill="#263238"/>
<path opacity="0.1" d="M64.9969 226.805C64.9969 226.805 51.1254 223.492 44.7643 214.191C38.6803 205.308 36.7131 190.166 36.5576 188.834C36.8077 190.051 39.674 203.287 49.1109 209.452C56.3374 214.177 63.3205 218.057 64.9969 226.805Z" fill="#263238"/>
<path d="M64.997 226.805C64.997 226.805 51.1254 223.492 44.7643 214.191C38.6803 205.308 36.7131 190.165 36.5576 188.834C36.555 188.802 36.555 188.771 36.5576 188.739C36.5576 188.739 43.2095 198.203 50.1993 200.603C57.1892 203.003 66.9979 211.351 64.997 226.805Z" fill="#219EBC"/>
<path d="M39.0049 193.951C40.2371 196.498 41.6608 198.948 43.2637 201.279C44.8813 203.492 46.7993 205.469 48.9624 207.153C50.8485 208.647 52.8427 210.006 54.749 211.466L54.7017 211.399C54.3434 210.871 53.9648 210.351 53.566 209.851C52.7751 208.837 51.9098 207.877 51.031 206.93C49.3139 205.058 47.5496 203.226 46.0083 201.205C45.1477 200.089 44.4025 198.888 43.7843 197.622C43.7843 197.561 43.8519 197.527 43.8789 197.622C46.13 202.306 50.6389 205.308 53.8296 209.263C54.2848 209.827 54.7112 210.413 55.1073 211.02C55.4241 211.458 55.6916 211.93 55.9049 212.426C57.6605 213.832 59.2482 215.436 60.6369 217.206C60.5173 216.292 60.332 215.388 60.0826 214.502C59.7587 213.269 59.2626 212.087 58.6089 210.993C58.6089 210.939 58.663 210.878 58.6968 210.932C59.3681 212.031 59.9103 213.204 60.3125 214.427C60.6104 215.393 60.7875 216.392 60.8397 217.402C61.5248 218.332 62.1502 219.305 62.7123 220.315C62.6514 220.018 62.5973 219.72 62.5365 219.423C62.2661 218.071 61.9619 216.665 61.6036 215.306C60.9495 212.543 59.8244 209.913 58.2777 207.532C58.2749 207.521 58.2757 207.509 58.28 207.498C58.2844 207.488 58.292 207.479 58.3018 207.473C58.3116 207.467 58.3231 207.464 58.3345 207.465C58.346 207.466 58.3569 207.47 58.3656 207.478C59.9546 209.835 61.1975 212.407 62.0565 215.117C62.5027 216.469 62.8542 217.861 63.1652 219.261C63.3207 219.937 63.4559 220.613 63.5843 221.289C63.6519 221.64 63.733 222.005 63.7871 222.37C65.1649 225.387 66.2361 228.535 66.9846 231.767C68.3491 237.542 69.3381 243.399 69.9455 249.302C70.6583 255.481 70.9767 261.699 70.8986 267.919C70.8986 268.696 70.8445 269.474 70.7972 270.258C70.7972 270.454 70.4863 270.488 70.4795 270.258C70.3443 267.182 70.2632 264.106 70.0807 261.031C69.8981 257.955 69.6277 254.886 69.3033 251.817C68.6707 245.794 67.7048 239.811 66.41 233.896C65.2878 228.826 63.8277 223.722 61.0561 219.281C59.6782 217.071 57.994 215.069 56.0537 213.332C54.1135 211.588 51.9977 210.06 49.9697 208.445C47.8928 206.867 46.0075 205.052 44.3521 203.037C42.6365 200.801 41.1401 198.406 39.8837 195.884C39.5593 195.256 39.2077 194.634 38.89 194.005C38.8833 193.951 38.9711 193.897 39.0049 193.951Z" fill="#263238"/>
<path d="M41.3982 195.986C42.3031 197.857 43.3353 199.664 44.4875 201.394C44.4875 201.435 44.4469 201.475 44.4199 201.435C43.2311 199.721 42.1864 197.912 41.2968 196.027C41.2697 195.959 41.3644 195.925 41.3982 195.986Z" fill="#263238"/>
<path d="M115.88 220.673C115.88 220.673 116.103 240.379 104.32 246.064C92.5373 251.749 86.2167 247.017 78.2129 248.924C78.5239 248.457 84.2361 240.244 93.3283 237.979C102.684 235.633 113.047 228.88 115.88 220.673Z" fill="#219EBC"/>
<path opacity="0.1" d="M115.88 220.673C115.88 220.673 116.103 240.379 104.32 246.064C92.5373 251.749 86.2167 247.017 78.2129 248.924C82.444 246.912 86.9655 245.58 91.6112 244.976C99.054 244.036 113.243 239.223 115.88 220.673Z" fill="black"/>
<path d="M77.4356 249.275C78.8371 247.997 80.4148 246.927 82.1203 246.098C82.3772 245.976 82.6341 245.882 82.891 245.773C83.015 245.615 83.1481 245.463 83.2898 245.32C83.6393 244.948 84.0094 244.596 84.3984 244.266C85.1344 243.626 85.9263 243.054 86.7645 242.556C88.7181 241.406 90.861 240.602 92.8485 239.541C92.8542 239.538 92.8605 239.536 92.8671 239.535C92.8736 239.534 92.8802 239.535 92.8865 239.537C92.8927 239.539 92.8986 239.542 92.9036 239.546C92.9087 239.55 92.9129 239.555 92.916 239.561C92.9192 239.567 92.9211 239.573 92.9218 239.58C92.9224 239.586 92.9218 239.593 92.9199 239.599C92.918 239.605 92.9149 239.611 92.9108 239.616C92.9066 239.621 92.9015 239.625 92.8958 239.629C91.9088 240.142 90.9556 240.703 89.9957 241.264C89.0358 241.826 88.1097 242.333 87.1971 242.914C86.3773 243.439 85.5977 244.024 84.8649 244.665C84.6621 244.847 84.4593 245.043 84.2632 245.246C85.5653 244.804 86.8955 244.449 88.2449 244.185C90.4013 243.752 92.578 243.441 94.7345 242.981C95.7904 242.758 96.833 242.476 97.8576 242.136C98.8378 241.352 99.8112 240.568 100.737 239.716C101.861 238.692 102.883 237.56 103.786 236.336C103.827 236.282 103.915 236.336 103.874 236.39C102.444 238.325 100.825 240.112 99.0406 241.724C99.5476 241.528 100.055 241.325 100.548 241.095C104.595 239.28 108.068 236.393 110.593 232.747C110.634 232.693 110.722 232.747 110.681 232.794C108.543 235.925 105.781 238.58 102.569 240.595C100.957 241.601 99.2327 242.415 97.4317 243.022C95.3447 243.673 93.2146 244.177 91.057 244.53C88.9423 244.876 86.8549 245.373 84.8108 246.017C82.9318 246.653 81.1657 247.584 79.5786 248.775C76.5697 251.111 74.1484 254.118 72.5076 257.556C70.2768 262.024 69.2155 267.02 68.6206 271.962C68.6206 272.171 68.2691 272.171 68.2826 271.962C68.8369 263.64 71.0542 255.028 77.4356 249.275Z" fill="#263238"/>
<path d="M91.1111 242.846C91.7274 241.928 92.5581 241.174 93.5312 240.649C94.6497 240.07 95.6315 239.259 96.411 238.27C96.4515 238.216 96.5394 238.27 96.4989 238.324C95.7924 239.227 94.9319 239.998 93.9571 240.602C92.8858 241.168 91.9424 241.948 91.1855 242.894C91.1517 242.941 91.0773 242.894 91.1111 242.846Z" fill="#263238"/>
<path d="M84.858 263.816L84.3239 274.652L82.6812 307.756H57.9599L56.3172 274.652L55.7832 263.816H84.858Z" fill="#37474F"/>
<path d="M84.858 263.816L84.3239 274.652H56.3172L55.7832 263.816H84.858Z" fill="#263238"/>
<path d="M86.5885 259.293H54.0459V269.629H86.5885V259.293Z" fill="#37474F"/>
</svg>
