<svg width="32" height="32" viewBox="0 0 32 32" fill="none" xmlns="http://www.w3.org/2000/svg">
<path d="M16.2031 0C13.0788 0 10.0246 0.92647 7.42686 2.66225C4.82908 4.39804 2.80435 6.86517 1.60872 9.75167C0.413095 12.6382 0.100264 15.8144 0.70979 18.8787C1.31932 21.943 2.82382 24.7577 5.03305 26.9669C7.24229 29.1762 10.057 30.6807 13.1213 31.2902C16.1856 31.8997 19.3618 31.5869 22.2483 30.3913C25.1348 29.1957 27.602 27.1709 29.3377 24.5731C31.0735 21.9754 32 18.9212 32 15.7969C32 11.6073 30.3357 7.58928 27.3732 4.6268C24.4107 1.66431 20.3927 0 16.2031 0ZM22.901 21.0625L21.4688 22.4947L16.2031 17.2818L10.9902 22.4947L9.50526 21.0625L14.7182 15.7969L9.50526 10.5839L10.9902 9.099L16.2031 14.312L21.4688 9.099L22.9537 10.5839L17.688 15.7969L22.901 21.0625Z" fill="#EA2D3F"/>
</svg>
