<svg width="32" height="32" viewBox="0 0 32 32" fill="none" xmlns="http://www.w3.org/2000/svg">
<path fill-rule="evenodd" clip-rule="evenodd" d="M16 0C7.175 0 0 7.175 0 16C0 24.825 7.175 32 16 32C24.825 32 32 24.825 32 16C32 7.175 24.825 0 16 0Z" fill="#4BAE4F"/>
<path fill-rule="evenodd" clip-rule="evenodd" d="M23.7375 10.6062C24.125 10.9937 24.125 11.6312 23.7375 12.0187L14.3625 21.3937C14.1687 21.5875 13.9125 21.6875 13.6562 21.6875C13.4 21.6875 13.1437 21.5875 12.95 21.3937L8.26249 16.7062C7.87499 16.3187 7.87499 15.6812 8.26249 15.2937C8.64999 14.9062 9.28749 14.9062 9.67499 15.2937L13.6562 19.275L22.325 10.6062C22.7125 10.2125 23.35 10.2125 23.7375 10.6062Z" fill="white"/>
</svg>
