<svg width="32" height="32" viewBox="0 0 32 32" fill="none" xmlns="http://www.w3.org/2000/svg">
<path d="M15.9375 0C7.14 0 0 7.14 0 15.9375C0 24.735 7.14 31.875 15.9375 31.875C24.735 31.875 31.875 24.735 31.875 15.9375C31.875 7.14 24.735 0 15.9375 0Z" fill="#FFC02C"/>
<path fill-rule="evenodd" clip-rule="evenodd" d="M14.2834 22.2222C14.2834 23.2687 15.1397 24.125 16.1862 24.125C17.2327 24.125 18.089 23.2687 18.089 22.2222C18.089 21.1757 17.2327 20.3194 16.1862 20.3194C15.1397 20.3194 14.2834 21.1757 14.2834 22.2222ZM17.7275 16.9991L18.3649 9.36896C18.3744 9.31188 18.3744 9.2453 18.3744 9.18822V9.18819C18.3744 7.98944 17.404 7 16.1862 7C14.9018 7 13.9029 8.0941 14.0075 9.36896L14.645 16.9991C14.7116 17.7983 15.3775 18.4167 16.1862 18.4167C16.9949 18.4167 17.6609 17.7983 17.7275 16.9991Z" fill="white"/>
</svg>
